<svg width="726" height="691" viewBox="0 0 726 691" fill="none" xmlns="http://www.w3.org/2000/svg">
<g filter="url(#filter0_bd_1460_65)">
<path d="M104.465 102.554C104.465 94.2699 111.181 87.5542 119.465 87.5542H604.301C612.586 87.5542 619.301 94.2699 619.301 102.554V587.401C619.301 595.686 612.586 602.401 604.301 602.401H119.465C111.181 602.401 104.465 595.686 104.465 587.401V102.554Z" fill="#301D5A" fill-opacity="0.3" shape-rendering="crispEdges"/>
<path d="M104.865 102.554C104.865 94.4908 111.402 87.9542 119.465 87.9542H604.301C612.365 87.9542 618.901 94.4908 618.901 102.554V587.401C618.901 595.465 612.365 602.001 604.301 602.001H119.465C111.402 602.001 104.865 595.465 104.865 587.401V102.554Z" stroke="url(#paint0_linear_1460_65)" stroke-opacity="0.5" stroke-width="0.8" shape-rendering="crispEdges"/>
</g>
<circle cx="491.621" cy="114.107" r="4.15521" fill="#C875D5" stroke="#1C1B36" stroke-width="0.5"/>
<circle cx="505.917" cy="114.107" r="4.15521" fill="#C875D5" stroke="#1C1B36" stroke-width="0.5"/>
<circle cx="520.214" cy="114.107" r="4.15521" fill="#C875D5" stroke="#1C1B36" stroke-width="0.5"/>
<g filter="url(#filter1_bi_1460_65)">
<path d="M125.262 563.619C125.262 553.347 133.589 545.021 143.86 545.021H202.311C212.583 545.021 220.909 553.347 220.909 563.619C220.909 573.89 212.583 582.217 202.311 582.217H143.86C133.589 582.217 125.262 573.89 125.262 563.619Z" fill="#14122F" fill-opacity="0.6"/>
<path d="M125.762 563.619C125.762 553.623 133.865 545.521 143.86 545.521H202.311C212.306 545.521 220.409 553.623 220.409 563.619C220.409 573.614 212.306 581.717 202.311 581.717H143.86C133.865 581.717 125.762 573.614 125.762 563.619Z" stroke="url(#paint1_linear_1460_65)" stroke-opacity="0.5"/>
</g>
<g filter="url(#filter2_d_1460_65)">
<rect x="186.903" y="549.271" width="28.6941" height="28.6941" rx="14.3471" fill="#C875D5"/>
<rect x="187.103" y="549.471" width="28.2941" height="28.2941" rx="14.1471" stroke="url(#paint2_linear_1460_65)" stroke-width="0.4"/>
</g>
<g filter="url(#filter3_bd_1460_65)">
<path d="M43.5122 54.1299C43.5122 48.607 47.9894 44.1299 53.5122 44.1299H320.289C325.812 44.1299 330.289 48.607 330.289 54.1299V430.361C330.289 435.884 325.812 440.361 320.289 440.361H53.5122C47.9894 440.361 43.5122 435.884 43.5122 430.361V54.1299Z" fill="#301D5A" fill-opacity="0.3" shape-rendering="crispEdges"/>
<path d="M43.9122 54.1299C43.9122 48.828 48.2103 44.5299 53.5122 44.5299H320.289C325.591 44.5299 329.889 48.8279 329.889 54.1299V430.361C329.889 435.663 325.591 439.961 320.289 439.961H53.5122C48.2103 439.961 43.9122 435.663 43.9122 430.361V54.1299Z" stroke="url(#paint3_linear_1460_65)" stroke-opacity="0.5" stroke-width="0.8" shape-rendering="crispEdges"/>
</g>
<path d="M181.696 188.472C182.177 189.227 182.589 189.845 183.001 190.463C186.159 195.132 189.34 199.777 192.475 204.469C194.398 207.353 194.077 210.991 191.812 213.303C188.585 216.553 183.55 215.957 180.781 211.93C177.005 206.437 173.297 200.899 169.544 195.383C169.269 194.971 168.972 194.582 168.789 194.285C167.324 194.788 165.974 195.406 164.555 195.681C159.314 196.734 154.348 193.85 152.128 188.609C150.183 183.986 151.83 178.494 156.064 175.542C158.422 173.917 160.802 172.338 163.136 170.713C163.548 170.415 163.937 170.003 164.166 169.546C168.537 160.712 172.908 151.878 177.256 143.021C178.721 140.069 181.856 138.719 185.495 139.474C189.34 140.252 192.59 142.22 195.496 144.715C203.872 151.901 209.754 160.712 212.569 171.422C213.53 175.061 213.919 178.814 212.248 182.384C211.173 184.696 209.365 186.138 206.687 186.344C200.188 186.824 193.711 187.351 187.212 187.877C185.404 188.083 183.641 188.266 181.696 188.472ZM209.09 179.958C209.731 178.105 209.891 176.114 209.617 174.168C209.479 173.207 209.319 172.292 209.067 171.399C206.39 162.062 201.103 154.372 193.94 147.919C191.4 145.63 188.585 143.753 185.198 142.907C182.268 142.174 180.117 143.456 179.476 146.385C178.881 149.132 179.339 151.855 180.117 154.487C182.84 163.801 188.058 171.559 195.244 177.967C197.785 180.233 200.6 182.133 203.987 182.934C205.978 183.391 207.831 182.659 208.701 180.828C208.861 180.576 208.976 180.279 209.09 179.958ZM176.181 152.999C176.066 153.091 175.998 153.137 175.975 153.182C173.114 158.995 170.276 164.785 167.461 170.621C167.278 170.987 167.393 171.651 167.644 172.017C170.482 176.251 173.366 180.462 176.204 184.696C176.57 185.268 176.959 185.405 177.6 185.359C182.543 184.948 187.463 184.604 192.407 184.192C193.94 184.078 195.45 183.895 197.075 183.735C186.388 175.885 179.453 165.701 176.181 152.999ZM173.503 186.733C170.528 182.339 167.644 178.105 164.646 173.688C161.969 175.633 159.2 177.281 156.842 179.386C154.005 181.95 154.027 186.16 156.522 189.456C158.811 192.5 162.907 193.53 166.088 191.653C168.606 190.188 170.963 188.449 173.503 186.733ZM171.466 192.225C173.183 194.743 174.83 197.168 176.455 199.594C178.927 203.21 181.33 206.872 183.847 210.442C185.472 212.754 188.951 212.433 190.004 209.916C190.53 208.703 190.416 207.467 189.637 206.323C185.816 200.716 182.039 195.109 178.24 189.502C177.668 188.655 176.982 188.518 176.021 189.136C174.533 190.097 173.068 191.127 171.466 192.225Z" fill="#7497CE"/>
<path d="M215.796 151.832C215.338 151.374 214.697 150.985 214.423 150.413C214.033 149.612 214.514 148.949 215.201 148.491C217.512 146.957 219.824 145.447 222.158 143.914C223.645 142.93 225.133 141.946 226.643 140.984C227.742 140.298 228.634 140.458 229.207 141.35C229.733 142.197 229.458 143.204 228.451 143.868C224.767 146.294 221.082 148.72 217.398 151.123C217.009 151.397 216.528 151.512 215.796 151.832Z" fill="#7497CE"/>
<path d="M219.091 159.476C221.975 160.002 224.858 160.506 227.742 161.032C229.321 161.307 230.877 161.581 232.456 161.856C233.715 162.062 234.356 162.771 234.219 163.801C234.104 164.808 233.234 165.449 232.022 165.243C227.559 164.488 223.119 163.687 218.679 162.84C217.581 162.634 216.963 161.764 217.169 160.895C217.398 159.911 218.016 159.407 219.091 159.476Z" fill="#7497CE"/>
<path d="M205.886 141.648C206.298 137.757 206.733 133.592 207.214 129.427C207.328 128.329 208.06 127.779 209.067 127.894C210.006 128.008 210.624 128.718 210.532 129.748C210.257 132.631 209.937 135.515 209.662 138.375C209.525 139.634 209.433 140.87 209.296 142.129C209.182 143.273 208.427 143.982 207.465 143.937C206.458 143.868 205.84 143.067 205.886 141.648Z" fill="#7497CE"/>
<path d="M190.713 156.02C191.445 155.883 192.178 155.86 192.91 155.974C196.343 156.478 199.227 158.858 200.302 162.199C201.492 165.861 200.211 169.98 197.121 172.315C196.16 173.047 195.061 173.047 194.466 172.292C193.803 171.491 194.031 170.461 195.038 169.637C197.579 167.532 198.082 164.305 196.251 161.673C194.535 159.201 191.331 158.56 188.539 160.094C187.418 160.712 186.433 160.574 185.93 159.728C185.358 158.812 185.632 157.759 186.823 157.187C188.104 156.569 189.569 156.249 190.713 156.02Z" fill="#7497CE"/>
<rect x="105.428" y="378.689" width="162.947" height="38.8806" rx="19.4403" fill="#C875D5" stroke="url(#paint4_linear_1460_65)" stroke-width="0.8"/>
<g filter="url(#filter4_bi_1460_65)">
<circle cx="186.848" cy="167.628" r="74.4451" stroke="#14122F" stroke-opacity="0.6" stroke-width="9"/>
</g>
<path fill-rule="evenodd" clip-rule="evenodd" d="M184.471 97.9615C185.26 97.9352 186.052 97.9219 186.848 97.9219C225.478 97.9219 256.793 129.237 256.793 167.867C256.793 201.167 233.522 229.032 202.355 236.087L204.713 244.782C239.708 236.686 265.793 205.323 265.793 167.867C265.793 124.267 230.448 88.9219 186.848 88.9219C186.053 88.9219 185.26 88.9336 184.471 88.957V97.9615Z" fill="#BFFF5D"/>
<path d="M128.887 332.349H245.034" stroke="white" stroke-linecap="round"/>
<path d="M87.231 352.856H286.669" stroke="white" stroke-linecap="round"/>
<path d="M111.873 272.559C112.023 272.098 112.675 272.098 112.824 272.559L115.582 281.045C115.648 281.251 115.84 281.39 116.057 281.39H124.98C125.464 281.39 125.665 282.01 125.274 282.295L118.055 287.539C117.88 287.667 117.806 287.892 117.873 288.098L120.631 296.584C120.78 297.045 120.253 297.428 119.861 297.143L112.643 291.899C112.467 291.771 112.23 291.771 112.055 291.899L104.836 297.143C104.444 297.428 103.917 297.045 104.067 296.584L106.824 288.098C106.891 287.892 106.818 287.667 106.642 287.539L99.4239 282.295C99.032 282.01 99.2334 281.39 99.7178 281.39H108.64C108.857 281.39 109.049 281.251 109.116 281.045L111.873 272.559Z" fill="#FECD35"/>
<path d="M149.115 272.559C149.265 272.098 149.917 272.098 150.066 272.559L152.824 281.045C152.891 281.251 153.083 281.39 153.299 281.39H162.222C162.706 281.39 162.908 282.01 162.516 282.295L155.297 287.539C155.122 287.667 155.049 287.892 155.116 288.098L157.873 296.584C158.022 297.045 157.495 297.428 157.103 297.143L149.885 291.899C149.71 291.771 149.472 291.771 149.297 291.899L142.078 297.143C141.687 297.428 141.159 297.045 141.309 296.584L144.066 288.098C144.133 287.892 144.06 287.667 143.885 287.539L136.666 282.295C136.274 282.01 136.476 281.39 136.96 281.39H145.883C146.099 281.39 146.291 281.251 146.358 281.045L149.115 272.559Z" fill="#FECD35"/>
<path d="M186.365 272.559C186.515 272.098 187.167 272.098 187.316 272.559L190.074 281.045C190.141 281.251 190.333 281.39 190.549 281.39H199.472C199.956 281.39 200.158 282.01 199.766 282.295L192.547 287.539C192.372 287.667 192.299 287.892 192.366 288.098L195.123 296.584C195.272 297.045 194.745 297.428 194.353 297.143L187.135 291.899C186.96 291.771 186.722 291.771 186.547 291.899L179.328 297.143C178.937 297.428 178.409 297.045 178.559 296.584L181.316 288.098C181.383 287.892 181.31 287.667 181.135 287.539L173.916 282.295C173.524 282.01 173.726 281.39 174.21 281.39H183.133C183.349 281.39 183.541 281.251 183.608 281.045L186.365 272.559Z" fill="#FECD35"/>
<path d="M223.608 272.559C223.757 272.098 224.409 272.098 224.559 272.559L227.316 281.045C227.383 281.251 227.575 281.39 227.791 281.39H236.714C237.198 281.39 237.4 282.01 237.008 282.295L229.789 287.539C229.614 287.667 229.541 287.892 229.608 288.098L232.365 296.584C232.515 297.045 231.987 297.428 231.596 297.143L224.377 291.899C224.202 291.771 223.964 291.771 223.789 291.899L216.571 297.143C216.179 297.428 215.652 297.045 215.801 296.584L218.558 288.098C218.625 287.892 218.552 287.667 218.377 287.539L211.158 282.295C210.766 282.01 210.968 281.39 211.452 281.39H220.375C220.591 281.39 220.783 281.251 220.85 281.045L223.608 272.559Z" fill="#FECD35"/>
<path d="M260.858 272.559C261.007 272.098 261.659 272.098 261.809 272.559L264.566 281.045C264.633 281.251 264.825 281.39 265.041 281.39H273.964C274.448 281.39 274.65 282.01 274.258 282.295L267.039 287.539C266.864 287.667 266.791 287.892 266.858 288.098L269.615 296.584C269.765 297.045 269.237 297.428 268.846 297.143L261.627 291.899C261.452 291.771 261.214 291.771 261.039 291.899L253.821 297.143C253.429 297.428 252.902 297.045 253.051 296.584L255.808 288.098C255.875 287.892 255.802 287.667 255.627 287.539L248.408 282.295C248.016 282.01 248.218 281.39 248.702 281.39H257.625C257.841 281.39 258.033 281.251 258.1 281.045L260.858 272.559Z" fill="#FECD35"/>
<circle cx="60.5112" cy="62.8315" r="4.15521" fill="#C875D5" stroke="#1C1B36" stroke-width="0.5"/>
<circle cx="308.691" cy="62.8315" r="4.15521" fill="#C875D5" stroke="#1C1B36" stroke-width="0.5"/>
<g filter="url(#filter5_bd_1460_65)">
<path d="M393.075 258.365C393.075 252.842 397.552 248.365 403.075 248.365H669.852C675.375 248.365 679.852 252.842 679.852 258.365V634.597C679.852 640.12 675.375 644.597 669.852 644.597H403.075C397.552 644.597 393.075 640.12 393.075 634.597V258.365Z" fill="#301D5A" fill-opacity="0.3" shape-rendering="crispEdges"/>
<path d="M393.475 258.365C393.475 253.063 397.773 248.765 403.075 248.765H669.852C675.154 248.765 679.452 253.063 679.452 258.365V634.597C679.452 639.899 675.154 644.197 669.852 644.197H403.075C397.773 644.197 393.475 639.899 393.475 634.597V258.365Z" stroke="url(#paint5_linear_1460_65)" stroke-opacity="0.5" stroke-width="0.8" shape-rendering="crispEdges"/>
</g>
<rect x="454.99" y="582.924" width="162.947" height="38.8806" rx="19.4403" fill="#C875D5" stroke="url(#paint6_linear_1460_65)" stroke-width="0.8"/>
<g filter="url(#filter6_bi_1460_65)">
<circle cx="536.41" cy="371.864" r="74.4451" stroke="#14122F" stroke-opacity="0.6" stroke-width="9"/>
</g>
<path fill-rule="evenodd" clip-rule="evenodd" d="M534.033 302.197C534.822 302.171 535.615 302.157 536.41 302.157C575.04 302.157 606.356 333.473 606.356 372.102C606.356 405.403 583.085 433.268 551.918 440.322L554.276 449.017C589.271 440.922 615.356 409.558 615.356 372.102C615.356 328.502 580.011 293.157 536.41 293.157C535.615 293.157 534.823 293.169 534.033 293.192V302.197Z" fill="#BFFF5D"/>
<path d="M478.45 536.584H594.597" stroke="white" stroke-linecap="round"/>
<path d="M436.793 557.091H636.231" stroke="white" stroke-linecap="round"/>
<path d="M461.498 476.758C461.648 476.297 462.3 476.297 462.449 476.758L465.207 485.244C465.273 485.45 465.465 485.589 465.682 485.589H474.605C475.089 485.589 475.29 486.209 474.899 486.494L467.68 491.739C467.505 491.866 467.431 492.092 467.498 492.298L470.256 500.783C470.405 501.244 469.878 501.627 469.486 501.343L462.268 496.098C462.092 495.971 461.855 495.971 461.68 496.098L454.461 501.343C454.069 501.627 453.542 501.244 453.692 500.783L456.449 492.298C456.516 492.092 456.443 491.866 456.267 491.739L449.049 486.494C448.657 486.209 448.858 485.589 449.343 485.589H458.265C458.482 485.589 458.674 485.45 458.741 485.244L461.498 476.758Z" fill="#FECD35"/>
<path d="M498.74 476.758C498.89 476.297 499.542 476.297 499.691 476.758L502.449 485.244C502.516 485.45 502.708 485.589 502.924 485.589H511.847C512.331 485.589 512.533 486.209 512.141 486.494L504.922 491.739C504.747 491.866 504.674 492.092 504.741 492.298L507.498 500.783C507.647 501.244 507.12 501.627 506.728 501.343L499.51 496.098C499.335 495.971 499.097 495.971 498.922 496.098L491.703 501.343C491.312 501.627 490.784 501.244 490.934 500.783L493.691 492.298C493.758 492.092 493.685 491.866 493.51 491.739L486.291 486.494C485.899 486.209 486.101 485.589 486.585 485.589H495.508C495.724 485.589 495.916 485.45 495.983 485.244L498.74 476.758Z" fill="#FECD35"/>
<path d="M535.99 476.758C536.14 476.297 536.792 476.297 536.941 476.758L539.699 485.244C539.766 485.45 539.958 485.589 540.174 485.589H549.097C549.581 485.589 549.783 486.209 549.391 486.494L542.172 491.739C541.997 491.866 541.924 492.092 541.991 492.298L544.748 500.783C544.897 501.244 544.37 501.627 543.978 501.343L536.76 496.098C536.585 495.971 536.347 495.971 536.172 496.098L528.953 501.343C528.562 501.627 528.034 501.244 528.184 500.783L530.941 492.298C531.008 492.092 530.935 491.866 530.76 491.739L523.541 486.494C523.149 486.209 523.351 485.589 523.835 485.589H532.758C532.974 485.589 533.166 485.45 533.233 485.244L535.99 476.758Z" fill="#FECD35"/>
<path d="M573.233 476.758C573.382 476.297 574.034 476.297 574.184 476.758L576.941 485.244C577.008 485.45 577.2 485.589 577.416 485.589H586.339C586.823 485.589 587.025 486.209 586.633 486.494L579.414 491.739C579.239 491.866 579.166 492.092 579.233 492.298L581.99 500.783C582.14 501.244 581.612 501.627 581.221 501.343L574.002 496.098C573.827 495.971 573.589 495.971 573.414 496.098L566.196 501.343C565.804 501.627 565.277 501.244 565.426 500.783L568.183 492.298C568.25 492.092 568.177 491.866 568.002 491.739L560.783 486.494C560.391 486.209 560.593 485.589 561.077 485.589H570C570.216 485.589 570.408 485.45 570.475 485.244L573.233 476.758Z" fill="#FECD35"/>
<path d="M610.483 476.758C610.632 476.297 611.284 476.297 611.434 476.758L614.191 485.244C614.258 485.45 614.45 485.589 614.666 485.589H623.589C624.073 485.589 624.275 486.209 623.883 486.494L616.664 491.739C616.489 491.866 616.416 492.092 616.483 492.298L619.24 500.783C619.39 501.244 618.862 501.627 618.471 501.343L611.252 496.098C611.077 495.971 610.839 495.971 610.664 496.098L603.446 501.343C603.054 501.627 602.527 501.244 602.676 500.783L605.433 492.298C605.5 492.092 605.427 491.866 605.252 491.739L598.033 486.494C597.641 486.209 597.843 485.589 598.327 485.589H607.25C607.466 485.589 607.658 485.45 607.725 485.244L610.483 476.758Z" fill="#FECD35"/>
<path d="M566.988 407.638C568.203 406.424 569.389 405.237 570.604 404.023C570.491 403.882 570.321 403.712 570.152 403.543C568.034 401.424 565.943 399.334 563.825 397.215C563.062 396.453 563.119 396.001 564.051 395.492C565.378 394.758 566.678 393.995 568.175 393.148C562.3 391.34 556.622 389.589 550.719 387.781C552.526 393.656 554.278 399.362 556.085 405.237C556.368 404.785 556.594 404.418 556.82 404.051C557.582 402.723 558.317 401.396 559.136 400.125C559.277 399.871 559.644 399.645 559.899 399.645C560.125 399.645 560.52 399.927 560.548 400.153C560.605 400.464 560.492 400.831 560.351 401.142C559.39 402.836 558.402 404.503 557.441 406.17C557.187 406.621 556.989 407.073 556.65 407.469C556.453 407.723 556.057 408.034 555.803 408.006C555.52 407.977 555.181 407.582 555.097 407.299C554.391 405.153 553.741 402.978 553.063 400.803C551.651 396.227 550.238 391.679 548.883 387.103C548.798 386.793 548.798 386.284 548.996 386.086C549.193 385.889 549.702 385.86 549.984 385.945C555.436 387.583 560.887 389.278 566.339 390.945C567.469 391.284 568.598 391.651 569.757 391.99C569.954 392.046 570.18 392.046 570.321 392.188C570.576 392.385 570.915 392.64 570.943 392.922C570.971 393.148 570.717 393.543 570.491 393.685C568.966 394.589 567.384 395.464 565.83 396.34C565.717 396.396 565.604 396.481 565.435 396.566C565.604 396.735 565.717 396.905 565.859 397.046C567.921 399.108 569.983 401.17 572.045 403.232C572.751 403.938 572.751 404.221 572.045 404.927C570.632 406.339 569.248 407.751 567.836 409.135C567.158 409.813 566.847 409.813 566.169 409.135C564.7 407.667 563.232 406.226 561.791 404.729C561.593 404.503 561.48 404.108 561.48 403.797C561.48 403.627 561.819 403.317 562.017 403.317C562.328 403.317 562.723 403.458 562.949 403.684C564.164 404.842 565.322 406.057 566.536 407.215C566.678 407.384 566.847 407.525 566.988 407.638Z" fill="#7497CE"/>
<path d="M534.082 401.876C519.055 401.565 506.174 390.606 503.886 375.833C501.288 359.252 512.586 343.689 529.167 340.949C545.747 338.209 561.706 349.79 564.192 366.371C564.842 370.692 564.644 374.986 563.429 379.223C563.006 380.748 562.243 381.341 561.085 380.974C559.757 380.522 559.842 379.477 560.125 378.403C563.232 366.512 558.769 354.818 548.544 348.18C532.02 337.446 509.451 348.208 507.135 367.755C505.44 381.962 515.185 395.295 529.336 397.78C533.375 398.487 537.386 398.289 541.341 397.187C542.386 396.877 543.431 396.764 543.939 398.091C544.335 399.164 543.827 400.153 542.527 400.407C539.731 400.944 536.906 401.396 534.082 401.876Z" fill="#7497CE"/>
<path d="M535.833 384.561C535.522 387.414 535.155 388.092 533.969 388.035C532.81 387.979 532.472 387.273 532.302 384.533C529.929 384.053 527.896 382.895 526.286 381.03C525.382 379.985 525.325 378.968 526.173 378.319C527.133 377.556 528.009 377.839 528.743 378.742C529.025 379.053 529.308 379.364 529.647 379.646C531.426 381.087 533.432 381.737 535.692 381.002C537.697 380.352 538.77 378.884 539.081 376.878C539.364 374.986 538.488 373.517 536.906 372.613C535.494 371.794 533.94 371.229 532.387 370.664C528.884 369.336 527.02 367.02 527.274 363.913C527.5 360.778 529.223 358.716 532.246 357.755C532.556 356.428 531.709 354.479 534.025 354.225C535.183 354.083 535.55 354.874 535.805 357.501C537.16 358.123 538.488 358.688 539.759 359.365C540.719 359.902 541.228 360.778 540.522 361.851C539.844 362.896 538.968 362.727 537.951 362.247C536.737 361.682 535.437 361.173 534.138 361.032C532.415 360.834 531.144 361.936 530.748 363.574C530.41 364.986 531.003 366.229 532.584 366.992C533.686 367.529 534.872 367.868 536.002 368.32C540.352 370.014 542.584 372.782 542.555 376.398C542.442 380.239 540.239 382.951 535.833 384.561Z" fill="#7497CE"/>
<path d="M525.608 411.084C523.009 410.209 520.495 409.587 518.151 408.514C504.988 402.554 496.938 392.414 494 378.29C493.548 376.087 493.492 373.799 493.379 371.568C493.294 370.184 493.972 369.421 495.045 369.421C496.09 369.421 496.684 370.184 496.74 371.568C497.333 385.437 503.519 396.114 515.383 403.288C518.32 405.068 521.766 405.972 524.958 407.271C525.551 407.525 526.314 407.638 526.709 408.062C527.048 408.457 527.189 409.305 527.02 409.813C526.822 410.293 526.144 410.604 525.608 411.084Z" fill="#7497CE"/>
<path d="M574.7 369.082C574.728 371.85 574.304 372.698 573.118 372.754C571.903 372.839 571.367 371.963 571.338 369.845C570.971 353.575 558.91 338.661 543.092 334.904C542.781 334.819 542.442 334.735 542.16 334.622C541.228 334.283 540.804 333.605 541.03 332.645C541.284 331.599 542.047 331.119 543.064 331.43C546.001 332.39 549.052 333.125 551.792 334.481C563.994 340.61 571.367 350.553 574.135 363.885C574.474 365.862 574.558 367.839 574.7 369.082Z" fill="#7497CE"/>
<path d="M537.443 332.136C537.273 333.153 536.708 333.803 535.663 333.746C534.646 333.69 534.025 333.012 534.082 331.967C534.138 331.006 534.759 330.413 535.748 330.413C536.793 330.441 537.302 331.119 537.443 332.136Z" fill="#7497CE"/>
<path d="M532.387 411.762C531.37 411.649 530.692 411.141 530.664 410.096C530.636 409.107 531.229 408.486 532.189 408.401C533.234 408.316 533.912 408.938 533.969 409.955C534.053 411.028 533.404 411.593 532.387 411.762Z" fill="#7497CE"/>
<circle cx="410.136" cy="266.831" r="4.15521" fill="#C875D5" stroke="#1C1B36" stroke-width="0.5"/>
<circle cx="658.316" cy="266.831" r="4.15521" fill="#C875D5" stroke="#1C1B36" stroke-width="0.5"/>
<defs>
<filter id="filter0_bd_1460_65" x="60.9653" y="44.0542" width="603.836" height="603.847" filterUnits="userSpaceOnUse" color-interpolation-filters="sRGB">
<feFlood flood-opacity="0" result="BackgroundImageFix"/>
<feGaussianBlur in="BackgroundImageFix" stdDeviation="20"/>
<feComposite in2="SourceAlpha" operator="in" result="effect1_backgroundBlur_1460_65"/>
<feColorMatrix in="SourceAlpha" type="matrix" values="0 0 0 0 0 0 0 0 0 0 0 0 0 0 0 0 0 0 127 0" result="hardAlpha"/>
<feOffset dx="1" dy="1"/>
<feGaussianBlur stdDeviation="22.25"/>
<feComposite in2="hardAlpha" operator="out"/>
<feColorMatrix type="matrix" values="0 0 0 0 0 0 0 0 0 0 0 0 0 0 0 0 0 0 0.1 0"/>
<feBlend mode="normal" in2="effect1_backgroundBlur_1460_65" result="effect2_dropShadow_1460_65"/>
<feBlend mode="normal" in="SourceGraphic" in2="effect2_dropShadow_1460_65" result="shape"/>
</filter>
<filter id="filter1_bi_1460_65" x="85.2622" y="505.021" width="175.647" height="117.196" filterUnits="userSpaceOnUse" color-interpolation-filters="sRGB">
<feFlood flood-opacity="0" result="BackgroundImageFix"/>
<feGaussianBlur in="BackgroundImageFix" stdDeviation="20"/>
<feComposite in2="SourceAlpha" operator="in" result="effect1_backgroundBlur_1460_65"/>
<feBlend mode="normal" in="SourceGraphic" in2="effect1_backgroundBlur_1460_65" result="shape"/>
<feColorMatrix in="SourceAlpha" type="matrix" values="0 0 0 0 0 0 0 0 0 0 0 0 0 0 0 0 0 0 127 0" result="hardAlpha"/>
<feOffset dy="2"/>
<feGaussianBlur stdDeviation="3.15"/>
<feComposite in2="hardAlpha" operator="arithmetic" k2="-1" k3="1"/>
<feColorMatrix type="matrix" values="0 0 0 0 0 0 0 0 0 0 0 0 0 0 0 0 0 0 0.2 0"/>
<feBlend mode="normal" in2="shape" result="effect2_innerShadow_1460_65"/>
</filter>
<filter id="filter2_d_1460_65" x="185.403" y="547.771" width="32.6941" height="32.6941" filterUnits="userSpaceOnUse" color-interpolation-filters="sRGB">
<feFlood flood-opacity="0" result="BackgroundImageFix"/>
<feColorMatrix in="SourceAlpha" type="matrix" values="0 0 0 0 0 0 0 0 0 0 0 0 0 0 0 0 0 0 127 0" result="hardAlpha"/>
<feOffset dx="0.5" dy="0.5"/>
<feGaussianBlur stdDeviation="1"/>
<feComposite in2="hardAlpha" operator="out"/>
<feColorMatrix type="matrix" values="0 0 0 0 0 0 0 0 0 0 0 0 0 0 0 0 0 0 0.5 0"/>
<feBlend mode="normal" in2="BackgroundImageFix" result="effect1_dropShadow_1460_65"/>
<feBlend mode="normal" in="SourceGraphic" in2="effect1_dropShadow_1460_65" result="shape"/>
</filter>
<filter id="filter3_bd_1460_65" x="0.012207" y="0.629883" width="375.777" height="485.231" filterUnits="userSpaceOnUse" color-interpolation-filters="sRGB">
<feFlood flood-opacity="0" result="BackgroundImageFix"/>
<feGaussianBlur in="BackgroundImageFix" stdDeviation="7.5"/>
<feComposite in2="SourceAlpha" operator="in" result="effect1_backgroundBlur_1460_65"/>
<feColorMatrix in="SourceAlpha" type="matrix" values="0 0 0 0 0 0 0 0 0 0 0 0 0 0 0 0 0 0 127 0" result="hardAlpha"/>
<feOffset dx="1" dy="1"/>
<feGaussianBlur stdDeviation="22.25"/>
<feComposite in2="hardAlpha" operator="out"/>
<feColorMatrix type="matrix" values="0 0 0 0 0 0 0 0 0 0 0 0 0 0 0 0 0 0 0.1 0"/>
<feBlend mode="normal" in2="effect1_backgroundBlur_1460_65" result="effect2_dropShadow_1460_65"/>
<feBlend mode="normal" in="SourceGraphic" in2="effect2_dropShadow_1460_65" result="shape"/>
</filter>
<filter id="filter4_bi_1460_65" x="98.6028" y="79.3831" width="176.49" height="176.49" filterUnits="userSpaceOnUse" color-interpolation-filters="sRGB">
<feFlood flood-opacity="0" result="BackgroundImageFix"/>
<feGaussianBlur in="BackgroundImageFix" stdDeviation="4.65"/>
<feComposite in2="SourceAlpha" operator="in" result="effect1_backgroundBlur_1460_65"/>
<feBlend mode="normal" in="SourceGraphic" in2="effect1_backgroundBlur_1460_65" result="shape"/>
<feColorMatrix in="SourceAlpha" type="matrix" values="0 0 0 0 0 0 0 0 0 0 0 0 0 0 0 0 0 0 127 0" result="hardAlpha"/>
<feOffset dx="1" dy="1"/>
<feGaussianBlur stdDeviation="1"/>
<feComposite in2="hardAlpha" operator="arithmetic" k2="-1" k3="1"/>
<feColorMatrix type="matrix" values="0 0 0 0 0 0 0 0 0 0 0 0 0 0 0 0 0 0 0.1 0"/>
<feBlend mode="normal" in2="shape" result="effect2_innerShadow_1460_65"/>
</filter>
<filter id="filter5_bd_1460_65" x="349.575" y="204.865" width="375.777" height="485.231" filterUnits="userSpaceOnUse" color-interpolation-filters="sRGB">
<feFlood flood-opacity="0" result="BackgroundImageFix"/>
<feGaussianBlur in="BackgroundImageFix" stdDeviation="7.5"/>
<feComposite in2="SourceAlpha" operator="in" result="effect1_backgroundBlur_1460_65"/>
<feColorMatrix in="SourceAlpha" type="matrix" values="0 0 0 0 0 0 0 0 0 0 0 0 0 0 0 0 0 0 127 0" result="hardAlpha"/>
<feOffset dx="1" dy="1"/>
<feGaussianBlur stdDeviation="22.25"/>
<feComposite in2="hardAlpha" operator="out"/>
<feColorMatrix type="matrix" values="0 0 0 0 0 0 0 0 0 0 0 0 0 0 0 0 0 0 0.1 0"/>
<feBlend mode="normal" in2="effect1_backgroundBlur_1460_65" result="effect2_dropShadow_1460_65"/>
<feBlend mode="normal" in="SourceGraphic" in2="effect2_dropShadow_1460_65" result="shape"/>
</filter>
<filter id="filter6_bi_1460_65" x="448.165" y="283.618" width="176.49" height="176.49" filterUnits="userSpaceOnUse" color-interpolation-filters="sRGB">
<feFlood flood-opacity="0" result="BackgroundImageFix"/>
<feGaussianBlur in="BackgroundImageFix" stdDeviation="4.65"/>
<feComposite in2="SourceAlpha" operator="in" result="effect1_backgroundBlur_1460_65"/>
<feBlend mode="normal" in="SourceGraphic" in2="effect1_backgroundBlur_1460_65" result="shape"/>
<feColorMatrix in="SourceAlpha" type="matrix" values="0 0 0 0 0 0 0 0 0 0 0 0 0 0 0 0 0 0 127 0" result="hardAlpha"/>
<feOffset dx="1" dy="1"/>
<feGaussianBlur stdDeviation="1"/>
<feComposite in2="hardAlpha" operator="arithmetic" k2="-1" k3="1"/>
<feColorMatrix type="matrix" values="0 0 0 0 0 0 0 0 0 0 0 0 0 0 0 0 0 0 0.1 0"/>
<feBlend mode="normal" in2="shape" result="effect2_innerShadow_1460_65"/>
</filter>
<linearGradient id="paint0_linear_1460_65" x1="424.983" y1="602.401" x2="424.983" y2="87.5542" gradientUnits="userSpaceOnUse">
<stop stop-color="#D596F8"/>
<stop offset="1" stop-color="#572D6E"/>
</linearGradient>
<linearGradient id="paint1_linear_1460_65" x1="184.809" y1="582.217" x2="184.809" y2="545.021" gradientUnits="userSpaceOnUse">
<stop stop-color="#7171C5"/>
<stop offset="1" stop-color="#23234D"/>
</linearGradient>
<linearGradient id="paint2_linear_1460_65" x1="201.25" y1="549.271" x2="201.25" y2="577.966" gradientUnits="userSpaceOnUse">
<stop stop-color="#EB93F8"/>
<stop offset="1" stop-color="#A15DAC"/>
</linearGradient>
<linearGradient id="paint3_linear_1460_65" x1="222.049" y1="440.361" x2="222.049" y2="44.1299" gradientUnits="userSpaceOnUse">
<stop stop-color="#BB72E4"/>
<stop offset="1" stop-color="#572D6E"/>
</linearGradient>
<linearGradient id="paint4_linear_1460_65" x1="171.432" y1="379.487" x2="171.432" y2="415.956" gradientUnits="userSpaceOnUse">
<stop stop-color="#F1A9FB"/>
<stop offset="1" stop-color="#883C88"/>
</linearGradient>
<linearGradient id="paint5_linear_1460_65" x1="571.612" y1="644.597" x2="571.612" y2="248.365" gradientUnits="userSpaceOnUse">
<stop stop-color="#BB72E4"/>
<stop offset="1" stop-color="#572D6E"/>
</linearGradient>
<linearGradient id="paint6_linear_1460_65" x1="520.994" y1="583.722" x2="520.994" y2="620.191" gradientUnits="userSpaceOnUse">
<stop stop-color="#F1A9FB"/>
<stop offset="1" stop-color="#883C88"/>
</linearGradient>
</defs>
</svg>
