<svg width="228" height="228" viewBox="0 0 228 228" fill="none" xmlns="http://www.w3.org/2000/svg">
<g id="Group 482212">
<g id="Ellipse 40">
<g filter="url(#filter0_i_1325_111)">
<circle cx="113.702" cy="114.145" r="113.608" fill="#13112D" fill-opacity="0.5"/>
</g>
<circle cx="113.702" cy="114.145" r="113.358" stroke="url(#paint0_linear_1325_111)" stroke-width="0.5"/>
</g>
<g id="Ellipse 41" filter="url(#filter1_d_1325_111)">
<circle cx="113.706" cy="114.145" r="103.636" fill="url(#paint1_linear_1325_111)"/>
<circle cx="113.706" cy="114.145" r="103.386" stroke="url(#paint2_linear_1325_111)" stroke-width="0.5"/>
</g>
<g id="Vector">
<path d="M150.122 107.741C151.099 108.054 151.96 108.327 152.82 108.562C154.736 109.149 156.457 109.853 158.1 107.662C158.804 106.685 160.642 106.567 161.932 105.942C162.597 105.629 163.458 105.199 163.653 104.612C167.29 95.0695 170.81 85.4879 174.408 75.9454C174.838 74.7721 174.916 73.9508 173.86 72.8949C171.553 70.5484 171.475 66.9895 173.313 64.2519C175.073 61.6707 178.553 60.5757 181.448 61.6316C184.615 62.8049 186.414 65.6598 186.101 68.9449C185.828 72.1518 183.325 74.8894 180.118 75.2023C178.593 75.3588 178.123 75.9454 177.615 77.2751C174.095 86.8567 170.497 96.3992 166.86 105.942C166.43 107.037 166.782 107.545 167.486 108.249C169.754 110.635 170.067 113.646 168.503 116.54C167.095 119.121 164.201 120.412 160.994 119.943C158.217 119.512 155.988 117.127 155.362 114.154C155.245 113.568 154.619 112.864 154.071 112.629C152.703 112.082 151.217 111.769 149.613 111.339C148.87 113.568 148.283 115.719 147.423 117.831C146.563 119.943 145.468 121.937 144.412 124.166C148.557 127.686 152.781 131.284 156.966 134.882C161.541 138.754 166 142.743 170.693 146.497C176.52 151.19 175.972 159.56 171.357 164.135C166.156 169.298 158.413 168.946 153.641 163.353C146.563 155.023 139.445 146.693 132.366 138.324C131.545 137.385 130.997 137.15 129.785 137.776C117.153 144.464 104.521 144.425 91.8497 137.893C91.6933 137.815 91.4978 137.776 91.1458 137.62C90.0116 139.653 88.9166 141.687 87.7824 143.76C89.8552 146.145 90.6765 148.766 89.425 151.738C88.0953 154.867 84.6146 156.666 81.4468 155.922C78.0444 155.14 75.6197 152.129 76.0108 148.609C76.2063 146.732 75.6197 145.793 74.1335 144.894C72.2954 143.76 70.6138 142.469 68.7757 141.179C66.6638 142.547 64.4346 143.173 61.9708 142.469C61.697 142.391 61.1104 142.743 60.9148 143.056C58.9203 145.637 56.9258 148.218 55.0877 150.917C54.7748 151.386 54.853 152.364 55.1268 152.95C56.9258 156.744 55.4787 160.928 51.7243 162.688C48.2437 164.331 44.059 162.688 42.4165 159.051C40.813 155.531 42.4165 151.308 46.1318 149.821C47.2659 149.352 48.713 149.196 49.9253 149.352C51.3332 149.587 52.0763 149.118 52.8194 148.062C54.3837 145.832 56.0263 143.603 57.7079 141.491C58.3728 140.67 58.4901 140.044 57.9817 139.067C56.4565 136.094 56.9649 133.044 59.155 130.815C61.345 128.625 64.4737 128.116 67.2504 129.446C69.988 130.776 71.5133 133.67 71.044 136.916C70.8875 137.972 71.1222 138.597 72.0217 139.184C73.1949 139.888 74.3291 140.67 75.385 141.53C77.0276 142.86 78.6701 144.112 80.782 142.352C81.0558 142.117 81.5642 142 81.9161 142.078C84.8493 142.821 85.6706 140.67 86.6483 138.676C87.1176 137.698 87.6651 136.759 88.2126 135.782C69.5578 122.054 67.6806 99.0977 76.4801 83.8844C85.6706 68.0455 104.325 60.3411 121.142 65.0732C138.545 69.8836 152.233 86.6611 150.122 107.741ZM74.8766 103.243C74.8766 122.993 91.0676 139.145 110.817 139.145C130.685 139.145 146.876 122.954 146.836 103.126C146.797 83.4151 130.567 67.1851 110.856 67.1851C91.0676 67.1851 74.8375 83.4151 74.8766 103.243ZM140.344 142.156C145.976 148.766 151.451 155.336 157.122 161.789C160.133 165.23 165.53 165.035 168.972 161.593C172.335 158.191 172.413 152.833 169.05 149.743C166.938 147.827 164.709 145.989 162.558 144.151C158.178 140.435 153.798 136.681 149.535 133.122C146.406 136.173 143.473 139.067 140.344 142.156ZM137.646 138.91C140.579 136.016 143.395 133.2 146.289 130.345C145.077 129.329 143.747 128.194 142.847 127.451C140.11 130.228 137.489 132.848 134.752 135.586C135.573 136.525 136.707 137.815 137.646 138.91ZM162.363 116.501C164.279 116.54 165.921 115.015 166 113.177C166.078 111.378 164.201 109.501 162.402 109.501C160.564 109.501 158.999 111.143 158.96 113.059C158.96 115.093 160.329 116.462 162.363 116.501ZM82.933 152.442C84.8102 152.481 86.4527 150.956 86.531 149.039C86.6092 147.084 85.0057 145.402 82.9721 145.402C81.0167 145.402 79.5305 146.927 79.4914 148.883C79.4914 150.799 81.0558 152.403 82.933 152.442ZM179.101 64.7994C177.185 64.7994 175.659 66.3638 175.62 68.2801C175.62 70.2746 177.263 71.8781 179.257 71.7999C181.174 71.7216 182.66 70.1573 182.621 68.2019C182.543 66.2856 181.017 64.7994 179.101 64.7994ZM64.0435 132.144C62.1663 132.184 60.6411 133.826 60.6411 135.703C60.6411 137.737 62.2836 139.262 64.3173 139.145C66.2336 139.067 67.7197 137.424 67.6415 135.547C67.5633 133.67 65.9207 132.066 64.0435 132.144ZM52.3501 156.118C52.3501 154.241 50.7466 152.637 48.8694 152.637C46.9531 152.637 45.3887 154.163 45.3496 156.079C45.3105 158.113 46.8749 159.677 48.9085 159.638C50.8639 159.56 52.3892 158.034 52.3501 156.118Z" fill="url(#paint3_linear_1325_111)"/>
<path d="M110.817 134.843C93.375 134.843 79.1394 120.607 79.1786 103.126C79.2177 85.6443 93.4532 71.487 110.935 71.5261C128.338 71.5652 142.574 85.879 142.534 103.361C142.495 120.607 128.182 134.843 110.817 134.843ZM110.739 131.323C126.226 131.362 138.976 118.691 139.015 103.361C139.054 87.7953 126.383 75.085 110.857 75.085C95.3695 75.085 82.7374 87.678 82.7374 103.165C82.6983 118.613 95.2913 131.284 110.739 131.323Z" fill="url(#paint4_linear_1325_111)"/>
<path d="M110.426 116.149C104.364 116.149 98.3026 116.149 92.2408 116.149C89.777 116.149 89.073 114.937 90.3245 112.786C96.3863 102.305 102.448 91.8235 108.51 81.3424C109.801 79.1523 111.13 79.1132 112.382 81.225C118.483 91.7453 124.584 102.305 130.645 112.825C131.858 114.976 131.154 116.11 128.651 116.11C122.55 116.149 116.488 116.149 110.426 116.149ZM126.344 112.512C120.986 103.243 115.784 94.2482 110.465 85.0186C105.108 94.3264 99.9061 103.321 94.5873 112.512C105.264 112.512 115.589 112.512 126.344 112.512Z" fill="url(#paint5_linear_1325_111)"/>
<path d="M112.186 98.511C112.186 99.9972 112.186 101.483 112.186 102.969C112.186 104.104 111.639 104.847 110.426 104.847C109.214 104.847 108.706 104.064 108.706 102.93C108.666 99.9972 108.666 97.1031 108.706 94.17C108.706 92.9967 109.292 91.9408 110.544 92.2537C111.208 92.4101 111.991 93.466 112.108 94.2091C112.382 95.617 112.186 97.064 112.186 98.511Z" fill="url(#paint6_linear_1325_111)"/>
<path d="M111.952 108.914C111.365 110.205 109.449 110.126 108.901 108.836C108.823 108.679 108.823 108.562 108.823 108.406C108.862 108.171 109.018 107.936 109.253 107.741C109.918 107.076 111.052 107.115 111.678 107.819C111.873 108.054 112.03 108.288 112.03 108.523C112.03 108.64 112.03 108.797 111.952 108.914Z" fill="url(#paint7_linear_1325_111)"/>
</g>
</g>
<defs>
<filter id="filter0_i_1325_111" x="0.09375" y="0.536621" width="227.717" height="227.717" filterUnits="userSpaceOnUse" color-interpolation-filters="sRGB">
<feFlood flood-opacity="0" result="BackgroundImageFix"/>
<feBlend mode="normal" in="SourceGraphic" in2="BackgroundImageFix" result="shape"/>
<feColorMatrix in="SourceAlpha" type="matrix" values="0 0 0 0 0 0 0 0 0 0 0 0 0 0 0 0 0 0 127 0" result="hardAlpha"/>
<feOffset dx="0.5" dy="0.5"/>
<feGaussianBlur stdDeviation="3.45"/>
<feComposite in2="hardAlpha" operator="arithmetic" k2="-1" k3="1"/>
<feColorMatrix type="matrix" values="0 0 0 0 0 0 0 0 0 0 0 0 0 0 0 0 0 0 0.15 0"/>
<feBlend mode="normal" in2="shape" result="effect1_innerShadow_1325_111"/>
</filter>
<filter id="filter1_d_1325_111" x="2.67007" y="3.10903" width="223.072" height="223.072" filterUnits="userSpaceOnUse" color-interpolation-filters="sRGB">
<feFlood flood-opacity="0" result="BackgroundImageFix"/>
<feColorMatrix in="SourceAlpha" type="matrix" values="0 0 0 0 0 0 0 0 0 0 0 0 0 0 0 0 0 0 127 0" result="hardAlpha"/>
<feOffset dx="0.5" dy="0.5"/>
<feGaussianBlur stdDeviation="3.95"/>
<feComposite in2="hardAlpha" operator="out"/>
<feColorMatrix type="matrix" values="0 0 0 0 0 0 0 0 0 0 0 0 0 0 0 0 0 0 0.15 0"/>
<feBlend mode="normal" in2="BackgroundImageFix" result="effect1_dropShadow_1325_111"/>
<feBlend mode="normal" in="SourceGraphic" in2="effect1_dropShadow_1325_111" result="shape"/>
</filter>
<linearGradient id="paint0_linear_1325_111" x1="113.702" y1="0.536621" x2="113.702" y2="227.753" gradientUnits="userSpaceOnUse">
<stop stop-color="#242053"/>
<stop offset="1" stop-color="#1F1C42"/>
</linearGradient>
<linearGradient id="paint1_linear_1325_111" x1="102.819" y1="10.509" x2="102.819" y2="240.089" gradientUnits="userSpaceOnUse">
<stop stop-color="#1B173F"/>
<stop offset="1" stop-color="#161435"/>
</linearGradient>
<linearGradient id="paint2_linear_1325_111" x1="113.706" y1="10.509" x2="113.706" y2="217.781" gradientUnits="userSpaceOnUse">
<stop stop-color="#383183"/>
<stop offset="0.985702" stop-color="#221E4F"/>
</linearGradient>
<linearGradient id="paint3_linear_1325_111" x1="41.7969" y1="167.788" x2="186.137" y2="167.788" gradientUnits="userSpaceOnUse">
<stop stop-color="#DF669F"/>
<stop offset="1" stop-color="#F6565B"/>
</linearGradient>
<linearGradient id="paint4_linear_1325_111" x1="41.7969" y1="167.788" x2="186.137" y2="167.788" gradientUnits="userSpaceOnUse">
<stop stop-color="#DF669F"/>
<stop offset="1" stop-color="#F6565B"/>
</linearGradient>
<linearGradient id="paint5_linear_1325_111" x1="41.7969" y1="167.788" x2="186.137" y2="167.788" gradientUnits="userSpaceOnUse">
<stop stop-color="#DF669F"/>
<stop offset="1" stop-color="#F6565B"/>
</linearGradient>
<linearGradient id="paint6_linear_1325_111" x1="41.7969" y1="167.788" x2="186.137" y2="167.788" gradientUnits="userSpaceOnUse">
<stop stop-color="#DF669F"/>
<stop offset="1" stop-color="#F6565B"/>
</linearGradient>
<linearGradient id="paint7_linear_1325_111" x1="41.7969" y1="167.788" x2="186.137" y2="167.788" gradientUnits="userSpaceOnUse">
<stop stop-color="#DF669F"/>
<stop offset="1" stop-color="#F6565B"/>
</linearGradient>
</defs>
</svg>
