<svg xmlns="http://www.w3.org/2000/svg" width="260" height="81" viewBox="0 0 260 81" fill="none">
  <g filter="url(#filter0_bi_1246_376)">
    <path
      d="M0.679688 40.4414C0.679688 18.35 18.5883 0.441406 40.6797 0.441406H219.709C241.8 0.441406 259.709 18.35 259.709 40.4414C259.709 62.5328 241.8 80.4414 219.709 80.4414H40.6797C18.5883 80.4414 0.679688 62.5328 0.679688 40.4414Z"
      fill="rgba(26, 13, 55, 0.30)"
    />
    <path
      d="M0.979688 40.4414C0.979688 18.5157 18.754 0.741406 40.6797 0.741406H219.709C241.635 0.741406 259.409 18.5157 259.409 40.4414C259.409 62.3671 241.635 80.1414 219.709 80.1414H40.6797C18.754 80.1414 0.979688 62.3671 0.979688 40.4414Z"
      stroke="url(#paint0_linear_1246_376)"
      stroke-opacity="0.5"
      stroke-width="0.6"
    />
  </g>
  <defs>
    <filter
      id="filter0_bi_1246_376"
      x="-39.3203"
      y="-39.5586"
      width="339.029"
      height="160"
      filterUnits="userSpaceOnUse"
      color-interpolation-filters="sRGB"
    >
      <feFlood flood-opacity="0" result="BackgroundImageFix"/>
      <feGaussianBlur in="BackgroundImageFix" stdDeviation="20"/>
      <feComposite in2="SourceAlpha" operator="in" result="effect1_backgroundBlur_1246_376"/>
      <feBlend mode="normal" in="SourceGraphic" in2="effect1_backgroundBlur_1246_376" result="shape"/>
      <feColorMatrix
        in="SourceAlpha"
        type="matrix"
        values="0 0 0 0 0 0 0 0 0 0 0 0 0 0 0 0 0 0 127 0"
        result="hardAlpha"
      />
      <feOffset dy="4"/>
      <feGaussianBlur stdDeviation="2"/>
      <feComposite in2="hardAlpha" operator="arithmetic" k2="-1" k3="1"/>
      <feColorMatrix type="matrix" values="0 0 0 0 0 0 0 0 0 0 0 0 0 0 0 0 0 0 0.3 0"/>
      <feBlend mode="normal" in2="shape" result="effect2_innerShadow_1246_376"/>
    </filter>
    <linearGradient
      id="paint0_linear_1246_376"
      x1="161.942"
      y1="80.4414"
      x2="161.942"
      y2="0.441406"
      gradientUnits="userSpaceOnUse"
    >
      <stop stop-color="#924CB9"/>
      <stop offset="1" stop-color="#371948"/>
    </linearGradient>
  </defs>
</svg>