<svg width="171" height="171" viewBox="0 0 171 171" fill="none" xmlns="http://www.w3.org/2000/svg">
<g id="Group 482210">
<g id="Ellipse 36">
<g filter="url(#filter0_i_1325_165)">
<circle cx="85.3057" cy="85.0093" r="84.6963" fill="#13112D" fill-opacity="0.5"/>
</g>
<circle cx="85.3057" cy="85.0093" r="84.4463" stroke="url(#paint0_linear_1325_165)" stroke-width="0.5"/>
</g>
<g id="Ellipse 37" filter="url(#filter1_d_1325_165)">
<circle cx="85.3086" cy="85.0093" r="77.2617" fill="url(#paint1_linear_1325_165)"/>
<circle cx="85.3086" cy="85.0093" r="77.0117" stroke="url(#paint2_linear_1325_165)" stroke-width="0.5"/>
</g>
<g id="Vector">
<path d="M75.8808 110.453C76.167 110.644 76.4295 110.859 76.7158 111.002C79.2685 112.266 80.1273 114.914 78.7198 117.419C76.4295 121.427 74.1392 125.412 71.7773 129.372C71.2525 130.231 70.5845 131.137 69.7495 131.662C68.1749 132.688 67.4353 134.239 66.5765 135.742C65.5506 137.507 65.145 137.626 63.3796 136.601C57.8209 133.404 52.2622 130.183 46.6796 126.962C44.9858 125.984 44.8903 125.579 45.8685 123.837C48.1826 119.638 48.2542 121.165 45.8446 116.99C44.0792 113.936 43.8645 110.954 45.5583 107.853C46.1548 106.731 46.6319 105.562 47.1806 104.417C48.9699 100.719 52.2383 99.4311 56.1032 100.91C56.294 100.982 56.461 101.03 56.7473 101.101C58.1549 98.6915 59.5625 96.3058 60.8985 93.8724C61.0893 93.5145 60.9939 92.942 60.8985 92.5125C58.0118 80.6555 63.8329 69.1325 73.8529 63.7647C87.3799 56.5121 104.939 63.3591 109.853 77.8643C114.72 92.2263 106.943 107.089 92.3183 111.169C87.1175 112.624 81.9405 112.29 76.8589 110.453C76.5965 110.358 76.3579 110.262 76.0955 110.167C76.0239 110.262 75.9523 110.358 75.8808 110.453ZM63.4512 89.3873C63.6659 89.0533 63.8568 88.7192 64.0953 88.4091C65.3836 86.6675 67.6023 86.0472 69.6063 86.8345C71.6342 87.6457 72.8986 89.602 72.5646 91.7491C72.4215 92.6557 71.9682 93.5623 71.5149 94.3734C70.2266 96.7114 68.8668 99.0255 67.6739 101.077C69.0099 102.151 70.1789 103.129 71.3956 104.059C77.2645 108.64 83.8491 110.215 91.1016 108.497C101.265 106.111 108.732 96.5921 108.446 85.7133C108.136 74.5004 98.9983 64.6235 87.8571 63.7885C77.1213 62.9774 67.8648 69.0132 64.2385 79.1287C63.0456 82.4448 62.8309 85.8325 63.4512 89.3873ZM55.1966 103.725C53.0256 102.628 51.117 103.153 50.0196 105.109C49.5425 105.944 49.3039 106.898 48.779 107.686C46.5842 111.026 47.0136 114.151 49.28 117.276C49.9003 118.135 50.1866 119.28 50.3775 120.33C50.4968 120.95 50.6876 121.284 51.2125 121.571C55.793 124.195 60.3736 126.843 64.9303 129.491C66.6719 130.493 67.1729 130.445 68.5328 128.942C68.7475 128.704 68.9622 128.465 69.1053 128.179C71.4672 124.099 73.8768 120.02 76.1671 115.893C76.4295 115.439 76.3818 114.604 76.1193 114.175C75.8808 113.793 75.1173 113.578 74.5925 113.602C72.493 113.722 71.9921 113.054 72.7555 111.121C72.9463 110.596 72.8509 109.737 72.4931 109.332C72.1829 108.974 71.3241 108.807 70.7992 108.95C70.0596 109.141 69.3916 109.499 68.6998 108.855C68.0318 108.211 68.3658 107.519 68.5089 106.779C68.6043 106.207 68.4373 105.372 68.0795 104.966C67.6978 104.56 66.9105 104.417 66.2902 104.393C65.8846 104.393 65.5268 104.966 65.0973 105.085C64.5725 105.205 63.809 105.324 63.4989 105.038C63.141 104.704 63.0933 103.964 63.0456 103.391C63.0218 103.129 63.308 102.819 63.4512 102.556C65.3836 99.1925 67.3399 95.8287 69.2723 92.441C70.0358 91.1288 69.7256 89.9837 68.485 89.4588C67.5069 89.0532 66.7196 89.435 66.0039 90.6755C62.4015 96.9023 58.8229 103.129 55.2205 109.356C54.5525 110.525 53.7652 110.883 52.954 110.405C52.1429 109.928 52.0713 109.093 52.7632 107.9C53.5743 106.564 54.3855 105.181 55.1966 103.725ZM48.6598 124.791C53.956 127.845 59.133 130.827 64.3578 133.857C64.5725 133.428 64.6918 133.165 64.8826 132.783C59.6579 129.777 54.4809 126.771 49.2562 123.765C49.0415 124.147 48.8983 124.41 48.6598 124.791Z" fill="url(#paint3_linear_1325_165)"/>
<path d="M119.706 102.795C125.408 102.795 130.108 107.471 130.132 113.173C130.156 118.946 125.456 123.67 119.706 123.67C113.981 123.67 109.328 119.018 109.305 113.292C109.233 107.495 113.909 102.795 119.706 102.795ZM112.144 113.244C112.167 117.443 115.555 120.807 119.754 120.783C123.905 120.759 127.293 117.3 127.269 113.149C127.221 109.046 123.834 105.682 119.706 105.682C115.507 105.658 112.12 109.046 112.144 113.244Z" fill="url(#paint4_linear_1325_165)"/>
<path d="M51.8089 69.8244C46.0832 69.8482 41.3833 65.1961 41.3595 59.4942C41.3356 53.697 45.9878 48.9971 51.7373 48.9732C57.5108 48.9494 62.2106 53.6492 62.1868 59.4227C62.1868 65.1722 57.5346 69.8244 51.8089 69.8244ZM59.3239 59.3988C59.3 55.1999 55.9123 51.8361 51.7135 51.8599C47.5385 51.8838 44.1746 55.3192 44.1985 59.4942C44.2462 63.5977 47.61 66.9377 51.7612 66.9615C55.96 66.9615 59.3478 63.5738 59.3239 59.3988Z" fill="url(#paint5_linear_1325_165)"/>
<path d="M119.659 69.9914C113.909 69.9914 109.281 65.387 109.281 59.6374C109.257 53.8639 113.957 49.1879 119.73 49.1879C125.432 49.1879 130.108 53.8878 130.108 59.5897C130.132 65.387 125.48 69.9914 119.659 69.9914ZM119.706 67.1285C123.905 67.1285 127.269 63.7408 127.245 59.5658C127.221 55.4147 123.81 52.0508 119.611 52.0747C115.507 52.0985 112.144 55.4862 112.144 59.6135C112.144 63.8124 115.484 67.1285 119.706 67.1285Z" fill="url(#paint6_linear_1325_165)"/>
<path d="M107.611 70.6355C107.42 70.4685 106.847 70.23 106.728 69.8244C106.561 69.395 106.609 68.6315 106.895 68.3214C107.515 67.6295 108.303 67.057 109.138 66.6037C109.472 66.4128 110.187 66.556 110.497 66.8184C110.831 67.0808 111.022 67.7011 110.998 68.1544C110.975 68.9178 108.66 70.6594 107.611 70.6355Z" fill="url(#paint7_linear_1325_165)"/>
<path d="M64.7633 69.4665C64.7395 70.4924 63.7852 71.1842 62.8786 70.7071C62.0436 70.2538 61.2563 69.6812 60.5883 69.0132C59.8249 68.2498 60.2782 67.057 61.304 66.7707C62.3538 66.4844 64.7872 68.3691 64.7633 69.4665Z" fill="url(#paint8_linear_1325_165)"/>
<path d="M107.062 102.843C108.207 102.819 110.474 104.632 110.45 105.443C110.45 105.896 110.187 106.517 109.853 106.731C109.472 106.97 108.756 106.994 108.35 106.779C107.635 106.397 106.943 105.873 106.442 105.228C106.132 104.847 106.06 104.107 106.203 103.63C106.299 103.248 106.895 103.01 107.062 102.843Z" fill="url(#paint9_linear_1325_165)"/>
<path d="M91.4595 96.9977C89.8372 96.9977 88.3342 96.9977 86.7119 96.9977C86.7119 97.3317 86.7119 97.6418 86.7119 97.952C86.6403 100.075 84.9226 101.745 82.8709 101.698C80.8192 101.674 79.0776 99.9321 79.1015 97.8565C79.1015 97.1647 78.9822 96.8545 78.3381 96.5205C76.0955 95.3993 75.7376 92.5841 77.5031 90.7948C77.8132 90.4847 78.1233 89.9121 78.0279 89.5304C76.9543 84.5204 75.8092 79.5342 74.6879 74.5481C74.664 74.405 74.5686 74.2618 74.4732 73.9994C73.829 73.9994 73.161 74.0471 72.493 73.9994C71.6103 73.9278 71.0616 73.4268 71.0855 72.5441C71.0855 71.6614 71.6342 71.1604 72.5408 71.1604C73.5666 71.1365 74.6163 71.1604 75.6422 71.1604C76.501 71.1604 76.9782 71.6375 77.1452 72.401C77.4076 73.4745 77.6939 74.5481 77.8609 75.6455C78.0041 76.4805 78.3858 76.6952 79.2208 76.6952C84.8988 76.6475 90.6006 76.6714 96.2786 76.6714C99.6186 76.6714 100.978 78.4607 100.215 81.6814C99.4993 84.6874 98.8313 87.7173 98.1872 90.7471C97.8055 92.4648 97.5431 92.7273 95.8015 92.7273C90.8631 92.7273 85.9485 92.7273 81.0101 92.7273C80.6522 92.7273 80.2705 92.6557 79.9603 92.775C79.6979 92.8943 79.4355 93.2044 79.34 93.4668C79.3162 93.5861 79.6979 93.9201 79.9365 94.0155C80.2228 94.111 80.5568 94.0633 80.8908 94.0633C85.6622 94.0633 90.4336 94.0394 95.2051 94.0633C96.9705 94.0633 98.4258 95.1607 98.8791 96.7353C99.3562 98.3814 98.7598 100.075 97.3283 101.006C96.0878 101.817 94.7756 101.888 93.4873 101.197C92.2468 100.529 91.5549 99.4788 91.4833 98.0474C91.4356 97.7611 91.4595 97.451 91.4595 96.9977ZM78.7198 79.6058C79.4832 82.8981 80.1751 86.1188 80.9623 89.2918C81.0101 89.5304 81.5111 89.8167 81.7973 89.8167C86.0439 89.8405 90.2905 89.8405 94.5609 89.8405C95.1812 89.8405 95.4436 89.6497 95.5868 89.0055C96.1593 86.3335 96.8035 83.6854 97.3999 81.0134C97.7101 79.6774 97.5431 79.5343 96.1355 79.5343C90.7438 79.5343 85.3282 79.5343 79.9365 79.5343C79.5786 79.5581 79.2208 79.582 78.7198 79.6058ZM84.2546 97.8565C83.6343 97.4271 83.2526 96.9977 82.9425 97.0215C82.5846 97.0693 82.2983 97.5464 81.9643 97.8327C82.2983 98.1667 82.5846 98.6677 82.9663 98.7631C83.2288 98.8108 83.6343 98.3098 84.2546 97.8565ZM95.2766 99.1925C95.6822 98.5723 96.1593 98.1428 96.0639 97.8804C95.9685 97.5225 95.4436 97.284 95.1096 96.9738C94.8472 97.3078 94.3701 97.6418 94.3701 97.9758C94.3701 98.286 94.8472 98.62 95.2766 99.1925Z" fill="url(#paint10_linear_1325_165)"/>
<path d="M54.0276 57.5857C54.0276 57.8958 53.9322 58.0628 53.6936 58.0628C53.4073 58.0628 53.3119 57.8958 53.288 57.6334C53.1926 56.4167 51.9282 55.8202 50.9739 56.4167C50.4252 56.7507 50.1628 57.4187 50.3298 58.0867C50.4729 58.6831 51.0216 59.1602 51.6658 59.1841C52.5723 59.208 53.3119 59.5658 53.7652 60.377C54.4809 61.6414 53.789 63.2637 52.4053 63.6454C52.1906 63.6931 52.1429 63.7885 52.1429 63.9794C52.1668 64.1702 52.1429 64.3611 52.1429 64.5281C52.119 64.7428 51.9998 64.8382 51.785 64.8621C51.5703 64.8621 51.451 64.7667 51.4272 64.552C51.4033 64.3611 51.4033 64.1702 51.4272 64.0032C51.451 63.7885 51.3795 63.6931 51.1648 63.6454C50.2582 63.4068 49.5902 62.548 49.5425 61.6175C49.5186 61.3074 49.6379 61.1404 49.8765 61.1165C50.115 61.0927 50.2582 61.2119 50.3059 61.5459C50.3536 61.9754 50.4968 62.3332 50.8069 62.6195C51.3079 63.0728 52.0475 63.1444 52.62 62.7865C53.1688 62.4525 53.455 61.7845 53.288 61.1404C53.121 60.4724 52.5485 59.9952 51.8328 59.9714C50.9023 59.9475 50.2343 59.542 49.8049 58.707C49.1608 57.4425 49.8288 55.9157 51.1886 55.534C51.4033 55.4624 51.451 55.367 51.451 55.1761C51.451 55.0091 51.451 54.8421 51.451 54.6751C51.4749 54.4365 51.618 54.3172 51.8328 54.3172C52.0475 54.3172 52.2145 54.4604 52.1668 54.6751C52.0713 55.2715 52.3099 55.5339 52.8586 55.7248C53.5505 56.0111 54.0038 56.8222 54.0276 57.5857Z" fill="url(#paint11_linear_1325_165)"/>
<path d="M121.949 57.5857C121.949 57.8958 121.853 58.0628 121.615 58.0628C121.329 58.0628 121.233 57.8958 121.209 57.6334C121.114 56.4167 119.849 55.8202 118.895 56.4167C118.346 56.7507 118.084 57.4187 118.251 58.0867C118.394 58.6831 118.943 59.1602 119.587 59.1841C120.494 59.208 121.233 59.5658 121.686 60.377C122.402 61.6414 121.71 63.2637 120.327 63.6454C120.112 63.6931 120.064 63.7885 120.064 63.9794C120.088 64.1702 120.064 64.3611 120.064 64.5281C120.04 64.7428 119.921 64.8382 119.706 64.8621C119.492 64.8621 119.372 64.7667 119.348 64.552C119.325 64.3611 119.325 64.1702 119.348 64.0032C119.372 63.7885 119.301 63.6931 119.086 63.6454C118.179 63.4068 117.511 62.548 117.464 61.6175C117.44 61.3074 117.559 61.1404 117.798 61.1165C118.036 61.0927 118.179 61.2119 118.227 61.5459C118.275 61.9754 118.418 62.3332 118.728 62.6195C119.229 63.0728 119.969 63.1444 120.541 62.7865C121.09 62.4525 121.376 61.7845 121.209 61.1404C121.042 60.4724 120.47 59.9952 119.754 59.9714C118.824 59.9475 118.156 59.542 117.726 58.707C117.082 57.4425 117.75 55.9157 119.11 55.534C119.325 55.4624 119.372 55.367 119.372 55.1761C119.372 55.0091 119.372 54.8421 119.372 54.6751C119.396 54.4365 119.539 54.3172 119.754 54.3172C119.969 54.3172 120.136 54.4604 120.088 54.6751C119.993 55.2715 120.231 55.5339 120.78 55.7248C121.472 56.0111 121.925 56.8222 121.949 57.5857Z" fill="url(#paint12_linear_1325_165)"/>
<path d="M121.949 111.217C121.949 111.527 121.853 111.694 121.615 111.694C121.329 111.694 121.233 111.527 121.209 111.264C121.114 110.048 119.849 109.451 118.895 110.048C118.346 110.382 118.084 111.05 118.251 111.718C118.394 112.314 118.943 112.791 119.587 112.815C120.494 112.839 121.233 113.197 121.686 114.008C122.402 115.272 121.71 116.895 120.327 117.276C120.112 117.324 120.064 117.419 120.064 117.61C120.088 117.801 120.064 117.992 120.064 118.159C120.04 118.374 119.921 118.469 119.706 118.493C119.492 118.493 119.372 118.398 119.348 118.183C119.325 117.992 119.325 117.801 119.348 117.634C119.372 117.419 119.301 117.324 119.086 117.276C118.179 117.038 117.511 116.179 117.464 115.248C117.44 114.938 117.559 114.771 117.798 114.747C118.036 114.724 118.179 114.843 118.227 115.177C118.275 115.606 118.418 115.964 118.728 116.25C119.229 116.704 119.969 116.775 120.541 116.417C121.09 116.083 121.376 115.415 121.209 114.771C121.042 114.103 120.47 113.626 119.754 113.602C118.824 113.578 118.156 113.173 117.726 112.338C117.082 111.073 117.75 109.547 119.11 109.165C119.325 109.093 119.372 108.998 119.372 108.807C119.372 108.64 119.372 108.473 119.372 108.306C119.396 108.067 119.539 107.948 119.754 107.948C119.969 107.948 120.136 108.091 120.088 108.306C119.993 108.902 120.231 109.165 120.78 109.356C121.472 109.618 121.925 110.453 121.949 111.217Z" fill="url(#paint13_linear_1325_165)"/>
</g>
</g>
<defs>
<filter id="filter0_i_1325_165" x="0.609375" y="0.312988" width="169.893" height="169.893" filterUnits="userSpaceOnUse" color-interpolation-filters="sRGB">
<feFlood flood-opacity="0" result="BackgroundImageFix"/>
<feBlend mode="normal" in="SourceGraphic" in2="BackgroundImageFix" result="shape"/>
<feColorMatrix in="SourceAlpha" type="matrix" values="0 0 0 0 0 0 0 0 0 0 0 0 0 0 0 0 0 0 127 0" result="hardAlpha"/>
<feOffset dx="0.5" dy="0.5"/>
<feGaussianBlur stdDeviation="3.45"/>
<feComposite in2="hardAlpha" operator="arithmetic" k2="-1" k3="1"/>
<feColorMatrix type="matrix" values="0 0 0 0 0 0 0 0 0 0 0 0 0 0 0 0 0 0 0.15 0"/>
<feBlend mode="normal" in2="shape" result="effect1_innerShadow_1325_165"/>
</filter>
<filter id="filter1_d_1325_165" x="0.646875" y="0.347558" width="170.323" height="170.323" filterUnits="userSpaceOnUse" color-interpolation-filters="sRGB">
<feFlood flood-opacity="0" result="BackgroundImageFix"/>
<feColorMatrix in="SourceAlpha" type="matrix" values="0 0 0 0 0 0 0 0 0 0 0 0 0 0 0 0 0 0 127 0" result="hardAlpha"/>
<feOffset dx="0.5" dy="0.5"/>
<feGaussianBlur stdDeviation="3.95"/>
<feComposite in2="hardAlpha" operator="out"/>
<feColorMatrix type="matrix" values="0 0 0 0 0 0 0 0 0 0 0 0 0 0 0 0 0 0 0.15 0"/>
<feBlend mode="normal" in2="BackgroundImageFix" result="effect1_dropShadow_1325_165"/>
<feBlend mode="normal" in="SourceGraphic" in2="effect1_dropShadow_1325_165" result="shape"/>
</filter>
<linearGradient id="paint0_linear_1325_165" x1="85.3057" y1="0.312988" x2="85.3057" y2="169.706" gradientUnits="userSpaceOnUse">
<stop stop-color="#242053"/>
<stop offset="1" stop-color="#1F1C42"/>
</linearGradient>
<linearGradient id="paint1_linear_1325_165" x1="77.1922" y1="7.74756" x2="77.1922" y2="178.902" gradientUnits="userSpaceOnUse">
<stop stop-color="#1B173F"/>
<stop offset="1" stop-color="#161435"/>
</linearGradient>
<linearGradient id="paint2_linear_1325_165" x1="85.3086" y1="7.74756" x2="85.3086" y2="162.271" gradientUnits="userSpaceOnUse">
<stop stop-color="#383183"/>
<stop offset="0.985702" stop-color="#221E4F"/>
</linearGradient>
<linearGradient id="paint3_linear_1325_165" x1="54.0115" y1="105.516" x2="130.132" y2="105.516" gradientUnits="userSpaceOnUse">
<stop stop-color="#E26394"/>
<stop offset="1" stop-color="#F6565B"/>
</linearGradient>
<linearGradient id="paint4_linear_1325_165" x1="54.0115" y1="105.516" x2="130.132" y2="105.516" gradientUnits="userSpaceOnUse">
<stop stop-color="#E26394"/>
<stop offset="1" stop-color="#F6565B"/>
</linearGradient>
<linearGradient id="paint5_linear_1325_165" x1="54.0115" y1="105.516" x2="130.132" y2="105.516" gradientUnits="userSpaceOnUse">
<stop stop-color="#E26394"/>
<stop offset="1" stop-color="#F6565B"/>
</linearGradient>
<linearGradient id="paint6_linear_1325_165" x1="54.0115" y1="105.516" x2="130.132" y2="105.516" gradientUnits="userSpaceOnUse">
<stop stop-color="#E26394"/>
<stop offset="1" stop-color="#F6565B"/>
</linearGradient>
<linearGradient id="paint7_linear_1325_165" x1="54.0115" y1="105.516" x2="130.132" y2="105.516" gradientUnits="userSpaceOnUse">
<stop stop-color="#E26394"/>
<stop offset="1" stop-color="#F6565B"/>
</linearGradient>
<linearGradient id="paint8_linear_1325_165" x1="54.0115" y1="105.516" x2="130.132" y2="105.516" gradientUnits="userSpaceOnUse">
<stop stop-color="#E26394"/>
<stop offset="1" stop-color="#F6565B"/>
</linearGradient>
<linearGradient id="paint9_linear_1325_165" x1="54.0115" y1="105.516" x2="130.132" y2="105.516" gradientUnits="userSpaceOnUse">
<stop stop-color="#E26394"/>
<stop offset="1" stop-color="#F6565B"/>
</linearGradient>
<linearGradient id="paint10_linear_1325_165" x1="54.0115" y1="105.516" x2="130.132" y2="105.516" gradientUnits="userSpaceOnUse">
<stop stop-color="#E26394"/>
<stop offset="1" stop-color="#F6565B"/>
</linearGradient>
<linearGradient id="paint11_linear_1325_165" x1="54.0115" y1="105.516" x2="130.132" y2="105.516" gradientUnits="userSpaceOnUse">
<stop stop-color="#E26394"/>
<stop offset="1" stop-color="#F6565B"/>
</linearGradient>
<linearGradient id="paint12_linear_1325_165" x1="54.0115" y1="105.516" x2="130.132" y2="105.516" gradientUnits="userSpaceOnUse">
<stop stop-color="#E26394"/>
<stop offset="1" stop-color="#F6565B"/>
</linearGradient>
<linearGradient id="paint13_linear_1325_165" x1="54.0115" y1="105.516" x2="130.132" y2="105.516" gradientUnits="userSpaceOnUse">
<stop stop-color="#E26394"/>
<stop offset="1" stop-color="#F6565B"/>
</linearGradient>
</defs>
</svg>
