<svg width="172" height="171" viewBox="0 0 172 171" fill="none" xmlns="http://www.w3.org/2000/svg">
<g id="Group 482210">
<g id="Ellipse 36">
<g filter="url(#filter0_i_1325_182)">
<circle cx="85.6807" cy="85.0093" r="84.6963" fill="#13112D" fill-opacity="0.5"/>
</g>
<circle cx="85.6807" cy="85.0093" r="84.4463" stroke="url(#paint0_linear_1325_182)" stroke-width="0.5"/>
</g>
<g id="Ellipse 37" filter="url(#filter1_d_1325_182)">
<circle cx="85.6836" cy="85.0093" r="77.2617" fill="url(#paint1_linear_1325_182)"/>
<circle cx="85.6836" cy="85.0093" r="77.0117" stroke="url(#paint2_linear_1325_182)" stroke-width="0.5"/>
</g>
<g id="Vector">
<path d="M116.136 127.109C115.348 128.872 114.652 130.379 113.979 131.91C113.191 133.696 112.031 134.554 110.501 134.508C108.924 134.438 107.834 133.464 107.161 131.585C105.955 128.107 104.726 124.605 103.474 121.033C92.62 126.391 81.5577 127.133 70.3331 122.842C61.5899 119.503 54.8412 113.658 50.1565 105.541C40.6945 89.0988 44.034 68.3193 58.1576 55.6568C72.1188 43.1334 93.4317 42.0898 108.437 53.0361C123.465 64.0057 130.051 84.9707 120.45 104.057C122.514 104.799 124.578 105.518 126.619 106.237C128.172 106.794 129.749 107.304 131.303 107.884C132.927 108.487 133.831 109.623 133.854 111.131C133.854 112.731 133.043 113.821 131.605 114.447C129.981 115.166 128.381 115.885 126.526 116.72C128.335 118.482 130.005 120.106 131.674 121.752C133.854 123.909 133.854 125.231 131.674 127.411C129.935 129.15 128.196 130.913 126.433 132.652C124.81 134.276 123.233 134.252 121.586 132.629C119.824 130.89 118.061 129.081 116.136 127.109ZM111.776 101.042C118.896 89.5162 117.528 71.8907 104.68 61.3155C91.7851 50.6938 73.0928 52.0621 61.6827 64.4231C50.7131 76.3203 50.9451 95.2677 62.1465 106.956C73.5567 118.877 90.556 118.784 100.412 112.337C99.531 109.832 98.673 107.327 97.7685 104.823C97.0496 102.805 97.3279 100.996 98.8121 99.4653C100.366 97.9115 102.221 97.6796 104.262 98.4217C106.79 99.303 109.295 100.161 111.776 101.042ZM101.433 115.467C83.3898 124.999 64.7903 116.952 56.5574 104.707C47.7678 91.6498 48.9042 74.2563 59.5027 62.475C70.1243 50.6938 87.4251 47.8181 101.502 55.5872C108.506 59.4601 113.562 65.1884 116.53 72.6329C120.496 82.6515 119.754 92.4847 114.791 102.063C115.232 102.248 115.603 102.387 115.951 102.527C117.574 103.13 117.574 103.13 118.316 101.576C123.047 91.4179 123.256 81.1441 118.965 70.8239C110.593 50.6706 85.5234 42.2057 66.6456 53.1057C48.51 63.5882 42.4338 85.8983 52.7772 104.127C62.0305 120.454 83.1347 127.202 100.18 119.271C102.708 118.111 102.708 118.111 101.433 115.467ZM130.213 124.558C129.981 124.303 129.726 124.025 129.448 123.747C127.662 121.938 125.853 120.129 124.044 118.32C122.514 116.766 122.792 115.189 124.74 114.261C126.479 113.45 128.265 112.684 130.005 111.873C130.329 111.734 130.561 111.432 130.839 111.2C130.561 110.991 130.283 110.69 129.958 110.574C121.099 107.443 112.217 104.335 103.358 101.205C102.43 100.88 101.618 100.81 100.899 101.553C100.227 102.248 100.32 103.06 100.621 103.918C101.873 107.443 103.103 110.968 104.332 114.493C106.21 119.874 108.089 125.254 109.99 130.635C110.083 130.936 110.385 131.145 110.57 131.4C110.779 131.145 111.057 130.936 111.196 130.658C111.962 129.011 112.681 127.341 113.423 125.695C114.513 123.236 116.043 122.912 117.922 124.814C119.916 126.808 121.864 128.826 123.836 130.82C126.062 128.71 128.103 126.669 130.213 124.558Z" fill="url(#paint3_linear_1325_182)"/>
<path d="M93.8028 77.619C93.826 78.8482 93.3853 79.4975 92.4809 79.5439C91.3213 79.5903 90.9502 78.8713 90.8806 77.8509C90.556 73.1199 85.5466 70.7544 81.7896 73.0967C79.6096 74.4418 78.6124 77.0392 79.2154 79.6599C79.772 82.0022 81.952 83.9039 84.4798 83.9966C88.0745 84.1358 90.9038 85.4809 92.7128 88.6813C95.4957 93.5979 92.8287 100.022 87.3787 101.483C86.567 101.692 86.3119 102.016 86.3583 102.805C86.4279 103.524 86.4047 104.266 86.3351 105.008C86.2656 105.82 85.7785 106.26 84.9668 106.284C84.1551 106.307 83.6217 105.866 83.5058 105.078C83.413 104.359 83.413 103.617 83.4594 102.874C83.5058 102.063 83.2971 101.692 82.4158 101.46C78.8211 100.509 76.2469 97.1926 76.0613 93.5051C75.9918 92.276 76.4092 91.6266 77.3369 91.5339C78.2877 91.4411 78.8675 91.9513 78.9835 93.1804C79.1458 94.827 79.7024 96.2417 80.9547 97.3781C82.9028 99.1406 85.8017 99.3957 88.0513 98.0042C90.1849 96.6823 91.2749 94.0153 90.6719 91.5802C90.0226 88.9596 87.7266 87.1043 84.9436 87.0115C81.3258 86.9188 78.6588 85.2954 77.0122 82.0949C74.5075 77.1784 77.105 71.1718 82.4158 69.618C83.2971 69.3629 83.4826 68.9686 83.4362 68.1801C83.3898 67.5307 83.413 66.8582 83.4594 66.2088C83.5058 65.2812 84.1088 64.771 84.9668 64.7942C85.7553 64.8174 86.4743 65.3508 86.3119 66.2088C85.9177 68.5048 86.8685 69.5484 89.0485 70.3601C91.9243 71.4037 93.71 74.6505 93.8028 77.619Z" fill="url(#paint4_linear_1325_182)"/>
<path d="M109.086 95.8706C107.671 95.8938 106.952 94.9198 107.277 93.8762C107.718 92.4383 108.205 91.0236 108.715 89.609C109.04 88.7045 109.735 88.3102 110.64 88.6117C111.567 88.9132 111.822 89.6553 111.521 90.583C111.08 91.9745 110.663 93.3892 110.106 94.7343C109.874 95.2445 109.318 95.6155 109.086 95.8706Z" fill="url(#paint5_linear_1325_182)"/>
<path d="M93.9419 106.075C94.4057 106.539 95.0783 106.933 95.1711 107.42C95.2638 107.907 94.916 108.811 94.4985 109.02C93.107 109.739 91.6228 110.296 90.1385 110.829C89.4196 111.084 88.6543 110.852 88.4224 110.087C88.2832 109.577 88.3992 108.626 88.7007 108.464C90.3241 107.582 92.0402 106.91 93.9419 106.075Z" fill="url(#paint6_linear_1325_182)"/>
</g>
</g>
<defs>
<filter id="filter0_i_1325_182" x="0.984375" y="0.312988" width="169.893" height="169.893" filterUnits="userSpaceOnUse" color-interpolation-filters="sRGB">
<feFlood flood-opacity="0" result="BackgroundImageFix"/>
<feBlend mode="normal" in="SourceGraphic" in2="BackgroundImageFix" result="shape"/>
<feColorMatrix in="SourceAlpha" type="matrix" values="0 0 0 0 0 0 0 0 0 0 0 0 0 0 0 0 0 0 127 0" result="hardAlpha"/>
<feOffset dx="0.5" dy="0.5"/>
<feGaussianBlur stdDeviation="3.45"/>
<feComposite in2="hardAlpha" operator="arithmetic" k2="-1" k3="1"/>
<feColorMatrix type="matrix" values="0 0 0 0 0 0 0 0 0 0 0 0 0 0 0 0 0 0 0.15 0"/>
<feBlend mode="normal" in2="shape" result="effect1_innerShadow_1325_182"/>
</filter>
<filter id="filter1_d_1325_182" x="1.02187" y="0.347558" width="170.323" height="170.323" filterUnits="userSpaceOnUse" color-interpolation-filters="sRGB">
<feFlood flood-opacity="0" result="BackgroundImageFix"/>
<feColorMatrix in="SourceAlpha" type="matrix" values="0 0 0 0 0 0 0 0 0 0 0 0 0 0 0 0 0 0 127 0" result="hardAlpha"/>
<feOffset dx="0.5" dy="0.5"/>
<feGaussianBlur stdDeviation="3.95"/>
<feComposite in2="hardAlpha" operator="out"/>
<feColorMatrix type="matrix" values="0 0 0 0 0 0 0 0 0 0 0 0 0 0 0 0 0 0 0.15 0"/>
<feBlend mode="normal" in2="BackgroundImageFix" result="effect1_dropShadow_1325_182"/>
<feBlend mode="normal" in="SourceGraphic" in2="effect1_dropShadow_1325_182" result="shape"/>
</filter>
<linearGradient id="paint0_linear_1325_182" x1="85.6807" y1="0.312988" x2="85.6807" y2="169.706" gradientUnits="userSpaceOnUse">
<stop stop-color="#242053"/>
<stop offset="1" stop-color="#1F1C42"/>
</linearGradient>
<linearGradient id="paint1_linear_1325_182" x1="77.5672" y1="7.74756" x2="77.5672" y2="178.902" gradientUnits="userSpaceOnUse">
<stop stop-color="#1B173F"/>
<stop offset="1" stop-color="#161435"/>
</linearGradient>
<linearGradient id="paint2_linear_1325_182" x1="85.6836" y1="7.74756" x2="85.6836" y2="162.271" gradientUnits="userSpaceOnUse">
<stop stop-color="#383183"/>
<stop offset="0.985702" stop-color="#221E4F"/>
</linearGradient>
<linearGradient id="paint3_linear_1325_182" x1="56.0567" y1="108.277" x2="133.854" y2="108.277" gradientUnits="userSpaceOnUse">
<stop stop-color="#CA66AD"/>
<stop offset="1" stop-color="#DF659D"/>
</linearGradient>
<linearGradient id="paint4_linear_1325_182" x1="56.0567" y1="108.277" x2="133.854" y2="108.277" gradientUnits="userSpaceOnUse">
<stop stop-color="#CA66AD"/>
<stop offset="1" stop-color="#DF659D"/>
</linearGradient>
<linearGradient id="paint5_linear_1325_182" x1="56.0567" y1="108.277" x2="133.854" y2="108.277" gradientUnits="userSpaceOnUse">
<stop stop-color="#CA66AD"/>
<stop offset="1" stop-color="#DF659D"/>
</linearGradient>
<linearGradient id="paint6_linear_1325_182" x1="56.0567" y1="108.277" x2="133.854" y2="108.277" gradientUnits="userSpaceOnUse">
<stop stop-color="#CA66AD"/>
<stop offset="1" stop-color="#DF659D"/>
</linearGradient>
</defs>
</svg>
