<svg width="171" height="171" viewBox="0 0 171 171" fill="none" xmlns="http://www.w3.org/2000/svg">
<g id="Group 482210">
<g id="Ellipse 36">
<g filter="url(#filter0_i_1325_199)">
<circle cx="85.0557" cy="85.0093" r="84.6963" fill="#13112D" fill-opacity="0.5"/>
</g>
<circle cx="85.0557" cy="85.0093" r="84.4463" stroke="url(#paint0_linear_1325_199)" stroke-width="0.5"/>
</g>
<g id="Ellipse 37" filter="url(#filter1_d_1325_199)">
<circle cx="85.0586" cy="85.0093" r="77.2617" fill="url(#paint1_linear_1325_199)"/>
<circle cx="85.0586" cy="85.0093" r="77.0117" stroke="url(#paint2_linear_1325_199)" stroke-width="0.5"/>
</g>
<g id="Vector">
<path d="M97.7826 121.619C97.7826 128.695 91.995 134.509 84.9184 134.509C77.7628 134.509 71.9752 128.721 71.9752 121.566C72.0015 114.489 77.7891 108.728 84.8921 108.754C91.995 108.728 97.7826 114.516 97.7826 121.619ZM76.0791 126.301C78.4205 123.697 81.3143 122.224 84.8394 122.197C88.3909 122.171 91.311 123.697 93.705 126.301C96.0726 122.434 94.994 116.883 91.3636 113.858C87.4965 110.622 81.6826 110.754 78.0259 114.174C74.6059 117.357 73.6852 122.881 76.0791 126.301Z" fill="url(#paint3_linear_1325_199)"/>
<path d="M97.7826 48.011C97.7563 55.0613 91.9424 60.8489 84.8394 60.8226C77.7628 60.7963 71.9752 55.0087 71.9752 47.932C71.9752 40.8028 77.7891 35.0415 84.971 35.0415C92.0476 35.0678 97.7826 40.8817 97.7826 48.011ZM76.0791 52.641C78.3942 49.984 81.3406 48.5371 84.8394 48.5371C88.3909 48.5108 91.3636 49.984 93.705 52.6673C96.0726 48.8791 95.0466 43.302 91.4952 40.3029C87.6017 36.9882 81.9457 37.0409 78.1574 40.4082C74.6586 43.4598 73.6852 49.0632 76.0791 52.641Z" fill="url(#paint4_linear_1325_199)"/>
<path d="M129.614 103.256C129.614 110.385 123.879 116.094 116.75 116.094C109.673 116.094 103.886 110.306 103.86 103.203C103.833 96.1005 109.7 90.2866 116.855 90.313C123.985 90.3393 129.641 96.0742 129.614 103.256ZM125.642 107.755C128.036 104.203 126.905 98.8102 123.748 95.8112C120.038 92.3123 114.251 92.1281 110.226 95.4692C106.648 98.4419 105.57 104.151 107.911 107.807C112.646 102.677 120.275 102.204 125.642 107.755Z" fill="url(#paint5_linear_1325_199)"/>
<path d="M40.1172 103.151C40.1172 96.0216 45.8259 90.313 52.9814 90.313C60.0581 90.313 65.8719 96.1268 65.8719 103.177C65.8719 110.306 60.0581 116.094 52.8762 116.094C45.7995 116.068 40.1172 110.306 40.1172 103.151ZM44.0896 107.834C49.0353 102.546 56.7433 102.309 61.8996 107.834C64.162 104.045 63.1623 98.5471 59.6634 95.5481C55.8489 92.286 50.2981 92.2334 46.5361 95.4166C42.8005 98.5208 41.7482 103.861 44.0896 107.834Z" fill="url(#paint6_linear_1325_199)"/>
<path d="M129.614 66.3997C129.614 73.5289 123.879 79.2376 116.75 79.2376C109.673 79.2376 103.86 73.4237 103.86 66.3734C103.86 59.2441 109.7 53.4302 116.855 53.4566C123.985 53.4829 129.641 59.2178 129.614 66.3997ZM125.695 71.0035C128.01 66.9258 126.905 61.5066 123.169 58.4812C119.328 55.377 113.777 55.5085 110.042 58.7969C106.622 61.8222 105.648 67.3205 107.911 70.9772C112.883 65.6368 120.486 65.5316 125.695 71.0035Z" fill="url(#paint7_linear_1325_199)"/>
<path d="M40.1172 66.2682C40.1172 59.1389 45.8785 53.4566 53.0077 53.4566C60.0844 53.4829 65.8719 59.2968 65.8719 66.3471C65.8719 73.45 60.0054 79.2639 52.8499 79.2113C45.7732 79.2113 40.1172 73.45 40.1172 66.2682ZM61.8732 71.0298C64.3198 66.6891 62.9782 61.0856 58.8742 58.1129C54.6914 55.0876 48.9301 55.7453 45.4312 59.6124C42.7216 62.6115 41.8535 67.7677 44.1948 70.9508C49.0616 65.6894 56.6381 65.4789 61.8732 71.0298Z" fill="url(#paint8_linear_1325_199)"/>
<path d="M84.9447 71.8716C92.0213 71.8979 97.7826 77.7118 97.7826 84.7884C97.7826 91.9177 91.9161 97.7053 84.7605 97.679C77.7102 97.6527 71.9752 91.7862 71.9752 84.6832C72.0015 77.6329 77.8417 71.8453 84.9447 71.8716ZM84.8131 74.7128C79.1571 74.7391 74.7638 79.185 74.7901 84.841C74.8164 90.4971 79.2623 94.8904 84.9184 94.8641C90.5744 94.8378 94.9677 90.3919 94.9414 84.7358C94.9151 79.0535 90.4692 74.6602 84.8131 74.7128Z" fill="url(#paint9_linear_1325_199)"/>
<path d="M71.0545 78.4747C69.3182 77.3698 67.6608 76.3964 66.135 75.2652C65.8983 75.1074 65.9772 74.1077 66.2666 73.7657C66.5296 73.4237 67.3715 73.187 67.7134 73.3711C69.213 74.0814 70.6335 74.9232 72.0015 75.8703C72.3172 76.0807 72.4751 76.9226 72.3435 77.3698C72.212 77.7644 71.6069 78.0275 71.0545 78.4747Z" fill="url(#paint10_linear_1325_199)"/>
<path d="M98.6244 78.5273C98.072 78.0275 97.4932 77.7644 97.388 77.3698C97.2828 76.9226 97.4143 76.1071 97.73 75.8703C99.098 74.9232 100.545 74.1077 102.044 73.3711C102.413 73.187 103.202 73.45 103.518 73.792C103.781 74.0814 103.912 75.0548 103.702 75.1863C102.097 76.3175 100.387 77.3698 98.6244 78.5273Z" fill="url(#paint11_linear_1325_199)"/>
<path d="M71.1334 91.0232C71.6858 91.5231 72.2646 91.8388 72.3961 92.2597C72.5014 92.7069 72.2909 93.4961 71.9489 93.7329C70.6072 94.6536 69.213 95.4692 67.7661 96.1531C67.3978 96.3373 66.5822 96.1268 66.2929 95.8112C66.0035 95.4955 65.8983 94.4695 66.1087 94.3116C67.6871 93.1804 69.3445 92.1808 71.1334 91.0232Z" fill="url(#paint12_linear_1325_199)"/>
<path d="M103.86 94.7589C103.833 95.9953 102.86 96.6267 101.913 96.1531C100.519 95.4429 99.1243 94.6536 97.8615 93.7592C97.4932 93.4961 97.2301 92.5491 97.4406 92.2071C97.7037 91.7862 98.6244 91.2863 98.9927 91.4442C100.571 92.1808 102.044 93.1278 103.518 94.0223C103.728 94.2064 103.781 94.6273 103.86 94.7589Z" fill="url(#paint13_linear_1325_199)"/>
<path d="M86.2074 66.768C86.2074 67.4783 86.2074 68.1623 86.2074 68.8726C86.2074 69.767 85.7339 70.2932 84.8394 70.2932C84.0239 70.2932 83.5504 69.7933 83.5504 68.9515C83.5241 67.4257 83.5241 65.8999 83.5504 64.3477C83.5767 63.5059 84.1028 63.0587 84.8921 63.0587C85.7076 63.085 86.1811 63.5585 86.1811 64.4004C86.2074 65.1896 86.2074 65.9788 86.2074 66.768Z" fill="url(#paint14_linear_1325_199)"/>
<path d="M86.2074 102.993C86.2074 103.73 86.3916 104.545 86.1548 105.203C85.9707 105.729 85.313 106.334 84.8131 106.413C84.4448 106.466 83.6556 105.703 83.603 105.255C83.4452 103.703 83.5241 102.125 83.5504 100.546C83.5767 99.7046 84.1292 99.1522 84.9184 99.3363C85.4182 99.4416 86.0233 100.047 86.1548 100.546C86.339 101.309 86.2074 102.177 86.2074 102.993Z" fill="url(#paint15_linear_1325_199)"/>
<path d="M89.1012 117.094C89.0749 119.409 87.0756 121.382 84.8131 121.329C82.4981 121.277 80.6303 119.303 80.6566 116.962C80.6829 114.7 82.577 112.858 84.8921 112.858C87.2334 112.858 89.1012 114.752 89.1012 117.094Z" fill="url(#paint16_linear_1325_199)"/>
<path d="M89.1012 43.3283C89.1275 45.6696 87.1808 47.6163 84.8658 47.6163C82.6033 47.6163 80.6829 45.6959 80.6566 43.4335C80.6303 41.1185 82.4455 39.2507 84.7605 39.2243C87.1808 39.1717 89.0749 40.9606 89.1012 43.3283Z" fill="url(#paint17_linear_1325_199)"/>
<path d="M120.933 98.5734C120.959 100.967 119.091 102.888 116.75 102.861C114.488 102.861 112.567 100.941 112.515 98.6786C112.462 96.3373 114.356 94.4432 116.75 94.4432C119.17 94.4695 120.933 96.2058 120.933 98.5734Z" fill="url(#paint18_linear_1325_199)"/>
<path d="M48.7986 98.6786C48.7986 96.2584 50.4822 94.4958 52.8762 94.4695C55.2964 94.4432 57.1906 96.2584 57.2169 98.5997C57.2432 100.888 55.2438 102.888 52.9551 102.861C50.6401 102.861 48.8249 101.02 48.7986 98.6786Z" fill="url(#paint19_linear_1325_199)"/>
<path d="M120.959 61.7959C120.959 64.111 119.118 66.0051 116.855 66.0577C114.593 66.1103 112.567 64.0584 112.567 61.7959C112.567 59.4546 114.514 57.5868 116.882 57.6131C119.197 57.6131 120.959 59.4283 120.959 61.7959Z" fill="url(#paint20_linear_1325_199)"/>
<path d="M48.7986 61.7959C48.7986 59.4283 50.5612 57.6131 52.9025 57.6131C55.2701 57.5868 57.2169 59.5072 57.1906 61.8222C57.1906 64.0584 55.2438 66.0314 53.0077 66.084C50.719 66.1103 48.7986 64.1636 48.7986 61.7959Z" fill="url(#paint21_linear_1325_199)"/>
<path d="M85.997 91.6283C85.9707 91.944 86.0496 92.286 85.9444 92.4175C85.6287 92.7595 85.2341 93.2857 84.8658 93.2594C84.4975 93.2594 83.8924 92.7069 83.8924 92.3649C83.8398 91.6546 83.5241 91.4968 82.9716 91.3126C81.551 90.8128 80.5777 89.8657 80.1568 88.3925C79.9726 87.7348 80.1568 87.235 80.7881 86.9982C81.4195 86.7615 81.893 87.0246 82.1824 87.6296C83.0769 89.4448 84.8658 90.0236 86.681 89.1291C87.8648 88.5504 87.97 87.235 86.8125 86.5773C86.2074 86.2353 85.4708 86.0775 84.7868 85.867C84.1818 85.6829 83.5504 85.5777 82.9716 85.3672C81.3669 84.7621 80.3935 83.4468 80.4198 81.8946C80.4198 80.4214 81.4721 78.9482 82.9453 78.3695C83.2084 78.2642 83.4978 78.159 83.7608 78.0538C83.8924 76.791 84.2344 76.2649 84.9184 76.2912C85.6024 76.2912 85.9443 76.8173 86.0233 78.0275C86.1811 78.0801 86.3653 78.1853 86.5494 78.2379C87.7595 78.6062 88.6277 79.4218 89.2064 80.5267C89.6011 81.2896 89.4695 81.9209 88.8381 82.2103C88.1015 82.5523 87.6543 82.2103 87.286 81.579C86.4705 80.1584 84.971 79.6585 83.603 80.474C83.1295 80.7634 82.7086 81.3948 82.6033 81.9209C82.4718 82.5786 83.0243 83.0785 83.6819 83.2889C84.3396 83.4994 85.0236 83.6046 85.6813 83.8151C86.5494 84.1308 87.4439 84.4201 88.2068 84.8937C89.3906 85.6566 89.8641 86.8667 89.7063 88.261C89.5221 89.7868 88.5224 90.7076 87.1545 91.2337C86.7862 91.3915 86.4179 91.4968 85.997 91.6283Z" fill="url(#paint22_linear_1325_199)"/>
</g>
</g>
<defs>
<filter id="filter0_i_1325_199" x="0.359375" y="0.312988" width="169.893" height="169.893" filterUnits="userSpaceOnUse" color-interpolation-filters="sRGB">
<feFlood flood-opacity="0" result="BackgroundImageFix"/>
<feBlend mode="normal" in="SourceGraphic" in2="BackgroundImageFix" result="shape"/>
<feColorMatrix in="SourceAlpha" type="matrix" values="0 0 0 0 0 0 0 0 0 0 0 0 0 0 0 0 0 0 127 0" result="hardAlpha"/>
<feOffset dx="0.5" dy="0.5"/>
<feGaussianBlur stdDeviation="3.45"/>
<feComposite in2="hardAlpha" operator="arithmetic" k2="-1" k3="1"/>
<feColorMatrix type="matrix" values="0 0 0 0 0 0 0 0 0 0 0 0 0 0 0 0 0 0 0.15 0"/>
<feBlend mode="normal" in2="shape" result="effect1_innerShadow_1325_199"/>
</filter>
<filter id="filter1_d_1325_199" x="0.396875" y="0.347558" width="170.323" height="170.323" filterUnits="userSpaceOnUse" color-interpolation-filters="sRGB">
<feFlood flood-opacity="0" result="BackgroundImageFix"/>
<feColorMatrix in="SourceAlpha" type="matrix" values="0 0 0 0 0 0 0 0 0 0 0 0 0 0 0 0 0 0 127 0" result="hardAlpha"/>
<feOffset dx="0.5" dy="0.5"/>
<feGaussianBlur stdDeviation="3.95"/>
<feComposite in2="hardAlpha" operator="out"/>
<feColorMatrix type="matrix" values="0 0 0 0 0 0 0 0 0 0 0 0 0 0 0 0 0 0 0.15 0"/>
<feBlend mode="normal" in2="BackgroundImageFix" result="effect1_dropShadow_1325_199"/>
<feBlend mode="normal" in="SourceGraphic" in2="effect1_dropShadow_1325_199" result="shape"/>
</filter>
<linearGradient id="paint0_linear_1325_199" x1="85.0557" y1="0.312988" x2="85.0557" y2="169.706" gradientUnits="userSpaceOnUse">
<stop stop-color="#242053"/>
<stop offset="1" stop-color="#1F1C42"/>
</linearGradient>
<linearGradient id="paint1_linear_1325_199" x1="76.9422" y1="7.74756" x2="76.9422" y2="178.902" gradientUnits="userSpaceOnUse">
<stop stop-color="#1B173F"/>
<stop offset="1" stop-color="#161435"/>
</linearGradient>
<linearGradient id="paint2_linear_1325_199" x1="85.0586" y1="7.74756" x2="85.0586" y2="162.271" gradientUnits="userSpaceOnUse">
<stop stop-color="#383183"/>
<stop offset="0.985702" stop-color="#221E4F"/>
</linearGradient>
<linearGradient id="paint3_linear_1325_199" x1="25.3597" y1="75.003" x2="129.614" y2="75.003" gradientUnits="userSpaceOnUse">
<stop stop-color="#6469F1"/>
<stop offset="1" stop-color="#C866AE"/>
</linearGradient>
<linearGradient id="paint4_linear_1325_199" x1="25.3597" y1="75.003" x2="129.614" y2="75.003" gradientUnits="userSpaceOnUse">
<stop stop-color="#6469F1"/>
<stop offset="1" stop-color="#C866AE"/>
</linearGradient>
<linearGradient id="paint5_linear_1325_199" x1="25.3597" y1="75.003" x2="129.614" y2="75.003" gradientUnits="userSpaceOnUse">
<stop stop-color="#6469F1"/>
<stop offset="1" stop-color="#C866AE"/>
</linearGradient>
<linearGradient id="paint6_linear_1325_199" x1="25.3597" y1="75.003" x2="129.614" y2="75.003" gradientUnits="userSpaceOnUse">
<stop stop-color="#6469F1"/>
<stop offset="1" stop-color="#C866AE"/>
</linearGradient>
<linearGradient id="paint7_linear_1325_199" x1="25.3597" y1="75.003" x2="129.614" y2="75.003" gradientUnits="userSpaceOnUse">
<stop stop-color="#6469F1"/>
<stop offset="1" stop-color="#C866AE"/>
</linearGradient>
<linearGradient id="paint8_linear_1325_199" x1="25.3597" y1="75.003" x2="129.614" y2="75.003" gradientUnits="userSpaceOnUse">
<stop stop-color="#6469F1"/>
<stop offset="1" stop-color="#C866AE"/>
</linearGradient>
<linearGradient id="paint9_linear_1325_199" x1="25.3597" y1="75.003" x2="129.614" y2="75.003" gradientUnits="userSpaceOnUse">
<stop stop-color="#6469F1"/>
<stop offset="1" stop-color="#C866AE"/>
</linearGradient>
<linearGradient id="paint10_linear_1325_199" x1="25.3597" y1="75.003" x2="129.614" y2="75.003" gradientUnits="userSpaceOnUse">
<stop stop-color="#6469F1"/>
<stop offset="1" stop-color="#C866AE"/>
</linearGradient>
<linearGradient id="paint11_linear_1325_199" x1="25.3597" y1="75.003" x2="129.614" y2="75.003" gradientUnits="userSpaceOnUse">
<stop stop-color="#6469F1"/>
<stop offset="1" stop-color="#C866AE"/>
</linearGradient>
<linearGradient id="paint12_linear_1325_199" x1="25.3597" y1="75.003" x2="129.614" y2="75.003" gradientUnits="userSpaceOnUse">
<stop stop-color="#6469F1"/>
<stop offset="1" stop-color="#C866AE"/>
</linearGradient>
<linearGradient id="paint13_linear_1325_199" x1="25.3597" y1="75.003" x2="129.614" y2="75.003" gradientUnits="userSpaceOnUse">
<stop stop-color="#6469F1"/>
<stop offset="1" stop-color="#C866AE"/>
</linearGradient>
<linearGradient id="paint14_linear_1325_199" x1="25.3597" y1="75.003" x2="129.614" y2="75.003" gradientUnits="userSpaceOnUse">
<stop stop-color="#6469F1"/>
<stop offset="1" stop-color="#C866AE"/>
</linearGradient>
<linearGradient id="paint15_linear_1325_199" x1="25.3597" y1="75.003" x2="129.614" y2="75.003" gradientUnits="userSpaceOnUse">
<stop stop-color="#6469F1"/>
<stop offset="1" stop-color="#C866AE"/>
</linearGradient>
<linearGradient id="paint16_linear_1325_199" x1="25.3597" y1="75.003" x2="129.614" y2="75.003" gradientUnits="userSpaceOnUse">
<stop stop-color="#6469F1"/>
<stop offset="1" stop-color="#C866AE"/>
</linearGradient>
<linearGradient id="paint17_linear_1325_199" x1="25.3597" y1="75.003" x2="129.614" y2="75.003" gradientUnits="userSpaceOnUse">
<stop stop-color="#6469F1"/>
<stop offset="1" stop-color="#C866AE"/>
</linearGradient>
<linearGradient id="paint18_linear_1325_199" x1="25.3597" y1="75.003" x2="129.614" y2="75.003" gradientUnits="userSpaceOnUse">
<stop stop-color="#6469F1"/>
<stop offset="1" stop-color="#C866AE"/>
</linearGradient>
<linearGradient id="paint19_linear_1325_199" x1="25.3597" y1="75.003" x2="129.614" y2="75.003" gradientUnits="userSpaceOnUse">
<stop stop-color="#6469F1"/>
<stop offset="1" stop-color="#C866AE"/>
</linearGradient>
<linearGradient id="paint20_linear_1325_199" x1="25.3597" y1="75.003" x2="129.614" y2="75.003" gradientUnits="userSpaceOnUse">
<stop stop-color="#6469F1"/>
<stop offset="1" stop-color="#C866AE"/>
</linearGradient>
<linearGradient id="paint21_linear_1325_199" x1="25.3597" y1="75.003" x2="129.614" y2="75.003" gradientUnits="userSpaceOnUse">
<stop stop-color="#6469F1"/>
<stop offset="1" stop-color="#C866AE"/>
</linearGradient>
<linearGradient id="paint22_linear_1325_199" x1="25.3597" y1="75.003" x2="129.614" y2="75.003" gradientUnits="userSpaceOnUse">
<stop stop-color="#6469F1"/>
<stop offset="1" stop-color="#C866AE"/>
</linearGradient>
</defs>
</svg>
