<svg width="172" height="171" viewBox="0 0 172 171" fill="none" xmlns="http://www.w3.org/2000/svg">
<g id="Group 482210">
<g id="Ellipse 36">
<g filter="url(#filter0_i_1325_148)">
<circle cx="85.4307" cy="85.0093" r="84.6963" fill="#13112D" fill-opacity="0.5"/>
</g>
<circle cx="85.4307" cy="85.0093" r="84.4463" stroke="url(#paint0_linear_1325_148)" stroke-width="0.5"/>
</g>
<g id="Ellipse 37" filter="url(#filter1_d_1325_148)">
<circle cx="85.4336" cy="85.0093" r="77.2617" fill="url(#paint1_linear_1325_148)"/>
<circle cx="85.4336" cy="85.0093" r="77.0117" stroke="url(#paint2_linear_1325_148)" stroke-width="0.5"/>
</g>
<g id="Vector">
<path d="M135.46 119.62C135.46 121.69 135.434 123.761 135.46 125.832C135.486 126.815 135.072 127.436 134.243 127.902C130.723 129.895 127.229 131.914 123.735 133.985C122.725 134.58 121.871 134.554 120.862 133.959C117.419 131.914 113.951 129.895 110.457 127.928C109.551 127.41 109.137 126.763 109.137 125.754C109.137 121.613 109.137 117.471 109.137 113.33C109.137 112.45 109.447 111.777 110.25 111.311C113.925 109.215 117.549 107.067 121.25 105.022C121.794 104.711 122.829 104.737 123.372 105.048C126.996 107.041 130.542 109.163 134.14 111.208C135.072 111.725 135.46 112.424 135.434 113.511C135.408 115.556 135.46 117.575 135.46 119.62ZM132.354 115.582C129.558 117.213 126.97 118.662 124.434 120.163C124.175 120.319 123.89 120.655 123.89 120.914C123.864 123.942 123.864 126.97 123.864 130.258C126.737 128.601 129.377 127.1 131.991 125.547C132.199 125.418 132.354 125.055 132.354 124.822C132.354 121.846 132.354 118.843 132.354 115.582ZM112.269 115.582C112.269 118.869 112.269 121.897 112.295 124.952C112.295 125.159 112.476 125.469 112.657 125.573C115.271 127.1 117.885 128.627 120.707 130.258C120.707 126.97 120.707 123.942 120.681 120.914C120.681 120.707 120.525 120.396 120.344 120.293C117.756 118.74 115.116 117.239 112.269 115.582ZM113.848 112.89C116.643 114.521 119.283 116.048 121.923 117.549C122.104 117.653 122.467 117.679 122.622 117.575C125.288 116.048 127.954 114.521 130.775 112.864C128.006 111.285 125.443 109.784 122.855 108.335C122.596 108.179 122.156 108.102 121.923 108.231C119.283 109.732 116.643 111.285 113.848 112.89Z" fill="url(#paint3_linear_1325_148)"/>
<path d="M98.939 119.646C98.939 121.664 98.9131 123.709 98.939 125.728C98.9649 126.738 98.5508 127.41 97.6449 127.928C94.1248 129.921 90.6306 131.966 87.1364 134.011C86.1788 134.58 85.3505 134.58 84.367 134.011C80.8469 131.94 77.275 129.947 73.7808 127.799C73.2114 127.436 72.642 126.53 72.6161 125.858C72.5126 121.664 72.5126 117.497 72.6161 113.304C72.642 112.631 73.1855 111.725 73.755 111.363C77.3527 109.163 81.0281 107.067 84.7034 105.022C85.2211 104.737 86.2046 104.711 86.7223 105.022C90.4235 107.067 94.0472 109.215 97.7225 111.311C98.5767 111.803 98.9131 112.476 98.9131 113.434C98.9131 115.504 98.939 117.575 98.939 119.646ZM84.2117 130.258C84.2117 126.996 84.2375 123.994 84.1858 120.992C84.1858 120.681 83.7975 120.267 83.4869 120.06C81.7269 118.999 79.9151 117.963 78.1292 116.954C77.3786 116.514 76.6021 116.1 75.6962 115.608C75.6962 118.766 75.6703 121.69 75.7221 124.615C75.7221 124.952 75.9809 125.443 76.2656 125.625C78.8021 127.178 81.3904 128.653 84.2117 130.258ZM95.8072 115.582C93.9695 116.643 92.4165 117.782 90.7083 118.455C87.9388 119.568 86.7999 121.328 87.2658 124.33C87.5505 126.194 87.3176 128.135 87.3176 130.258C90.1647 128.627 92.753 127.126 95.3413 125.599C95.5484 125.469 95.8072 125.159 95.8072 124.926C95.8331 121.897 95.8072 118.869 95.8072 115.582ZM77.3009 112.89C80.0963 114.521 82.6587 115.996 85.247 117.471C85.5058 117.601 85.9458 117.653 86.1788 117.523C88.8188 116.048 91.433 114.495 94.2283 112.89C91.433 111.285 88.8447 109.758 86.2305 108.283C85.9976 108.154 85.5317 108.154 85.2987 108.283C82.6846 109.758 80.0704 111.285 77.3009 112.89Z" fill="url(#paint4_linear_1325_148)"/>
<path d="M36.0695 119.464C36.0695 117.446 35.9918 115.401 36.1212 113.382C36.173 112.683 36.613 111.751 37.1824 111.415C40.806 109.189 44.5073 107.067 48.2603 104.996C48.778 104.711 49.7615 104.737 50.2792 105.048C53.9287 107.067 57.5264 109.189 61.15 111.26C62.0041 111.751 62.3665 112.398 62.3665 113.356C62.3665 117.497 62.3665 121.639 62.3665 125.78C62.3665 126.789 61.9524 127.436 61.0465 127.954C57.5523 129.921 54.084 131.94 50.6415 133.985C49.6321 134.58 48.778 134.58 47.7685 133.985C44.3002 131.914 40.7801 129.895 37.2601 127.902C36.4059 127.41 36.0177 126.815 36.0436 125.832C36.0953 123.709 36.0695 121.587 36.0695 119.464ZM47.6909 130.283C47.6909 127.048 47.6909 124.123 47.665 121.199C47.665 120.888 47.5356 120.448 47.3026 120.319C44.6626 118.74 41.9966 117.213 39.1495 115.582C39.1495 118.817 39.1495 121.82 39.1754 124.848C39.1754 125.107 39.3307 125.469 39.5378 125.573C42.1778 127.1 44.8179 128.627 47.6909 130.283ZM50.7968 130.258C53.6181 128.627 56.2322 127.152 58.7946 125.599C59.0794 125.443 59.2347 124.9 59.2347 124.512C59.2864 122.881 59.2605 121.25 59.2605 119.62C59.2605 118.351 59.2605 117.083 59.2605 115.582C56.3875 117.239 53.7992 118.714 51.211 120.241C50.978 120.37 50.8227 120.784 50.7968 121.069C50.7968 124.046 50.7968 127.022 50.7968 130.258ZM57.7076 112.89C54.8863 111.26 52.298 109.758 49.6839 108.283C49.4768 108.154 49.0627 108.128 48.8556 108.257C46.1897 109.758 43.5496 111.285 40.7801 112.89C43.5755 114.495 46.1897 116.048 48.8556 117.549C49.0886 117.679 49.5286 117.601 49.7874 117.471C52.3498 115.996 54.9122 114.495 57.7076 112.89Z" fill="url(#paint5_linear_1325_148)"/>
<path d="M84.2117 88.6638C84.2117 86.9296 84.2117 85.3249 84.2117 83.746C84.2117 80.5366 84.4705 79.8377 85.7387 79.8118C87.0329 79.786 87.3176 80.4848 87.3176 83.7978C87.3176 85.3508 87.3176 86.9038 87.3176 88.6379C87.887 88.6379 88.3788 88.6379 88.8706 88.6379C99.6896 88.6379 110.509 88.6379 121.354 88.6379C123.528 88.6379 123.838 88.9485 123.838 91.0709C123.838 93.711 123.838 96.3251 123.838 98.9652C123.838 100.389 123.347 101.088 122.337 101.088C121.302 101.113 120.732 100.363 120.732 98.8875C120.732 96.5581 120.732 94.2545 120.732 91.8215C109.603 91.8215 98.5508 91.8215 87.3176 91.8215C87.3176 93.8663 87.3176 95.9369 87.3176 97.9816C87.3176 98.4216 87.3176 98.8358 87.3176 99.2758C87.3176 100.337 86.8517 101.088 85.7387 101.062C84.6258 101.036 84.2117 100.259 84.2117 99.224C84.2117 97.2052 84.2117 95.1604 84.2117 93.1415C84.2117 92.7274 84.2117 92.3133 84.2117 91.8215C73.0561 91.8215 62.03 91.8215 50.7968 91.8215C50.7968 93.2451 50.7968 94.6945 50.7968 96.1181C50.7968 97.2052 50.8227 98.2663 50.7709 99.3534C50.7192 100.389 50.2274 101.139 49.1144 101.062C48.0791 101.01 47.665 100.285 47.665 99.2758C47.665 96.4287 47.665 93.5815 47.665 90.7344C47.665 89.052 48.105 88.612 49.8392 88.612C60.71 88.612 71.5808 88.612 82.4516 88.612C82.9693 88.6638 83.4869 88.6638 84.2117 88.6638Z" fill="url(#paint6_linear_1325_148)"/>
<path d="M104.737 54.1619C104.737 64.6186 96.2213 73.1082 85.7129 73.134C75.3597 73.1599 66.7666 64.5668 66.7925 54.1878C66.7925 43.5758 75.2562 35.1121 85.8164 35.1121C96.299 35.1638 104.737 43.6534 104.737 54.1619ZM69.8984 54.0583C69.8984 62.9103 77.0162 70.0799 85.7905 70.0281C94.5648 70.0022 101.631 62.9103 101.631 54.136C101.631 45.3099 94.5131 38.218 85.687 38.2439C77.0162 38.2439 69.8984 45.3876 69.8984 54.0583Z" fill="url(#paint7_linear_1325_148)"/>
<path d="M87.3435 63.8939C87.3176 64.3597 87.4211 64.8256 87.24 65.0327C86.7999 65.5245 86.2046 66.2751 85.7129 66.2492C85.1952 66.2233 84.3152 65.4468 84.2893 64.9551C84.2375 63.9456 83.7716 63.7127 82.9434 63.428C80.9245 62.7291 79.5268 61.3573 78.9057 59.2349C78.6209 58.2773 78.9057 57.5784 79.7857 57.2419C80.6916 56.9055 81.3645 57.2678 81.7787 58.1478C83.0728 60.762 85.6093 61.5903 88.2235 60.2961C89.9059 59.4679 90.0612 57.5784 88.4306 56.6208C87.5505 56.129 86.5152 55.9219 85.5317 55.6113C84.6775 55.3525 83.7716 55.1972 82.9434 54.8866C80.6398 54.0325 79.268 52.143 79.268 49.9171C79.268 47.7947 80.7692 45.6982 82.8916 44.8699C83.2799 44.7146 83.694 44.5852 84.0564 44.4299C84.2375 42.5922 84.7293 41.8675 85.7129 41.8934C86.6964 41.9193 87.1882 42.6699 87.2917 44.404C87.5247 44.4817 87.7835 44.6111 88.0423 44.7146C89.7765 45.2582 91.0189 46.397 91.8471 48.0018C92.4165 49.1147 92.2354 49.9947 91.3294 50.4347C90.2941 50.9265 89.6471 50.4347 89.1294 49.5288C87.9647 47.51 85.7905 46.7853 83.8493 47.95C83.1763 48.3641 82.5551 49.27 82.3998 50.0465C82.2187 51.0042 82.9952 51.703 83.9528 52.0136C84.8846 52.2983 85.894 52.4536 86.7999 52.7901C88.0423 53.2301 89.3365 53.6442 90.4494 54.3431C92.1318 55.4301 92.8048 57.1902 92.5977 59.1573C92.3389 61.3573 90.9153 62.6515 88.9223 63.428C88.4823 63.5574 87.9388 63.6868 87.3435 63.8939Z" fill="url(#paint8_linear_1325_148)"/>
</g>
</g>
<defs>
<filter id="filter0_i_1325_148" x="0.734375" y="0.312988" width="169.893" height="169.893" filterUnits="userSpaceOnUse" color-interpolation-filters="sRGB">
<feFlood flood-opacity="0" result="BackgroundImageFix"/>
<feBlend mode="normal" in="SourceGraphic" in2="BackgroundImageFix" result="shape"/>
<feColorMatrix in="SourceAlpha" type="matrix" values="0 0 0 0 0 0 0 0 0 0 0 0 0 0 0 0 0 0 127 0" result="hardAlpha"/>
<feOffset dx="0.5" dy="0.5"/>
<feGaussianBlur stdDeviation="3.45"/>
<feComposite in2="hardAlpha" operator="arithmetic" k2="-1" k3="1"/>
<feColorMatrix type="matrix" values="0 0 0 0 0 0 0 0 0 0 0 0 0 0 0 0 0 0 0.15 0"/>
<feBlend mode="normal" in2="shape" result="effect1_innerShadow_1325_148"/>
</filter>
<filter id="filter1_d_1325_148" x="0.771875" y="0.347558" width="170.323" height="170.323" filterUnits="userSpaceOnUse" color-interpolation-filters="sRGB">
<feFlood flood-opacity="0" result="BackgroundImageFix"/>
<feColorMatrix in="SourceAlpha" type="matrix" values="0 0 0 0 0 0 0 0 0 0 0 0 0 0 0 0 0 0 127 0" result="hardAlpha"/>
<feOffset dx="0.5" dy="0.5"/>
<feGaussianBlur stdDeviation="3.95"/>
<feComposite in2="hardAlpha" operator="out"/>
<feColorMatrix type="matrix" values="0 0 0 0 0 0 0 0 0 0 0 0 0 0 0 0 0 0 0.15 0"/>
<feBlend mode="normal" in2="BackgroundImageFix" result="effect1_dropShadow_1325_148"/>
<feBlend mode="normal" in="SourceGraphic" in2="effect1_dropShadow_1325_148" result="shape"/>
</filter>
<linearGradient id="paint0_linear_1325_148" x1="85.4307" y1="0.312988" x2="85.4307" y2="169.706" gradientUnits="userSpaceOnUse">
<stop stop-color="#242053"/>
<stop offset="1" stop-color="#1F1C42"/>
</linearGradient>
<linearGradient id="paint1_linear_1325_148" x1="77.3172" y1="7.74756" x2="77.3172" y2="178.902" gradientUnits="userSpaceOnUse">
<stop stop-color="#1B173F"/>
<stop offset="1" stop-color="#161435"/>
</linearGradient>
<linearGradient id="paint2_linear_1325_148" x1="85.4336" y1="7.74756" x2="85.4336" y2="162.271" gradientUnits="userSpaceOnUse">
<stop stop-color="#383183"/>
<stop offset="0.985702" stop-color="#221E4F"/>
</linearGradient>
<linearGradient id="paint3_linear_1325_148" x1="19.0575" y1="134.438" x2="135.461" y2="134.438" gradientUnits="userSpaceOnUse">
<stop stop-color="#6BADFC"/>
<stop offset="1" stop-color="#5F6FF6"/>
</linearGradient>
<linearGradient id="paint4_linear_1325_148" x1="19.0575" y1="134.438" x2="135.461" y2="134.438" gradientUnits="userSpaceOnUse">
<stop stop-color="#6BADFC"/>
<stop offset="1" stop-color="#5F6FF6"/>
</linearGradient>
<linearGradient id="paint5_linear_1325_148" x1="19.0575" y1="134.438" x2="135.461" y2="134.438" gradientUnits="userSpaceOnUse">
<stop stop-color="#6BADFC"/>
<stop offset="1" stop-color="#5F6FF6"/>
</linearGradient>
<linearGradient id="paint6_linear_1325_148" x1="19.0575" y1="134.438" x2="135.461" y2="134.438" gradientUnits="userSpaceOnUse">
<stop stop-color="#6BADFC"/>
<stop offset="1" stop-color="#5F6FF6"/>
</linearGradient>
<linearGradient id="paint7_linear_1325_148" x1="19.0575" y1="134.438" x2="135.461" y2="134.438" gradientUnits="userSpaceOnUse">
<stop stop-color="#6BADFC"/>
<stop offset="1" stop-color="#5F6FF6"/>
</linearGradient>
<linearGradient id="paint8_linear_1325_148" x1="19.0575" y1="134.438" x2="135.461" y2="134.438" gradientUnits="userSpaceOnUse">
<stop stop-color="#6BADFC"/>
<stop offset="1" stop-color="#5F6FF6"/>
</linearGradient>
</defs>
</svg>
