<svg width="228" height="228" viewBox="0 0 228 228" fill="none" xmlns="http://www.w3.org/2000/svg">
<g id="Group 482211">
<g id="Ellipse 38">
<g filter="url(#filter0_i_1325_92)">
<circle cx="114.304" cy="114.144" r="113.608" fill="#13112D" fill-opacity="0.5"/>
</g>
<circle cx="114.304" cy="114.144" r="113.358" stroke="url(#paint0_linear_1325_92)" stroke-width="0.5"/>
</g>
<g id="Ellipse 39" filter="url(#filter1_d_1325_92)">
<circle cx="114.308" cy="114.144" r="103.636" fill="url(#paint1_linear_1325_92)"/>
<circle cx="114.308" cy="114.144" r="103.386" stroke="url(#paint2_linear_1325_92)" stroke-width="0.5"/>
</g>
<g id="Vector">
<path d="M172.517 85.2214C172.608 95.1685 169.464 104.239 165.291 113.037C164.898 113.853 164.898 114.428 165.291 115.244C168.798 122.47 171.55 129.999 172.245 138.071C172.971 146.537 172.396 154.821 166.863 161.926C162.147 168.003 155.767 171.057 148.239 171.904C137.415 173.113 127.377 170.271 117.702 165.827C115.465 164.799 113.772 164.678 111.474 165.766C102.948 169.817 93.968 172.387 84.4139 172.176C76.6738 171.994 69.599 169.817 64.0661 164.073C59.1076 158.933 56.9912 152.584 56.5981 145.6C56.1749 138.313 57.5959 131.268 59.9844 124.435C60.4077 123.226 60.4379 122.47 59.4402 121.442C55.4492 117.33 55.5097 110.83 59.5611 106.718C60.4379 105.841 60.4682 105.146 60.0751 104.088C57.6261 97.2547 56.1749 90.2403 56.5981 82.9235C57.1726 72.9159 60.9519 64.6619 70.113 59.643C75.797 56.5288 82.0253 55.7427 88.4048 56.166C97.2635 56.7405 105.518 59.5523 113.499 63.3013C114.104 63.5735 115.072 63.5432 115.676 63.2711C122.57 60.0058 129.705 57.4963 137.324 56.4684C145.064 55.4404 152.623 55.8939 159.577 59.9151C166.833 64.1177 170.764 70.5879 172.064 78.7209C172.396 80.8676 172.366 83.0445 172.517 85.2214ZM73.469 123.014C73.8318 123.559 74.1644 124.073 74.497 124.556C78.3972 130.21 82.8114 135.441 87.649 140.309C95.1774 147.897 103.522 154.428 112.865 159.598C113.469 159.931 114.316 160.475 114.739 160.263C117.097 159.084 119.365 157.724 121.602 156.424C120.06 152.221 120.302 148.653 122.207 146.174C123.084 146.688 123.991 147.232 124.868 147.746C123.386 152.614 124.263 155.94 127.558 157.905C130.401 159.598 134.119 159.175 136.478 156.847C138.927 154.428 139.531 150.679 137.627 147.867C136.75 146.597 135.45 145.418 134.089 144.783C131.64 143.634 129.1 144.179 126.772 145.66C126.047 144.723 125.412 143.907 124.716 142.999C129.463 139.825 133.938 140.127 138.292 143.181C138.473 143.06 138.594 143.03 138.655 142.969C147.423 134.745 154.8 125.433 160.514 114.821C160.726 114.398 160.665 113.642 160.423 113.218C158.156 109.469 155.888 105.72 153.469 102.092C151.928 99.7641 150.083 97.6175 148.36 95.3801C143.432 98.071 138.806 97.9198 134.845 94.1103C130.703 90.1193 130.582 85.3725 133.182 80.3234C132.729 79.9303 132.305 79.507 131.791 79.1745C126.651 75.6673 121.481 72.1903 116.341 68.6528C115.041 67.7458 114.013 67.9272 112.653 68.6831C99.8637 75.9091 89.0095 85.4028 79.7275 96.7407C77.5204 99.4316 75.4947 102.334 73.5295 104.964C74.7993 106.476 75.8877 107.746 77.0971 109.197C75.8575 109.832 74.9505 110.286 74.0132 110.77C70.7176 106.839 67.5128 105.811 64.0056 107.534C61.0426 108.986 59.3192 112.463 60.0449 115.607C60.8914 119.235 63.673 121.684 67.2407 121.473C68.7524 121.382 70.4153 120.807 71.7154 119.961C73.9527 118.54 74.6481 116.121 74.7691 113.551C75.8877 113.43 76.8552 113.339 77.9739 113.218C78.3065 117.391 76.6134 120.505 73.469 123.014ZM150.688 79.8396C153.53 83.2863 153.832 88.1843 151.444 91.9636C150.93 92.78 150.96 93.2637 151.534 94.0498C154.256 97.678 156.916 101.336 159.547 105.025C160.696 106.658 161.663 108.411 162.903 110.407C164.052 107.413 165.17 104.783 166.077 102.092C168.556 94.7755 169.887 87.3075 168.768 79.5373C167.287 69.2878 160.091 61.8199 150.083 60.0058C143.915 58.8871 137.808 59.4011 131.852 61.0338C127.317 62.2734 122.902 63.9363 118.367 65.448C124.384 69.6506 130.068 73.6113 135.843 77.6627C139.501 75.2137 143.492 74.8207 147.755 77.1185C147.12 78.1767 146.576 79.0535 146.062 79.9303C141.436 78.2977 137.899 79.2652 135.903 82.6212C134.119 85.6749 134.694 89.4844 137.294 91.8427C139.955 94.2615 143.885 94.4126 146.727 92.2055C149.841 89.7868 150.386 86.1889 148.178 81.8049C148.995 81.2002 149.811 80.535 150.688 79.8396ZM110.416 65.5992C108.571 64.8433 106.576 63.9665 104.55 63.2409C96.417 60.3081 88.1327 58.4034 79.4252 60.0058C71.2316 61.4873 65.1545 65.7806 61.9496 73.6718C59.1681 80.535 59.4704 87.5494 60.9217 94.5941C61.5868 97.7082 62.5543 100.762 63.3102 103.513C65.4871 103.513 67.2709 103.423 69.0547 103.543C70.0525 103.634 70.5967 103.362 71.1409 102.546C77.8832 92.5986 85.9256 83.8003 95.3588 76.3929C100.196 72.6136 105.336 69.2273 110.416 65.5992ZM63.4614 124.677C60.6496 132.629 58.9262 140.883 60.4379 149.591C62.1613 159.477 69.7199 166.764 79.6368 168.276C85.7442 169.213 91.7004 168.699 97.5659 167.096C101.98 165.887 106.304 164.224 110.657 162.773C110.204 162.108 109.871 161.896 109.539 161.684C105.306 158.812 100.892 156.151 96.8403 153.007C86.8024 145.267 78.2158 136.106 71.0502 125.615C70.7176 125.161 69.992 124.738 69.4478 124.708C67.5733 124.617 65.6685 124.677 63.4614 124.677ZM162.782 117.905C156.765 128.517 149.297 137.678 140.65 145.872C143.099 152.161 142.222 156.817 137.959 160.112C134.573 162.743 129.1 163.952 123.537 159.235C121.874 160.233 120.212 161.261 118.307 162.41C119.818 163.075 121.058 163.619 122.328 164.133C131.096 167.55 140.045 169.908 149.569 168.245C158.337 166.703 164.566 161.926 167.529 153.34C169.887 146.537 169.433 139.643 167.952 132.78C166.894 127.701 165.14 122.863 162.782 117.905Z" fill="url(#paint3_linear_1325_92)"/>
<path d="M128.193 113.672C127.891 114.76 127.589 115.758 127.256 116.877C125.2 116.333 123.235 115.758 121.239 115.305C120.695 115.184 119.939 115.274 119.516 115.577C116.221 118.026 112.744 118.026 109.509 115.547C109.115 115.244 108.42 115.123 107.936 115.244C104.399 116.181 100.861 117.179 97.324 118.177C95.1169 118.812 93.7261 120.354 93.5749 122.591C93.3633 125.524 93.5145 128.517 93.5145 131.571C95.5402 131.571 97.4752 131.571 99.5916 131.571C99.5916 130.059 99.5916 128.638 99.5916 127.157C100.801 127.157 101.859 127.157 103.008 127.157C103.008 128.638 103.008 130.029 103.008 131.631C104.459 131.631 105.79 131.631 107.18 131.631C107.18 132.871 107.18 133.899 107.18 135.139C106.546 135.139 105.971 135.139 105.366 135.139C99.773 135.139 94.1796 135.139 88.5862 135.139C86.4698 135.139 86.4698 135.139 86.5001 132.992C86.5001 132.599 86.5605 132.206 86.621 131.692C87.7397 131.692 88.7676 131.692 89.9468 131.692C89.977 131.117 90.0375 130.694 90.0375 130.271C90.0375 128.064 90.0375 125.826 90.0375 123.619C90.0375 118.963 92.4562 115.879 96.9914 114.64C100.196 113.763 103.371 112.825 106.576 111.949C107.392 111.737 107.785 111.374 107.725 110.528C107.664 109.983 107.664 109.409 107.725 108.865C107.876 107.655 107.422 106.869 106.455 106.053C104.278 104.178 102.917 101.79 102.676 98.8873C102.373 94.9266 101.92 90.9357 103.673 87.1564C105.911 82.2281 111.534 79.4466 116.825 80.5652C122.267 81.7444 126.228 86.4307 126.349 91.9334C126.379 93.5963 126.349 95.2592 126.379 96.9221C126.44 100.792 124.958 103.967 122.026 106.476C121.3 107.111 120.726 110.86 121.3 111.525C121.512 111.767 121.905 111.858 122.237 111.949C124.233 112.553 126.168 113.098 128.193 113.672ZM106.092 92.9009C106.092 94.8057 105.971 96.4988 106.122 98.1919C106.455 102.032 109.478 105.176 113.076 105.66C117.309 106.234 120.967 104.178 122.419 100.399C122.57 99.9758 122.54 99.2804 122.298 98.9478C120.998 97.1035 119.637 95.2894 118.246 93.5056C118.004 93.2033 117.521 92.9311 117.128 92.9311C113.499 92.8707 109.902 92.9009 106.092 92.9009ZM106.787 89.3635C107.301 89.3937 107.785 89.4239 108.269 89.4239C111.444 89.4239 114.618 89.4844 117.793 89.3937C118.942 89.3635 119.788 89.6356 120.423 90.6636C121.088 91.7218 121.965 92.6893 122.872 93.8382C123.598 89.0007 120.544 84.6469 116.1 83.8608C112.018 83.1956 107.513 85.7958 106.787 89.3635ZM111.292 109.107C111.564 110.528 110.476 112.251 112.351 113.4C113.711 114.216 115.828 114.156 117.067 113.158C118.549 111.979 117.642 110.437 117.793 109.107C115.525 109.107 113.469 109.107 111.292 109.107Z" fill="url(#paint4_linear_1325_92)"/>
<path d="M110.748 135.078C110.748 133.959 110.748 132.962 110.748 131.782C115.767 131.782 120.786 131.782 125.986 131.782C125.986 130.18 125.986 128.759 125.986 127.217C127.196 127.217 128.224 127.217 129.433 127.217C129.433 128.668 129.433 130.12 129.433 131.631C131.519 131.631 133.394 131.631 135.54 131.631C135.54 130.15 135.54 128.668 135.54 127.187C135.54 126.37 135.54 125.584 135.54 124.768C135.54 120.414 134.785 119.296 130.642 117.814C130.884 116.816 131.156 115.849 131.398 114.851C134.845 114.73 138.443 118.056 138.806 121.926C139.048 124.526 138.957 127.157 138.987 129.757C138.987 130.331 138.987 130.936 138.987 131.692C140.197 131.692 141.255 131.692 142.373 131.692C142.373 132.871 142.373 133.929 142.373 135.078C131.882 135.078 121.391 135.078 110.748 135.078Z" fill="url(#paint5_linear_1325_92)"/>
<path d="M118.79 121.593C119.093 120.475 119.365 119.477 119.667 118.328C121.27 118.782 122.781 119.205 124.414 119.658C124.142 120.747 123.9 121.745 123.568 122.954C121.935 122.5 120.393 122.077 118.79 121.593Z" fill="url(#paint6_linear_1325_92)"/>
<path d="M68.9036 112.463C68.9036 113.612 68.9036 114.64 68.9036 115.758C67.8454 115.758 66.8476 115.758 65.7592 115.758C65.7592 114.67 65.7592 113.612 65.7592 112.463C66.7872 112.463 67.7547 112.463 68.9036 112.463Z" fill="url(#paint7_linear_1325_92)"/>
<path d="M132.97 153.309C131.822 153.309 130.854 153.309 129.766 153.309C129.766 152.191 129.766 151.163 129.766 150.014C130.824 150.014 131.852 150.014 132.97 150.014C132.97 151.102 132.97 152.13 132.97 153.309Z" fill="url(#paint8_linear_1325_92)"/>
<path d="M130.068 124.798C128.919 124.466 127.982 124.194 126.863 123.891C127.135 122.803 127.407 121.835 127.71 120.656C128.828 120.959 129.856 121.231 131.005 121.533C130.703 122.652 130.401 123.649 130.068 124.798Z" fill="url(#paint9_linear_1325_92)"/>
<path d="M143.885 84.7981C143.885 85.947 143.885 86.9145 143.885 88.0029C142.797 88.0029 141.799 88.0029 140.68 88.0029C140.68 86.9447 140.68 85.9168 140.68 84.7981C141.708 84.7981 142.736 84.7981 143.885 84.7981Z" fill="url(#paint10_linear_1325_92)"/>
</g>
</g>
<defs>
<filter id="filter0_i_1325_92" x="0.695312" y="0.535767" width="227.717" height="227.717" filterUnits="userSpaceOnUse" color-interpolation-filters="sRGB">
<feFlood flood-opacity="0" result="BackgroundImageFix"/>
<feBlend mode="normal" in="SourceGraphic" in2="BackgroundImageFix" result="shape"/>
<feColorMatrix in="SourceAlpha" type="matrix" values="0 0 0 0 0 0 0 0 0 0 0 0 0 0 0 0 0 0 127 0" result="hardAlpha"/>
<feOffset dx="0.5" dy="0.5"/>
<feGaussianBlur stdDeviation="3.45"/>
<feComposite in2="hardAlpha" operator="arithmetic" k2="-1" k3="1"/>
<feColorMatrix type="matrix" values="0 0 0 0 0 0 0 0 0 0 0 0 0 0 0 0 0 0 0.15 0"/>
<feBlend mode="normal" in2="shape" result="effect1_innerShadow_1325_92"/>
</filter>
<filter id="filter1_d_1325_92" x="3.27169" y="3.10818" width="223.072" height="223.072" filterUnits="userSpaceOnUse" color-interpolation-filters="sRGB">
<feFlood flood-opacity="0" result="BackgroundImageFix"/>
<feColorMatrix in="SourceAlpha" type="matrix" values="0 0 0 0 0 0 0 0 0 0 0 0 0 0 0 0 0 0 127 0" result="hardAlpha"/>
<feOffset dx="0.5" dy="0.5"/>
<feGaussianBlur stdDeviation="3.95"/>
<feComposite in2="hardAlpha" operator="out"/>
<feColorMatrix type="matrix" values="0 0 0 0 0 0 0 0 0 0 0 0 0 0 0 0 0 0 0.15 0"/>
<feBlend mode="normal" in2="BackgroundImageFix" result="effect1_dropShadow_1325_92"/>
<feBlend mode="normal" in="SourceGraphic" in2="effect1_dropShadow_1325_92" result="shape"/>
</filter>
<linearGradient id="paint0_linear_1325_92" x1="114.304" y1="0.535767" x2="114.304" y2="227.752" gradientUnits="userSpaceOnUse">
<stop stop-color="#242053"/>
<stop offset="1" stop-color="#1F1C42"/>
</linearGradient>
<linearGradient id="paint1_linear_1325_92" x1="103.421" y1="10.5082" x2="103.421" y2="240.089" gradientUnits="userSpaceOnUse">
<stop stop-color="#1B173F"/>
<stop offset="1" stop-color="#161435"/>
</linearGradient>
<linearGradient id="paint2_linear_1325_92" x1="114.308" y1="10.5082" x2="114.308" y2="217.78" gradientUnits="userSpaceOnUse">
<stop stop-color="#383183"/>
<stop offset="0.985702" stop-color="#221E4F"/>
</linearGradient>
<linearGradient id="paint3_linear_1325_92" x1="56.4844" y1="114.171" x2="172.519" y2="114.171" gradientUnits="userSpaceOnUse">
<stop stop-color="#616AF3"/>
<stop offset="1" stop-color="#DF669F"/>
</linearGradient>
<linearGradient id="paint4_linear_1325_92" x1="56.4844" y1="114.171" x2="172.519" y2="114.171" gradientUnits="userSpaceOnUse">
<stop stop-color="#616AF3"/>
<stop offset="1" stop-color="#DF669F"/>
</linearGradient>
<linearGradient id="paint5_linear_1325_92" x1="56.4844" y1="114.171" x2="172.519" y2="114.171" gradientUnits="userSpaceOnUse">
<stop stop-color="#616AF3"/>
<stop offset="1" stop-color="#DF669F"/>
</linearGradient>
<linearGradient id="paint6_linear_1325_92" x1="56.4844" y1="114.171" x2="172.519" y2="114.171" gradientUnits="userSpaceOnUse">
<stop stop-color="#616AF3"/>
<stop offset="1" stop-color="#DF669F"/>
</linearGradient>
<linearGradient id="paint7_linear_1325_92" x1="56.4844" y1="114.171" x2="172.519" y2="114.171" gradientUnits="userSpaceOnUse">
<stop stop-color="#616AF3"/>
<stop offset="1" stop-color="#DF669F"/>
</linearGradient>
<linearGradient id="paint8_linear_1325_92" x1="56.4844" y1="114.171" x2="172.519" y2="114.171" gradientUnits="userSpaceOnUse">
<stop stop-color="#616AF3"/>
<stop offset="1" stop-color="#DF669F"/>
</linearGradient>
<linearGradient id="paint9_linear_1325_92" x1="56.4844" y1="114.171" x2="172.519" y2="114.171" gradientUnits="userSpaceOnUse">
<stop stop-color="#616AF3"/>
<stop offset="1" stop-color="#DF669F"/>
</linearGradient>
<linearGradient id="paint10_linear_1325_92" x1="56.4844" y1="114.171" x2="172.519" y2="114.171" gradientUnits="userSpaceOnUse">
<stop stop-color="#616AF3"/>
<stop offset="1" stop-color="#DF669F"/>
</linearGradient>
</defs>
</svg>
