<svg width="49" height="49" viewBox="0 0 49 49" fill="none" xmlns="http://www.w3.org/2000/svg">
<g id="Group 69231">
<circle id="Oval Copy 2" opacity="0.16004" cx="24.5306" cy="24.6063" r="23.4994" stroke="#B3C2EA"/>
<path id="Vector" d="M21.677 36.5337C21.677 36.4403 21.6583 36.3469 21.6583 36.2349C21.6583 32.9287 21.6583 29.6039 21.6583 26.2978C21.6583 26.2044 21.6583 26.111 21.6583 25.9803C20.4629 25.9803 19.3048 25.9803 18.1094 25.9803C18.1094 24.5981 18.1094 23.2532 18.1094 21.871C19.2861 21.871 20.4442 21.871 21.6583 21.871C21.6583 21.7589 21.6583 21.6655 21.6583 21.5721C21.6583 20.4888 21.6396 19.4241 21.677 18.3407C21.733 17.0519 22.1066 15.8565 23.0219 14.8852C23.713 14.1567 24.5909 13.7271 25.5622 13.5216C26.3653 13.3535 27.1685 13.3722 27.9717 13.4096C28.6255 13.4282 29.2792 13.4843 29.933 13.5403C29.989 13.5403 30.0264 13.559 30.1011 13.5777C30.1011 14.7918 30.1011 16.0059 30.1011 17.2387C30.0264 17.2387 29.9516 17.2387 29.8582 17.2387C29.0551 17.2574 28.2519 17.2387 27.4487 17.276C26.4961 17.3321 25.9544 17.8551 25.917 18.8077C25.8797 19.7977 25.8984 20.7876 25.8984 21.7963C25.8984 21.815 25.917 21.815 25.917 21.871C27.2432 21.871 28.5881 21.871 29.9516 21.871C29.7649 23.2532 29.5967 24.6167 29.4286 25.9803C28.2519 25.9803 27.0938 25.9803 25.917 25.9803C25.917 26.0737 25.8984 26.1297 25.8984 26.2044C25.8984 29.6039 25.8984 33.0035 25.8984 36.3843C25.8984 36.4403 25.8984 36.4964 25.917 36.5337C24.4975 36.5337 23.0966 36.5337 21.677 36.5337Z" fill="white"/>
</g>
</svg>
