<svg width="228" height="228" viewBox="0 0 228 228" fill="none" xmlns="http://www.w3.org/2000/svg">
<g id="Group 1000004127">
<g id="Ellipse 36">
<g filter="url(#filter0_i_1246_486)">
<circle cx="114.311" cy="114.198" r="113.608" fill="#13112D" fill-opacity="0.5"/>
</g>
<circle cx="114.311" cy="114.198" r="113.358" stroke="url(#paint0_linear_1246_486)" stroke-width="0.5"/>
</g>
<g id="Ellipse 37" filter="url(#filter1_d_1246_486)">
<circle cx="114.308" cy="114.198" r="103.636" fill="url(#paint1_linear_1246_486)"/>
<circle cx="114.308" cy="114.198" r="103.386" stroke="url(#paint2_linear_1246_486)" stroke-width="0.5"/>
</g>
<g id="Vector">
<path d="M127.062 175.711C126.951 175.527 126.731 175.453 126.51 175.49C120.073 177.035 113.451 177.513 106.646 176.962C99.252 176.373 92.1892 174.497 85.4575 171.37C85.1632 171.223 84.8321 171.076 84.5379 170.929C84.3539 170.819 84.0964 170.892 83.9493 171.039C83.2136 171.848 82.5147 172.695 81.779 173.504C81.5582 173.761 81.6318 174.129 81.9629 174.276C97.4128 181.597 112.936 183.252 128.46 179.169C128.791 179.095 128.938 178.691 128.754 178.396C128.533 178.102 128.349 177.771 128.129 177.44C127.798 176.888 127.43 176.3 127.062 175.711Z" fill="url(#paint3_linear_1246_486)"/>
<path d="M184.006 144.48C181.467 147.165 179.113 149.704 176.759 152.205C168.519 161.034 160.169 169.752 152.149 178.764C147.588 183.914 139.826 183.583 135.927 177.072C127.981 163.903 119.594 150.991 111.354 137.969C111.023 137.454 110.656 136.976 110.141 136.277C107.382 139.404 104.733 142.383 102.121 145.4C92.3364 156.583 82.5147 167.765 72.7297 178.911C68.9776 183.215 63.2391 183.73 59.3031 180.236C55.2934 176.667 55.1463 171.039 58.8984 166.735C73.9437 149.557 89.0257 132.378 104.071 115.199C108.669 109.939 115.695 110.417 119.41 116.302C127.834 129.582 136.221 142.898 144.645 156.215C145.05 156.84 145.455 157.429 146.006 158.238C154.724 148.894 163.295 139.661 172.05 130.244C170.8 130.023 169.77 129.913 168.777 129.692C164.142 128.552 161.309 124.469 161.787 119.797C162.229 115.236 166.091 111.668 170.8 111.631C178.451 111.557 186.066 111.557 193.717 111.631C198.683 111.668 202.656 115.787 202.656 120.717C202.656 128.074 202.656 135.468 202.509 142.825C202.362 149.924 195.851 154.228 189.56 151.543C186.581 150.219 184.962 147.791 184.006 144.48ZM182.166 116.928C178.635 116.928 175.067 116.928 171.535 116.928C168.666 116.928 167.011 118.362 167.011 120.754C166.974 123.181 168.666 124.653 171.462 124.69C173.559 124.726 175.692 124.542 177.789 124.763C178.782 124.873 180.143 125.536 180.511 126.345C180.879 127.117 180.327 128.442 179.923 129.435C179.628 130.134 178.856 130.649 178.304 131.237C168.335 141.979 158.329 152.72 148.361 163.461C146.006 166 144.498 165.889 142.622 162.91C133.536 148.49 124.45 134.107 115.364 119.687C113.12 116.082 110.545 115.898 107.713 119.098C95.5735 132.929 83.4343 146.761 71.2951 160.592C68.4626 163.829 65.5934 167.03 62.7977 170.304C60.848 172.547 61.032 174.975 63.1287 176.52C64.8577 177.808 67.028 177.366 68.8673 175.306C77.7693 165.154 86.6714 155.001 95.5735 144.848C99.6935 140.139 103.813 135.394 107.97 130.686C110.03 128.368 111.575 128.515 113.304 131.164C113.562 131.568 113.819 131.973 114.077 132.378C122.905 146.393 131.734 160.408 140.562 174.387C142.88 178.028 145.344 178.286 148.25 175.159C156.159 166.662 164.031 158.164 171.94 149.667C176.023 145.289 180.07 140.838 184.263 136.534C185.036 135.762 186.507 135.247 187.574 135.321C189.156 135.431 189.303 136.976 189.266 138.337C189.266 139.919 189.192 141.501 189.303 143.046C189.523 145.694 191.436 147.239 193.827 146.908C195.961 146.614 197.212 145.069 197.248 142.531C197.322 135.284 197.322 128.074 197.322 120.827C197.322 118.473 195.703 116.965 193.239 116.928C189.56 116.891 185.882 116.928 182.166 116.928Z" fill="url(#paint4_linear_1246_486)"/>
<path d="M170.8 80.216C170.322 79.3699 170.211 78.8181 170.763 77.9353C172.676 74.8821 172.602 71.7553 170.616 68.8125C168.556 65.7593 165.576 64.5086 162.008 65.3547C160.353 65.7593 159.286 65.4282 158.293 64.1407C157.962 63.6993 157.52 63.3315 157.042 63.0004C155.938 62.2647 155.644 61.3818 155.902 60.0576C156.601 56.4158 155.203 53.5098 152.113 51.5601C149.023 49.5737 145.896 49.7209 142.806 51.8176C142.254 52.1855 141.224 52.1855 140.562 51.9648C138.429 51.2291 136.405 50.1991 134.272 49.4266C124.708 46.0791 114.886 45.0123 104.77 46.0423C96.8978 46.8516 89.4303 49.0219 82.294 52.443C81.8525 52.6637 81.1168 52.5901 80.7122 52.3326C76.9969 49.7576 73.9069 49.5369 70.7065 51.6337C67.3591 53.8408 66.3291 56.8572 67.2855 61.4186C67.3959 61.9336 67.1016 62.6693 66.7337 63.074C65.0048 64.95 63.1287 66.7525 61.363 68.6286C60.4434 69.585 60.4802 70.6518 61.4734 71.5346C62.4666 72.4175 63.4598 72.3439 64.3794 71.3875C65.5566 70.1368 66.8073 68.9596 67.9476 67.6722C69.2351 66.2375 70.4858 64.9868 72.509 66.5318C72.7297 66.7157 73.0976 66.7157 73.3919 66.7525C77.4751 67.4514 80.565 65.9065 82.7722 62.4118C89.5039 64.3615 95.7574 67.0468 101.753 70.2839C103.151 71.0564 104.108 71.7553 103.74 73.5946C103.556 74.5142 103.777 75.581 104.108 76.4639C104.512 77.4939 104.108 77.9721 103.446 78.6342C99.1785 83.1956 94.9481 87.757 90.7914 92.4287C90.1292 93.1645 89.6143 93.3852 88.6578 93.2748C85.3471 92.907 82.5882 94.0473 80.7122 96.8062C80.0133 97.8362 79.2775 97.9834 78.174 98.0937C71.2215 98.7558 64.2691 99.3812 57.3534 100.264C55.2567 100.522 53.7852 100.742 52.1299 98.7926C50.9896 97.4316 50.6585 96.4751 51.2838 95.0405C53.491 90.0745 55.6613 85.1084 57.942 80.1792C58.4938 78.9653 58.7145 78.0089 57.5741 77.0892C56.397 76.1696 55.2934 76.4639 54.3002 78.1192C51.0999 83.3795 48.6721 88.9709 46.9799 94.8934C46.7592 95.7027 46.5753 96.4016 45.3982 96.5487C41.3518 97.1005 38.7768 99.8226 38.1882 103.759C37.6732 107.4 39.4757 110.748 43.0071 112.403C44.0739 112.918 44.3314 113.47 44.405 114.61C44.5889 117.921 44.7728 121.232 45.3246 124.469C47.0903 134.916 50.916 144.259 56.7281 152.536C56.912 152.794 57.2799 152.83 57.5006 152.573C58.2731 151.69 59.0456 150.807 59.8181 149.924C59.9652 149.777 59.9652 149.52 59.8548 149.336C58.2363 146.834 56.8017 144.259 55.5142 141.537C51.5413 133.224 49.1135 124.506 48.5249 115.272C48.4514 113.801 48.5985 112.845 50.2171 112.183C52.8288 111.116 54.337 108.945 54.6313 106.113C54.7417 104.862 55.4038 104.568 56.8752 104.568C63.4966 104.678 70.0812 104.053 76.4819 102.398C78.3947 101.919 79.0936 102.103 79.3143 103.501C79.4247 104.274 79.6822 105.157 80.1604 105.672C81.4479 107.033 80.9697 108.21 80.3075 109.644C76.629 117.48 74.1276 125.536 72.7297 133.739C72.6562 134.217 73.2447 134.511 73.5758 134.143C74.9737 132.562 76.3715 130.98 77.7693 129.361C77.8061 129.288 77.8429 129.214 77.8797 129.141C79.3143 122.887 81.4479 116.817 84.2068 110.969C84.4643 110.417 85.3104 109.755 85.8621 109.755C91.4167 109.718 93.6607 108.283 95.7206 102.986C97.3024 103.244 98.8842 103.501 100.466 103.759C100.907 103.832 101.386 103.759 101.753 103.538C103.924 102.324 106.315 101.625 108.743 101.515C108.963 101.515 109 101.184 108.779 101.11C104.733 100.19 100.613 99.4548 96.4563 98.9398C95.9046 98.8662 95.3528 98.3512 94.9849 97.9098C94.3964 97.2109 93.9917 96.3648 93.4399 95.4452C97.3024 90.2216 101.57 85.5131 106.388 81.3195C106.719 81.0253 107.418 80.8781 107.823 80.9885C112.127 82.4231 112.348 82.4231 116.688 80.6942C123.788 86.7638 129.747 93.8634 134.64 101.846C136.185 104.384 137.582 107.069 138.944 109.718C139.164 110.159 138.98 110.821 138.98 111.336C138.429 111.3 137.803 111.41 137.362 111.189C131.108 108.099 124.671 105.561 118.086 103.538C117.829 103.464 117.682 103.795 117.902 103.943C119.925 105.23 121.691 106.996 123.089 109.166C123.42 109.424 123.714 109.681 124.045 109.975C127.798 111.373 131.513 112.992 135.155 114.758C136.148 115.236 136.332 115.751 136.405 116.817C136.516 118.767 137.031 120.717 137.472 123.108C136.773 123.991 136.037 124.873 135.302 125.756C134.713 126.455 134.64 127.448 135.118 128.221L135.155 128.258C135.89 129.435 137.582 129.545 138.465 128.515C138.98 127.89 139.495 127.301 140.01 126.676C140.452 126.124 141.482 125.499 141.96 125.646C142.181 125.72 145.418 125.241 145.638 127.89C145.859 130.428 146.595 132.93 147.036 135.468C147.404 137.491 148.213 138.374 149.648 138.043C151.414 137.638 151.524 136.387 151.193 134.916C150.568 132.047 149.942 129.177 149.464 126.308C149.427 126.124 149.427 125.94 149.464 125.756C149.611 124.8 150.605 124.138 151.487 124.542C151.561 124.579 151.671 124.616 151.745 124.69C152.002 124.91 152.26 125.131 152.517 125.352C152.959 125.72 153.658 125.683 154.062 125.278C154.393 124.947 154.504 124.432 154.32 124.027C153.768 122.777 153.4 121.489 153.179 120.128C152.885 119.429 152.812 118.62 152.848 117.59C152.959 115.971 151.855 114.316 151.377 112.624C151.193 111.962 150.972 111.079 151.267 110.564C156.343 101.772 160.426 92.5759 163.332 82.8645C163.81 81.2828 165.098 81.8713 166.018 81.5035C166.312 81.3931 167.121 82.0553 167.379 82.5335C170.653 88.3823 172.86 94.5991 174.11 101.147C174.147 101.368 174.368 101.552 174.589 101.552C175.692 101.552 176.759 101.552 177.826 101.552C178.12 101.552 178.378 101.257 178.304 100.963C177.016 93.9002 174.515 86.8741 170.8 80.216ZM75.1576 62.8533C72.9137 62.8533 70.9273 60.8668 70.9273 58.6597C70.9273 56.2687 72.8769 54.3558 75.2679 54.3926C77.6222 54.4294 79.3879 56.3055 79.3879 58.6597C79.3511 60.9404 77.4383 62.8533 75.1576 62.8533ZM46.5017 109.056C44.2578 109.093 42.2714 107.18 42.2346 104.899C42.1978 102.655 44.1107 100.632 46.3546 100.595C48.7824 100.558 50.6585 102.398 50.6585 104.825C50.6585 107.216 48.856 109.056 46.5017 109.056ZM87.4071 105.782C85.0529 105.782 83.2504 103.979 83.2136 101.625C83.1768 99.3812 85.1264 97.3948 87.3703 97.358C89.7246 97.3212 91.6742 99.3076 91.6007 101.662C91.5639 104.053 89.7982 105.782 87.4071 105.782ZM147.772 54.3558C150.053 54.3558 151.929 56.2319 151.966 58.5494C151.966 60.9772 150.273 62.7429 147.882 62.7797C145.418 62.8165 143.578 61.014 143.578 58.5494C143.578 56.3055 145.491 54.3558 147.772 54.3558ZM111.869 78.0456C109.662 78.0456 107.676 75.9857 107.713 73.7417C107.749 71.4243 109.662 69.6218 112.017 69.6586C114.444 69.6953 116.173 71.461 116.137 73.8889C116.063 76.2064 114.224 78.0824 111.869 78.0456ZM116.983 67.1572C113.893 64.8397 110.067 64.8397 106.94 67.1572C106.057 67.7825 105.506 67.7089 104.696 67.2307C98.4428 63.589 91.7846 60.7933 84.8689 58.6597C84.3539 58.5126 83.5447 57.8504 83.5814 57.5194C83.655 56.9676 84.17 56.2687 84.7218 56.0112C94.9114 51.0451 105.726 49.1691 116.983 50.0151C124.376 50.5669 131.439 52.3694 138.171 55.4594C138.649 55.6801 139.127 55.9376 139.642 56.1951C139.753 58.0711 138.87 58.6965 137.362 59.3219C131.255 61.8233 125.259 64.5454 119.263 67.2675C118.344 67.6354 117.829 67.7825 116.983 67.1572ZM144.645 121.931C142.365 121.931 140.452 120.018 140.452 117.737C140.452 115.493 142.401 113.507 144.645 113.47C147 113.47 148.949 115.42 148.912 117.811C148.839 120.165 147.036 121.931 144.645 121.931ZM159.176 82.5703C156.306 91.5827 152.517 100.19 147.698 108.32C147.294 108.982 146.337 109.313 145.638 109.791C145.528 109.534 145.271 109.387 144.976 109.424C143.505 109.718 142.99 108.651 142.401 107.437C136.994 96.5119 129.747 86.9477 120.661 78.8181C119.742 77.9721 119.337 77.2731 119.889 76.0592C120.183 75.4339 120.293 74.3303 120.183 73.6314C119.852 71.8657 120.624 70.8725 122.206 70.2103C127.724 67.8561 133.205 65.5018 138.686 63.1108C139.753 62.6325 140.452 62.7797 141.261 63.8465C143.726 67.0836 148.361 68.0032 151.818 65.8697C152.996 65.1707 153.658 65.3179 154.43 66.2375C154.761 66.6422 155.166 66.9732 155.571 67.3043C156.637 68.0768 156.711 68.8861 156.086 70.1736C154.504 73.3739 155.534 77.5306 158.366 79.8481C159.433 80.6574 159.58 81.3563 159.176 82.5703ZM163.847 77.7146C161.456 77.7514 159.543 75.8753 159.58 73.4475C159.58 71.0564 161.383 69.2907 163.737 69.2907C166.054 69.2907 167.93 71.13 167.967 73.4107C168.004 75.6546 166.091 77.6778 163.847 77.7146Z" fill="url(#paint5_linear_1246_486)"/>
</g>
</g>
<defs>
<filter id="filter0_i_1246_486" x="0.703125" y="0.589844" width="227.717" height="227.717" filterUnits="userSpaceOnUse" color-interpolation-filters="sRGB">
<feFlood flood-opacity="0" result="BackgroundImageFix"/>
<feBlend mode="normal" in="SourceGraphic" in2="BackgroundImageFix" result="shape"/>
<feColorMatrix in="SourceAlpha" type="matrix" values="0 0 0 0 0 0 0 0 0 0 0 0 0 0 0 0 0 0 127 0" result="hardAlpha"/>
<feOffset dx="0.5" dy="0.5"/>
<feGaussianBlur stdDeviation="3.45"/>
<feComposite in2="hardAlpha" operator="arithmetic" k2="-1" k3="1"/>
<feColorMatrix type="matrix" values="0 0 0 0 0 0 0 0 0 0 0 0 0 0 0 0 0 0 0.15 0"/>
<feBlend mode="normal" in2="shape" result="effect1_innerShadow_1246_486"/>
</filter>
<filter id="filter1_d_1246_486" x="3.27187" y="3.1625" width="223.072" height="223.072" filterUnits="userSpaceOnUse" color-interpolation-filters="sRGB">
<feFlood flood-opacity="0" result="BackgroundImageFix"/>
<feColorMatrix in="SourceAlpha" type="matrix" values="0 0 0 0 0 0 0 0 0 0 0 0 0 0 0 0 0 0 127 0" result="hardAlpha"/>
<feOffset dx="0.5" dy="0.5"/>
<feGaussianBlur stdDeviation="3.95"/>
<feComposite in2="hardAlpha" operator="out"/>
<feColorMatrix type="matrix" values="0 0 0 0 0 0 0 0 0 0 0 0 0 0 0 0 0 0 0.15 0"/>
<feBlend mode="normal" in2="BackgroundImageFix" result="effect1_dropShadow_1246_486"/>
<feBlend mode="normal" in="SourceGraphic" in2="effect1_dropShadow_1246_486" result="shape"/>
</filter>
<linearGradient id="paint0_linear_1246_486" x1="114.311" y1="0.589844" x2="114.311" y2="227.806" gradientUnits="userSpaceOnUse">
<stop stop-color="#242053"/>
<stop offset="1" stop-color="#1F1C42"/>
</linearGradient>
<linearGradient id="paint1_linear_1246_486" x1="103.421" y1="10.5625" x2="103.421" y2="240.143" gradientUnits="userSpaceOnUse">
<stop stop-color="#1B173F"/>
<stop offset="1" stop-color="#161435"/>
</linearGradient>
<linearGradient id="paint2_linear_1246_486" x1="114.308" y1="10.5625" x2="114.308" y2="217.834" gradientUnits="userSpaceOnUse">
<stop stop-color="#383183"/>
<stop offset="0.985702" stop-color="#221E4F"/>
</linearGradient>
<linearGradient id="paint3_linear_1246_486" x1="38.1016" y1="182.538" x2="202.656" y2="182.538" gradientUnits="userSpaceOnUse">
<stop stop-color="#6BADFC"/>
<stop offset="1" stop-color="#5F6EF6"/>
</linearGradient>
<linearGradient id="paint4_linear_1246_486" x1="38.1016" y1="182.538" x2="202.656" y2="182.538" gradientUnits="userSpaceOnUse">
<stop stop-color="#6BADFC"/>
<stop offset="1" stop-color="#5F6EF6"/>
</linearGradient>
<linearGradient id="paint5_linear_1246_486" x1="38.1016" y1="182.538" x2="202.656" y2="182.538" gradientUnits="userSpaceOnUse">
<stop stop-color="#6BADFC"/>
<stop offset="1" stop-color="#5F6EF6"/>
</linearGradient>
</defs>
</svg>
