<svg xmlns="http://www.w3.org/2000/svg" width="502" height="63" viewBox="0 0 502 63" fill="none">
  <g filter="url(#filter0_bi_1352_99)">
    <path d="M0.757812 31.533C0.757812 14.2773 14.7463 0.288818 32.002 0.288818H470.646C487.902 0.288818 501.891 14.2773 501.891 31.533C501.891 48.7886 487.902 62.7771 470.646 62.7771H32.002C14.7463 62.7771 0.757812 48.7886 0.757812 31.533Z" fill="#14122F" fill-opacity="0.6"/>
    <path d="M1.05781 31.533C1.05781 14.443 14.912 0.588818 32.002 0.588818H470.646C487.736 0.588818 501.591 14.443 501.591 31.533C501.591 48.6229 487.736 62.4771 470.646 62.4771H32.002C14.912 62.4771 1.05781 48.6229 1.05781 31.533Z" stroke="url(#paint0_linear_1352_99)" stroke-opacity="0.5" stroke-width="0.6"/>
  </g>
  <defs>
    <filter id="filter0_bi_1352_99" x="-39.2422" y="-39.7112" width="581.133" height="142.488" filterUnits="userSpaceOnUse" color-interpolation-filters="sRGB">
      <feFlood flood-opacity="0" result="BackgroundImageFix"/>
      <feGaussianBlur in="BackgroundImageFix" stdDeviation="20"/>
      <feComposite in2="SourceAlpha" operator="in" result="effect1_backgroundBlur_1352_99"/>
      <feBlend mode="normal" in="SourceGraphic" in2="effect1_backgroundBlur_1352_99" result="shape"/>
      <feColorMatrix in="SourceAlpha" type="matrix" values="0 0 0 0 0 0 0 0 0 0 0 0 0 0 0 0 0 0 127 0" result="hardAlpha"/>
      <feOffset dy="2"/>
      <feGaussianBlur stdDeviation="3.15"/>
      <feComposite in2="hardAlpha" operator="arithmetic" k2="-1" k3="1"/>
      <feColorMatrix type="matrix" values="0 0 0 0 0 0 0 0 0 0 0 0 0 0 0 0 0 0 0.2 0"/>
      <feBlend mode="normal" in2="shape" result="effect2_innerShadow_1352_99"/>
    </filter>
    <linearGradient id="paint0_linear_1352_99" x1="312.745" y1="62.7771" x2="312.745" y2="0.288818" gradientUnits="userSpaceOnUse">
      <stop stop-color="#55558E"/>
      <stop offset="1" stop-color="#23234D"/>
    </linearGradient>
  </defs>
</svg>