<svg width="210" height="210" viewBox="0 0 210 210" fill="none" xmlns="http://www.w3.org/2000/svg">
<g id="Group 482211">
<g id="Ellipse 38">
<g filter="url(#filter0_i_1307_353)">
<circle cx="104.956" cy="105.242" r="104.612" fill="#13112D" fill-opacity="0.5"/>
</g>
<circle cx="104.956" cy="105.242" r="104.362" stroke="url(#paint0_linear_1307_353)" stroke-width="0.5"/>
</g>
<g id="Ellipse 39" filter="url(#filter1_d_1307_353)">
<circle cx="104.96" cy="105.242" r="95.4292" fill="url(#paint1_linear_1307_353)"/>
<circle cx="104.96" cy="105.242" r="95.1792" stroke="url(#paint2_linear_1307_353)" stroke-width="0.5"/>
</g>
<g id="Vector">
<path d="M116.727 125.485C117.347 126.463 117.803 127.181 118.26 127.931C119.335 129.757 119.335 131.55 118.064 133.278C111.282 142.538 102.479 149.091 91.4909 152.515C82.492 155.319 73.2974 156.525 64.0376 154.438C60.1576 153.558 56.5711 153.362 52.8216 154.634C51.3869 155.123 49.8545 155.319 48.3547 155.514C45.192 155.906 42.5836 153.949 42.1598 150.885C41.7685 148.048 43.6922 145.505 46.6592 144.853C49.3654 144.266 52.039 143.581 54.7452 143.027C55.8864 142.799 56.5059 142.179 57.0276 141.201C59.6686 136.278 62.277 131.322 65.0484 126.496C66.3852 124.149 68.0806 121.997 69.6783 119.779C71.0151 117.921 72.8409 117.269 75.1233 117.888C76.1992 118.182 77.3404 118.345 78.7424 118.638C78.0903 117.465 77.536 116.617 77.0796 115.704C76.0362 113.748 76.0036 111.759 77.5686 110.096C84.3505 102.955 88.1978 94.1847 91.4909 85.1205C92.1756 83.2294 92.8603 81.3383 93.545 79.4799C94.3275 77.3606 95.86 76.2846 98.0771 76.1542C99.4139 76.0564 100.718 75.9259 102.511 75.7629C101.598 74.9152 100.979 74.3935 100.457 73.8066C98.8596 72.046 98.6314 69.6658 100.066 67.8399C104.533 62.2319 109.913 57.7976 116.89 55.4827C121.161 54.0807 124.78 54.961 127.943 58.0911C131.954 62.0363 134.497 66.8292 136.42 72.0134C137.953 76.1542 138.866 80.458 138.964 84.8923C139.061 89.4244 137.888 90.859 133.421 91.8697C133.03 91.9675 132.638 92.0979 131.954 92.2936C132.801 92.9131 133.421 93.4021 134.105 93.826C136.877 95.6519 137.496 97.1191 136.583 100.282C134.399 107.781 130.78 114.628 126.835 121.345C124.617 125.094 121.911 126.627 117.705 125.42C117.477 125.453 117.249 125.485 116.727 125.485ZM65.4396 151.276C65.2766 151.178 65.407 151.276 65.5375 151.341C65.8635 151.439 66.1569 151.504 66.483 151.537C86.0459 153.46 102.446 147.624 114.803 131.811C115.521 130.898 115.553 130.18 114.934 129.202C113.923 127.605 113.01 125.942 112.26 124.181C111.967 123.496 111.999 122.355 112.391 121.801C112.717 121.345 113.858 121.279 114.575 121.377C116.499 121.605 118.423 122.127 120.346 122.29C121.031 122.355 122.107 121.899 122.466 121.345C127.095 114.53 130.812 107.259 133.16 99.3362C133.519 98.1951 133.193 97.5756 132.247 96.8909C130.421 95.5541 128.66 94.0868 127.03 92.5218C126.574 92.098 126.248 91.022 126.476 90.5329C126.737 89.946 127.617 89.457 128.302 89.2939C130.03 88.8375 131.791 88.5766 133.551 88.2832C134.855 88.055 135.312 87.3702 135.344 86.066C135.41 80.0015 133.747 74.3609 131.138 68.9811C129.41 65.3946 127.356 62.0037 124.063 59.5583C122.694 58.5475 121.194 58.1237 119.466 58.5149C112.488 60.1126 107.402 64.449 102.935 69.731C102.251 70.5461 102.577 71.2634 103.294 71.8503C104.565 72.8937 105.837 73.8718 107.109 74.9152C108.576 76.1216 108.315 77.654 106.489 78.2083C104.957 78.6974 103.261 79.4799 101.761 79.2842C97.3598 78.73 96.349 81.4362 95.1753 84.7945C91.7518 94.7389 87.6762 104.39 80.3075 112.215C79.9488 112.606 79.9162 113.715 80.177 114.204C81.0248 115.769 82.1659 117.204 83.0137 118.736C83.4049 119.453 83.8288 120.529 83.5679 121.214C83.3723 121.736 82.1659 122.225 81.4486 122.16C79.1337 122.029 76.8187 121.736 74.5364 121.345C73.3952 121.149 72.6779 121.312 72.0584 122.29C70.0695 125.322 67.9176 128.289 66.0591 131.387C64.2985 134.321 62.7986 137.419 61.1358 140.581C61.5923 140.614 61.7227 140.647 61.7879 140.614C80.4705 133.147 94.0341 120.301 102.153 101.847C103.49 98.782 104.435 95.5215 105.609 92.3588C106.783 89.1309 109.913 87.7615 112.978 89.0331C115.684 90.1743 116.76 92.9457 115.716 96.3366C109.619 116.128 98.1749 131.974 80.6009 143.092C75.7754 146.189 70.4608 148.602 65.4396 151.276ZM47.3765 152.384C47.507 152.287 47.6048 152.189 47.7352 152.091C47.8982 152.058 48.0612 152.026 48.2243 151.993C72.1888 147.461 91.0671 135.299 104.011 114.432C107.761 108.368 110.532 101.814 112.554 94.9672C112.945 93.6956 112.749 92.6196 111.38 92.1958C110.043 91.7719 109.228 92.5218 108.902 93.826C108.771 94.3477 108.543 94.8694 108.38 95.3584C99.3487 122.518 80.8291 139.538 53.3106 146.939C51.3217 147.461 49.2676 147.787 47.2787 148.276C46.2028 148.537 45.3876 149.287 45.7463 150.363C45.9419 151.178 46.7897 151.732 47.3765 152.384Z" fill="url(#paint3_linear_1307_353)"/>
<path d="M62.277 100.282C61.2662 99.2058 60.3207 98.5863 59.9294 97.7386C59.2447 96.3366 58.9513 94.7715 58.4296 93.2717C57.3862 90.1091 55.2017 88.055 52.0716 87.0116C50.6696 86.5551 49.2676 86.1639 47.8982 85.7074C46.757 85.3487 46.0397 84.5988 46.0071 83.3598C45.9745 82.023 46.7244 81.2405 47.9308 80.8493C49.4307 80.3602 50.9305 79.9363 52.4303 79.4147C55.3647 78.3713 57.3862 76.3498 58.4296 73.4154C58.9513 71.9481 59.3751 70.4157 59.8642 68.9159C60.2555 67.7095 61.038 66.9596 62.3748 66.9922C63.6138 67.0248 64.3637 67.7421 64.7223 68.8833C65.1462 70.2201 65.5701 71.5569 65.9939 72.9263C67.0047 76.1542 69.0914 78.3387 72.2867 79.4473C73.6561 79.9037 75.0581 80.3276 76.4601 80.7841C77.6991 81.1753 78.612 81.9578 78.5794 83.3272C78.5468 84.6966 77.6339 85.4466 76.3949 85.8378C75.0581 86.2617 73.6887 86.6203 72.3519 87.0768C69.2218 88.1528 67.1025 90.2395 66.0591 93.4021C65.5701 94.8368 65.2766 96.3692 64.6571 97.706C64.2007 98.5537 63.2877 99.2058 62.277 100.282ZM62.3096 73.1545C59.8968 79.0886 59.0491 79.9689 52.2999 83.3925C57.3862 84.9249 60.6467 88.1854 62.3096 93.6956C63.8746 88.0876 67.2329 84.9575 72.5475 83.2946C67.1351 81.6644 63.8746 78.4365 62.3096 73.1545Z" fill="url(#paint4_linear_1307_353)"/>
<path d="M137.725 153.558C135.834 153.526 135.149 152.743 134.79 151.634C134.399 150.493 134.105 149.352 133.714 148.211C132.834 145.472 130.975 143.711 128.269 142.864C127.128 142.505 125.889 142.342 124.878 141.755C124.096 141.299 123.183 140.288 123.183 139.538C123.183 138.756 124.096 137.745 124.846 137.288C125.889 136.669 127.193 136.506 128.4 136.115C131.041 135.234 132.866 133.506 133.714 130.833C134.073 129.691 134.399 128.55 134.79 127.409C135.181 126.235 135.931 125.388 137.268 125.453C138.507 125.518 139.192 126.3 139.55 127.442C139.616 127.702 139.714 127.963 139.779 128.224C140.724 133.278 143.822 136.082 148.778 136.995C150.18 137.256 151.256 137.973 151.223 139.571C151.19 141.07 150.114 141.69 148.81 142.016C147.865 142.277 146.952 142.603 146.006 142.896C143.267 143.744 141.474 145.57 140.561 148.276C140.17 149.45 139.974 150.721 139.387 151.83C138.964 152.613 138.116 153.199 137.725 153.558ZM137.138 147.233C138.54 143.385 140.985 140.907 144.898 139.473C140.985 138.071 138.572 135.56 137.138 131.713C135.768 135.658 133.193 138.038 129.41 139.505C133.388 140.94 135.768 143.451 137.138 147.233Z" fill="url(#paint5_linear_1307_353)"/>
<path d="M167.721 80.0994C167.036 80.9471 166.58 81.5992 166.026 82.1535C165.797 82.3817 165.341 82.4795 164.982 82.5447C160.907 83.3272 158.461 85.6748 157.744 89.8156C157.548 91.0546 156.831 92.0979 155.396 92.0979C153.962 92.0979 153.342 91.1198 152.984 89.8482C152.755 89.0005 152.495 88.1854 152.201 87.3702C151.516 85.3487 150.114 83.9793 148.093 83.2946C147.05 82.936 145.941 82.8056 145.028 82.2513C144.343 81.8274 143.593 80.9471 143.561 80.2298C143.528 79.5451 144.278 78.5995 144.93 78.1431C145.648 77.6214 146.626 77.491 147.506 77.2301C149.984 76.5128 151.68 75.013 152.364 72.4698C152.56 71.6873 152.853 70.9374 153.114 70.1549C153.44 69.0463 154.06 68.329 155.299 68.2964C156.603 68.2638 157.288 68.9485 157.646 70.1223C157.907 71.0026 158.2 71.8829 158.461 72.7633C159.211 75.1434 160.841 76.578 163.189 77.2301C164.069 77.491 165.015 77.654 165.797 78.1105C166.482 78.5343 167.004 79.3168 167.721 80.0994ZM160.124 80.1646C158.624 78.6648 156.896 76.9041 155.364 75.4043C153.897 76.9041 152.169 78.6321 150.604 80.1972C152.136 81.7296 153.864 83.4577 155.364 84.9575C156.864 83.4577 158.559 81.7296 160.124 80.1646Z" fill="url(#paint6_linear_1307_353)"/>
</g>
</g>
<defs>
<filter id="filter0_i_1307_353" x="0.34375" y="0.629761" width="209.724" height="209.724" filterUnits="userSpaceOnUse" color-interpolation-filters="sRGB">
<feFlood flood-opacity="0" result="BackgroundImageFix"/>
<feBlend mode="normal" in="SourceGraphic" in2="BackgroundImageFix" result="shape"/>
<feColorMatrix in="SourceAlpha" type="matrix" values="0 0 0 0 0 0 0 0 0 0 0 0 0 0 0 0 0 0 127 0" result="hardAlpha"/>
<feOffset dx="0.5" dy="0.5"/>
<feGaussianBlur stdDeviation="3.45"/>
<feComposite in2="hardAlpha" operator="arithmetic" k2="-1" k3="1"/>
<feColorMatrix type="matrix" values="0 0 0 0 0 0 0 0 0 0 0 0 0 0 0 0 0 0 0.15 0"/>
<feBlend mode="normal" in2="shape" result="effect1_innerShadow_1307_353"/>
</filter>
<filter id="filter1_d_1307_353" x="2.13125" y="2.41287" width="206.658" height="206.658" filterUnits="userSpaceOnUse" color-interpolation-filters="sRGB">
<feFlood flood-opacity="0" result="BackgroundImageFix"/>
<feColorMatrix in="SourceAlpha" type="matrix" values="0 0 0 0 0 0 0 0 0 0 0 0 0 0 0 0 0 0 127 0" result="hardAlpha"/>
<feOffset dx="0.5" dy="0.5"/>
<feGaussianBlur stdDeviation="3.95"/>
<feComposite in2="hardAlpha" operator="out"/>
<feColorMatrix type="matrix" values="0 0 0 0 0 0 0 0 0 0 0 0 0 0 0 0 0 0 0.15 0"/>
<feBlend mode="normal" in2="BackgroundImageFix" result="effect1_dropShadow_1307_353"/>
<feBlend mode="normal" in="SourceGraphic" in2="effect1_dropShadow_1307_353" result="shape"/>
</filter>
<linearGradient id="paint0_linear_1307_353" x1="104.956" y1="0.629761" x2="104.956" y2="209.854" gradientUnits="userSpaceOnUse">
<stop stop-color="#242053"/>
<stop offset="1" stop-color="#1F1C42"/>
</linearGradient>
<linearGradient id="paint1_linear_1307_353" x1="94.9356" y1="9.81287" x2="94.9356" y2="221.213" gradientUnits="userSpaceOnUse">
<stop stop-color="#1B173F"/>
<stop offset="1" stop-color="#161435"/>
</linearGradient>
<linearGradient id="paint2_linear_1307_353" x1="104.96" y1="9.81287" x2="104.96" y2="200.671" gradientUnits="userSpaceOnUse">
<stop stop-color="#383183"/>
<stop offset="0.985702" stop-color="#221E4F"/>
</linearGradient>
<linearGradient id="paint3_linear_1307_353" x1="42.1094" y1="155.564" x2="167.721" y2="155.564" gradientUnits="userSpaceOnUse">
<stop stop-color="#6BADFC"/>
<stop offset="1" stop-color="#B767B9"/>
</linearGradient>
<linearGradient id="paint4_linear_1307_353" x1="42.1094" y1="155.564" x2="167.721" y2="155.564" gradientUnits="userSpaceOnUse">
<stop stop-color="#6BADFC"/>
<stop offset="1" stop-color="#B767B9"/>
</linearGradient>
<linearGradient id="paint5_linear_1307_353" x1="42.1094" y1="155.564" x2="167.721" y2="155.564" gradientUnits="userSpaceOnUse">
<stop stop-color="#6BADFC"/>
<stop offset="1" stop-color="#B767B9"/>
</linearGradient>
<linearGradient id="paint6_linear_1307_353" x1="42.1094" y1="155.564" x2="167.721" y2="155.564" gradientUnits="userSpaceOnUse">
<stop stop-color="#6BADFC"/>
<stop offset="1" stop-color="#B767B9"/>
</linearGradient>
</defs>
</svg>
