<svg width="210" height="210" viewBox="0 0 210 210" fill="none" xmlns="http://www.w3.org/2000/svg">
<g id="Group 482211">
<g id="Ellipse 38">
<g filter="url(#filter0_i_1307_371)">
<circle cx="105.204" cy="105.242" r="104.612" fill="#13112D" fill-opacity="0.5"/>
</g>
<circle cx="105.204" cy="105.242" r="104.362" stroke="url(#paint0_linear_1307_371)" stroke-width="0.5"/>
</g>
<g id="Ellipse 39" filter="url(#filter1_d_1307_371)">
<circle cx="105.209" cy="105.242" r="95.4292" fill="url(#paint1_linear_1307_371)"/>
<circle cx="105.209" cy="105.242" r="95.1792" stroke="url(#paint2_linear_1307_371)" stroke-width="0.5"/>
</g>
<g id="Vector">
<path d="M130.94 94.6568C132.846 93.1707 134.849 93.623 136.788 93.9138C137.273 93.9784 137.693 94.7215 138.016 95.2707C138.242 95.6261 138.274 96.1107 138.306 96.5307C138.436 98.9538 139.437 100.569 141.99 101.215C142.959 101.474 143.637 101.668 144.445 100.989C145.026 100.505 145.705 100.182 146.351 99.7615C148.516 98.4046 148.903 98.4369 150.648 100.182C151.779 101.312 152.91 102.508 154.073 103.606C155.107 104.608 155.139 105.642 154.396 106.772C154.202 107.095 154.04 107.451 153.782 107.709C152.199 109.454 152.037 111.199 153.2 113.331C153.782 114.365 154.396 114.785 155.43 115.043C160.114 116.142 160.05 115.269 160.05 120.891C160.05 126.416 160.05 125.543 155.462 126.642C152.942 127.256 151.585 130.648 153.039 132.813C155.817 136.98 155.462 136.625 152.263 139.856C148.419 143.733 149.065 143.83 144.51 140.696C143.088 139.726 142.248 140.599 141.15 140.89C139.599 141.31 138.662 142.182 138.597 143.862C138.565 144.67 138.371 145.477 138.08 146.22C137.822 146.802 137.337 147.674 136.853 147.739C134.946 148.062 132.943 148.482 130.973 147.028C130.973 149.16 130.973 151.163 130.973 153.167C130.94 159.402 126.869 163.505 120.666 163.505C106.838 163.505 92.9784 163.505 79.1506 163.505C73.0443 163.505 68.9412 159.37 68.9089 153.263C68.9089 144.702 68.9089 136.14 68.9089 127.579C68.9089 127.256 68.8766 126.933 68.9412 126.609C69.0705 125.511 69.6843 124.768 70.8151 124.768C72.0105 124.736 72.6567 125.511 72.7859 126.674C72.8182 127.094 72.7859 127.546 72.7859 127.966C72.7859 136.302 72.7859 144.67 72.7859 153.005C72.7859 157.334 75.0474 159.628 79.3444 159.628C93.0753 159.628 106.806 159.628 120.537 159.628C124.834 159.628 127.063 157.334 127.096 153.005C127.096 132.069 127.096 111.102 127.096 90.166C127.096 89.746 127.096 89.2937 127.096 88.8737C127.096 86.9029 127.742 85.9337 129.066 85.966C130.326 85.9983 130.973 86.9352 130.973 88.8091C130.94 90.683 130.94 92.5568 130.94 94.6568ZM148.096 103.251C146.9 103.994 145.834 104.866 144.606 105.383C143.863 105.706 142.83 105.738 142.086 105.512C140.471 104.995 138.92 104.188 137.337 103.606C136.206 103.186 135.56 102.54 135.366 101.312C135.173 100.052 134.817 98.8246 134.591 97.8876C133.169 97.5322 132.071 97.2415 131.069 96.983C131.069 100.925 131.069 105.092 131.069 109.228C131.586 109.228 131.942 109.228 132.329 109.228C140.342 109.066 145.996 116.045 144.122 123.799C143.314 127.094 141.279 129.549 138.274 131.165C137.143 131.779 136.013 131.843 135.334 130.616C134.688 129.453 135.108 128.419 136.336 127.805C136.723 127.611 137.079 127.385 137.434 127.126C140.471 124.929 141.473 120.762 139.825 117.466C138.145 114.139 134.333 112.394 131.037 113.525C131.005 113.783 130.973 114.042 130.973 114.3C130.973 124.509 130.973 134.751 130.973 144.799C132.136 144.508 133.299 144.217 134.623 143.894C134.849 142.893 135.205 141.697 135.366 140.47C135.56 139.177 136.271 138.531 137.466 138.111C138.985 137.594 140.471 136.98 141.925 136.269C142.959 135.753 143.831 135.72 144.8 136.366C145.899 137.11 147.062 137.788 147.837 138.273C148.807 137.433 149.614 136.754 150.454 136.011C149.743 134.913 148.903 133.879 148.419 132.716C148.096 131.94 148.031 130.874 148.29 130.034C148.742 128.451 149.582 126.965 150.131 125.414C150.519 124.316 151.133 123.572 152.36 123.379C153.62 123.185 154.88 122.829 156.14 122.539C156.14 121.408 156.14 120.406 156.14 119.276C154.913 118.985 153.75 118.629 152.522 118.468C151.165 118.274 150.487 117.499 150.067 116.239C149.582 114.785 149 113.331 148.29 111.942C147.74 110.843 147.74 109.939 148.451 108.937C149.194 107.871 149.84 106.772 150.583 105.577C149.711 104.769 148.968 104.091 148.096 103.251Z" fill="url(#paint3_linear_1307_371)"/>
<path d="M76.5013 120.859C61.6073 120.859 49.4272 108.614 49.4595 93.623C49.4918 78.6967 61.7043 66.5166 76.6628 66.5489C91.6214 66.5812 103.769 78.7613 103.769 93.7199C103.769 108.743 91.5891 120.859 76.5013 120.859ZM94.3676 108.452C101.411 100.892 102.509 86.2891 92.6553 76.8552C82.9952 67.6474 67.6489 68.4228 58.9581 78.5675C50.3642 88.5829 52.8196 102.475 58.9581 108.355C61.3812 104.382 64.8381 101.829 69.5228 101.538C74.2397 101.248 78.989 101.377 83.7383 101.538C85.2568 101.603 86.7752 102.185 88.2291 102.766C90.9107 103.865 92.8168 105.997 94.3676 108.452ZM61.8335 111.392C70.072 119.049 84.9337 118.015 91.363 111.295C89.5537 107.418 86.4845 105.415 82.1875 105.351C78.4721 105.318 74.7567 105.318 71.0413 105.351C66.7443 105.383 63.7073 107.418 61.8335 111.392Z" fill="url(#paint4_linear_1307_371)"/>
<path d="M130.908 82.0567C127.192 82.0567 123.477 82.0567 119.762 82.0567C115.045 82.0244 111.555 78.7613 111.555 74.3351C111.523 69.8443 115.045 66.5489 119.826 66.5489C127.257 66.5489 134.688 66.5489 142.119 66.5489C146.836 66.5489 150.293 69.8443 150.325 74.2705C150.357 78.7613 146.836 82.0567 142.054 82.089C138.339 82.089 134.623 82.0567 130.908 82.0567ZM130.94 70.4259C127.225 70.4259 123.509 70.4259 119.794 70.4259C117.242 70.4259 115.497 71.9767 115.432 74.2059C115.368 76.4998 117.177 78.1475 119.794 78.1475C127.225 78.1475 134.656 78.1475 142.086 78.1475C144.703 78.1475 146.48 76.4675 146.448 74.2059C146.383 71.9767 144.639 70.4259 142.086 70.4259C138.371 70.4259 134.656 70.4259 130.94 70.4259Z" fill="url(#paint5_linear_1307_371)"/>
<path d="M99.9892 47.1641C106.838 47.1641 113.688 47.1641 120.505 47.1641C126.869 47.1641 130.908 51.2026 130.94 57.535C130.94 58.5689 130.973 59.5704 130.94 60.6043C130.908 61.7996 130.262 62.6074 129.066 62.6397C127.774 62.672 127.128 61.8643 127.063 60.6043C127.031 59.4089 127.063 58.2458 127.031 57.0504C126.966 53.5611 124.576 51.1057 121.151 51.0734C106.968 51.0411 92.8168 51.0411 78.6336 51.0734C75.1767 51.0734 72.8182 53.5611 72.7536 57.0504C72.7213 58.2458 72.7859 59.4089 72.7213 60.6043C72.689 61.8643 72.0105 62.672 70.7182 62.6397C69.5228 62.6074 68.8766 61.7996 68.8766 60.6043C68.8443 59.0535 68.7797 57.4704 68.9089 55.9196C69.3935 50.8796 73.4967 47.1964 78.6336 47.1641C85.7737 47.1318 92.8814 47.1641 99.9892 47.1641Z" fill="url(#paint6_linear_1307_371)"/>
<path d="M100.054 128.58C105.385 128.58 110.715 128.58 116.046 128.58C116.434 128.58 116.789 128.58 117.177 128.58C118.437 128.645 119.277 129.259 119.245 130.551C119.212 131.843 118.34 132.425 117.08 132.457C115.949 132.489 114.819 132.457 113.688 132.457C103.737 132.457 93.7861 132.457 83.8029 132.457C83.3829 132.457 82.9306 132.489 82.5106 132.457C81.3152 132.393 80.5398 131.779 80.5075 130.551C80.4752 129.259 81.3152 128.645 82.5752 128.58C82.9629 128.548 83.3183 128.58 83.706 128.58C89.1983 128.58 94.6261 128.58 100.054 128.58Z" fill="url(#paint7_linear_1307_371)"/>
<path d="M96.1768 144.12C100.474 144.12 104.803 144.12 109.1 144.12C110.392 144.12 111.329 144.573 111.491 145.962C111.652 147.19 110.651 147.997 109.003 148.03C104.092 148.03 99.2138 148.03 94.303 148.03C90.6522 148.03 86.9691 148.03 83.3183 148.03C81.4444 148.03 80.5075 147.383 80.5075 146.123C80.4752 144.831 81.4121 144.153 83.2537 144.153C87.5829 144.088 91.8799 144.088 96.1768 144.12Z" fill="url(#paint8_linear_1307_371)"/>
<path d="M90.3614 136.334C92.7199 136.334 95.1107 136.302 97.4692 136.334C99.0199 136.334 99.9892 137.11 99.86 138.305C99.7307 139.694 98.8261 140.211 97.5338 140.211C92.6553 140.211 87.7445 140.211 82.866 140.211C81.5736 140.211 80.669 139.694 80.5398 138.305C80.4429 137.11 81.3798 136.334 82.9629 136.334C85.4183 136.334 87.906 136.334 90.3614 136.334Z" fill="url(#paint9_linear_1307_371)"/>
<path d="M99.86 54.9181C101.702 54.9181 103.511 54.9181 105.352 54.9181C106.677 54.9181 107.614 55.4996 107.614 56.8565C107.614 58.2458 106.645 58.795 105.352 58.795C101.734 58.795 98.1476 58.795 94.5291 58.795C93.2368 58.795 92.2999 58.3104 92.1707 56.9211C92.0414 55.7258 93.0107 54.9504 94.5291 54.9181C96.3061 54.8857 98.083 54.9181 99.86 54.9181Z" fill="url(#paint10_linear_1307_371)"/>
<path d="M61.0904 130.034C61.0581 131.359 60.1535 132.263 59.0227 132.199C57.8596 132.134 57.2458 131.488 57.2134 130.357C57.1811 129.129 58.0211 128.225 59.1519 128.225C60.4119 128.257 60.9612 129.065 61.0904 130.034Z" fill="url(#paint11_linear_1307_371)"/>
<path d="M61.0904 137.756C61.0904 139.08 60.1858 139.985 59.055 139.953C57.8919 139.92 57.2458 139.306 57.2458 138.143C57.2458 136.916 57.795 136.043 59.1519 136.011C60.3796 135.979 60.9289 136.786 61.0904 137.756Z" fill="url(#paint12_linear_1307_371)"/>
<path d="M58.9581 147.739C57.8596 147.674 57.2134 147.028 57.2458 145.8C57.2781 144.637 57.8596 143.83 59.1196 143.797C60.3473 143.765 60.9935 144.508 61.0904 145.671C61.1873 146.77 60.2181 147.739 58.9581 147.739Z" fill="url(#paint13_linear_1307_371)"/>
<path d="M76.5659 97.5646C71.2028 97.5323 66.8735 93.1061 66.9381 87.7429C67.0028 82.4444 71.3643 78.1475 76.6951 78.1798C82.0583 78.2121 86.4198 82.6383 86.3229 88.0014C86.2583 93.2999 81.8967 97.5969 76.5659 97.5646ZM76.5336 93.6876C79.6675 93.7199 82.3167 91.1999 82.4137 88.0337C82.5106 84.8352 79.8936 82.1214 76.6951 82.0567C73.5613 82.0244 70.912 84.5444 70.8151 87.7106C70.7182 90.9091 73.3351 93.623 76.5336 93.6876Z" fill="url(#paint14_linear_1307_371)"/>
</g>
</g>
<defs>
<filter id="filter0_i_1307_371" x="0.592285" y="0.629761" width="209.724" height="209.724" filterUnits="userSpaceOnUse" color-interpolation-filters="sRGB">
<feFlood flood-opacity="0" result="BackgroundImageFix"/>
<feBlend mode="normal" in="SourceGraphic" in2="BackgroundImageFix" result="shape"/>
<feColorMatrix in="SourceAlpha" type="matrix" values="0 0 0 0 0 0 0 0 0 0 0 0 0 0 0 0 0 0 127 0" result="hardAlpha"/>
<feOffset dx="0.5" dy="0.5"/>
<feGaussianBlur stdDeviation="3.45"/>
<feComposite in2="hardAlpha" operator="arithmetic" k2="-1" k3="1"/>
<feColorMatrix type="matrix" values="0 0 0 0 0 0 0 0 0 0 0 0 0 0 0 0 0 0 0.15 0"/>
<feBlend mode="normal" in2="shape" result="effect1_innerShadow_1307_371"/>
</filter>
<filter id="filter1_d_1307_371" x="2.37979" y="2.41287" width="206.658" height="206.658" filterUnits="userSpaceOnUse" color-interpolation-filters="sRGB">
<feFlood flood-opacity="0" result="BackgroundImageFix"/>
<feColorMatrix in="SourceAlpha" type="matrix" values="0 0 0 0 0 0 0 0 0 0 0 0 0 0 0 0 0 0 127 0" result="hardAlpha"/>
<feOffset dx="0.5" dy="0.5"/>
<feGaussianBlur stdDeviation="3.95"/>
<feComposite in2="hardAlpha" operator="out"/>
<feColorMatrix type="matrix" values="0 0 0 0 0 0 0 0 0 0 0 0 0 0 0 0 0 0 0.15 0"/>
<feBlend mode="normal" in2="BackgroundImageFix" result="effect1_dropShadow_1307_371"/>
<feBlend mode="normal" in="SourceGraphic" in2="effect1_dropShadow_1307_371" result="shape"/>
</filter>
<linearGradient id="paint0_linear_1307_371" x1="105.204" y1="0.629761" x2="105.204" y2="209.854" gradientUnits="userSpaceOnUse">
<stop stop-color="#242053"/>
<stop offset="1" stop-color="#1F1C42"/>
</linearGradient>
<linearGradient id="paint1_linear_1307_371" x1="95.1841" y1="9.81287" x2="95.1841" y2="221.213" gradientUnits="userSpaceOnUse">
<stop stop-color="#1B173F"/>
<stop offset="1" stop-color="#161435"/>
</linearGradient>
<linearGradient id="paint2_linear_1307_371" x1="105.209" y1="9.81287" x2="105.209" y2="200.671" gradientUnits="userSpaceOnUse">
<stop stop-color="#383183"/>
<stop offset="0.985702" stop-color="#221E4F"/>
</linearGradient>
<linearGradient id="paint3_linear_1307_371" x1="32.6738" y1="163.505" x2="174.253" y2="163.505" gradientUnits="userSpaceOnUse">
<stop stop-color="#B567BA"/>
<stop offset="1" stop-color="#F6565B"/>
</linearGradient>
<linearGradient id="paint4_linear_1307_371" x1="32.6738" y1="163.505" x2="174.253" y2="163.505" gradientUnits="userSpaceOnUse">
<stop stop-color="#B567BA"/>
<stop offset="1" stop-color="#F6565B"/>
</linearGradient>
<linearGradient id="paint5_linear_1307_371" x1="32.6738" y1="163.505" x2="174.253" y2="163.505" gradientUnits="userSpaceOnUse">
<stop stop-color="#B567BA"/>
<stop offset="1" stop-color="#F6565B"/>
</linearGradient>
<linearGradient id="paint6_linear_1307_371" x1="32.6738" y1="163.505" x2="174.253" y2="163.505" gradientUnits="userSpaceOnUse">
<stop stop-color="#B567BA"/>
<stop offset="1" stop-color="#F6565B"/>
</linearGradient>
<linearGradient id="paint7_linear_1307_371" x1="32.6738" y1="163.505" x2="174.253" y2="163.505" gradientUnits="userSpaceOnUse">
<stop stop-color="#B567BA"/>
<stop offset="1" stop-color="#F6565B"/>
</linearGradient>
<linearGradient id="paint8_linear_1307_371" x1="32.6738" y1="163.505" x2="174.253" y2="163.505" gradientUnits="userSpaceOnUse">
<stop stop-color="#B567BA"/>
<stop offset="1" stop-color="#F6565B"/>
</linearGradient>
<linearGradient id="paint9_linear_1307_371" x1="32.6738" y1="163.505" x2="174.253" y2="163.505" gradientUnits="userSpaceOnUse">
<stop stop-color="#B567BA"/>
<stop offset="1" stop-color="#F6565B"/>
</linearGradient>
<linearGradient id="paint10_linear_1307_371" x1="32.6738" y1="163.505" x2="174.253" y2="163.505" gradientUnits="userSpaceOnUse">
<stop stop-color="#B567BA"/>
<stop offset="1" stop-color="#F6565B"/>
</linearGradient>
<linearGradient id="paint11_linear_1307_371" x1="32.6738" y1="163.505" x2="174.253" y2="163.505" gradientUnits="userSpaceOnUse">
<stop stop-color="#B567BA"/>
<stop offset="1" stop-color="#F6565B"/>
</linearGradient>
<linearGradient id="paint12_linear_1307_371" x1="32.6738" y1="163.505" x2="174.253" y2="163.505" gradientUnits="userSpaceOnUse">
<stop stop-color="#B567BA"/>
<stop offset="1" stop-color="#F6565B"/>
</linearGradient>
<linearGradient id="paint13_linear_1307_371" x1="32.6738" y1="163.505" x2="174.253" y2="163.505" gradientUnits="userSpaceOnUse">
<stop stop-color="#B567BA"/>
<stop offset="1" stop-color="#F6565B"/>
</linearGradient>
<linearGradient id="paint14_linear_1307_371" x1="32.6738" y1="163.505" x2="174.253" y2="163.505" gradientUnits="userSpaceOnUse">
<stop stop-color="#B567BA"/>
<stop offset="1" stop-color="#F6565B"/>
</linearGradient>
</defs>
</svg>
