<svg width="229" height="228" viewBox="0 0 229 228" fill="none" xmlns="http://www.w3.org/2000/svg">
<g id="Group 482212">
<g id="Ellipse 40">
<g filter="url(#filter0_i_1246_512)">
<circle cx="114.444" cy="114.2" r="113.608" fill="#13112D" fill-opacity="0.5"/>
</g>
<circle cx="114.444" cy="114.2" r="113.358" stroke="url(#paint0_linear_1246_512)" stroke-width="0.5"/>
</g>
<g id="Ellipse 41" filter="url(#filter1_d_1246_512)">
<circle cx="114.448" cy="114.2" r="103.636" fill="url(#paint1_linear_1246_512)"/>
<circle cx="114.448" cy="114.2" r="103.386" stroke="url(#paint2_linear_1246_512)" stroke-width="0.5"/>
</g>
<g id="Vector">
<path d="M129.679 149.214C129.848 149.417 129.984 149.62 130.153 149.755C133.131 152.733 136.108 155.711 139.052 158.689C139.391 159.027 139.662 159.061 140.101 158.892C143.384 157.64 147.208 159.535 148.223 162.851C149.306 166.371 147.309 170.025 143.824 170.905C139.492 172.022 135.465 168.57 135.905 164.137C135.939 163.663 136.041 163.19 136.244 162.784C136.481 162.276 136.379 162.005 136.007 161.633C132.521 158.181 129.07 154.696 125.584 151.244C125.415 151.075 125.111 150.872 124.975 150.94C124.806 151.007 124.671 151.312 124.603 151.549C124.062 153.681 123.486 155.847 122.979 157.978C122.877 158.418 122.607 158.554 122.167 158.554C120.644 158.52 119.121 158.554 117.598 158.554C117.125 158.554 116.922 158.689 116.955 159.197C116.989 160.313 116.989 161.43 116.955 162.547C116.955 162.987 117.125 163.19 117.497 163.393C119.967 164.679 121.287 166.709 121.118 169.484C120.948 172.123 119.527 173.984 117.057 174.966C114.722 175.879 112.522 175.473 110.661 173.815C108.8 172.157 108.123 170.059 108.699 167.623C109.172 165.66 110.391 164.272 112.184 163.393C112.59 163.19 112.725 162.953 112.725 162.547C112.692 161.43 112.692 160.313 112.725 159.197C112.725 158.723 112.59 158.587 112.116 158.587C110.594 158.621 109.071 158.587 107.548 158.621C106.973 158.621 106.77 158.418 106.668 157.877C106.161 155.711 105.619 153.579 105.01 151.447C104.942 151.177 104.604 150.872 104.299 150.771C101.66 149.992 99.0882 148.977 96.6857 147.59C96.1781 147.285 95.772 147.353 95.2982 147.657C93.5048 148.774 91.6436 149.823 89.8163 150.906C89.3087 151.211 89.038 151.143 88.6319 150.737C87.6506 149.688 86.5677 148.706 85.5864 147.657C85.2141 147.285 84.9773 147.217 84.5712 147.624C83.0146 149.214 81.458 150.771 79.8675 152.327C79.5291 152.666 79.5291 152.936 79.766 153.342C83.1499 159.467 80.1044 166.81 73.3366 168.739C67.6516 170.364 61.459 166.506 60.3084 160.652C59.2256 155.339 62.4403 149.857 67.8884 148.368C70.6632 147.624 73.3027 147.962 75.8068 149.383C76.3144 149.654 76.5851 149.62 76.9574 149.214C78.4801 147.657 80.0029 146.135 81.5595 144.612C81.9994 144.206 81.9656 143.935 81.5595 143.563C80.4766 142.548 79.4615 141.431 78.3786 140.416C78.0402 140.111 78.0402 139.841 78.2771 139.468C79.4276 137.573 80.5443 135.644 81.6949 133.749C81.9317 133.343 81.9656 133.005 81.7287 132.599C80.3751 130.162 79.2923 127.557 78.514 124.884C78.4463 124.579 78.0741 124.274 77.7695 124.173C75.6376 123.598 73.4719 123.056 71.34 122.515C70.8663 122.413 70.6971 122.176 70.6971 121.703C70.7309 120.214 70.6971 118.725 70.7309 117.202C70.7309 116.661 70.6294 116.458 70.0203 116.458C68.9374 116.491 67.8546 116.491 66.8056 116.458C66.3657 116.458 66.1288 116.559 65.8919 116.999C64.606 119.503 62.5418 120.823 59.7332 120.62C57.0937 120.417 55.2325 118.996 54.285 116.525C53.4052 114.19 53.8451 111.991 55.5032 110.13C57.1614 108.302 59.2256 107.626 61.662 108.201C63.6247 108.675 65.0121 109.893 65.8919 111.686C66.0949 112.092 66.298 112.228 66.7379 112.228C67.8207 112.194 68.9374 112.194 70.0203 112.228C70.5279 112.228 70.6971 112.092 70.6971 111.551C70.6632 110.062 70.6971 108.573 70.6632 107.05C70.6632 106.475 70.8663 106.272 71.4077 106.17C72.5583 105.934 73.6749 105.629 74.7916 105.324C74.927 105.291 75.0285 105.189 75.1977 105.088C75.0624 104.918 74.9608 104.749 74.8593 104.648C73.1335 102.922 71.3739 101.196 69.6481 99.4364C69.3435 99.098 69.0728 99.0303 68.5991 99.1995C65.3166 100.452 61.4928 98.5904 60.4776 95.2403C59.3609 91.7211 61.3913 88.0664 64.8767 87.1528C69.2082 86.0361 73.235 89.4877 72.7951 93.9206C72.7274 94.462 72.4906 94.9358 72.4229 95.4772C72.3891 95.7479 72.4229 96.1202 72.5582 96.2555C74.5548 98.2859 76.5851 100.282 78.5816 102.313C78.6155 102.347 78.6832 102.38 78.8185 102.448C78.92 102.279 79.0216 102.144 79.0892 102.008C79.9352 100.079 80.7812 98.1167 81.661 96.1878C81.8979 95.6802 81.9656 95.2742 81.6272 94.7666C80.5105 92.9731 79.4615 91.1119 78.3448 89.2846C78.0741 88.8109 78.0402 88.5063 78.4801 88.1002C79.563 87.0851 80.5782 86.036 81.6272 84.987C81.9994 84.6486 82.0333 84.4118 81.661 84.0395C76.5513 78.9636 71.4754 73.8877 66.3995 68.778C66.0949 68.4735 65.8242 68.4058 65.4182 68.6427C59.2594 72.0604 52.0178 69.0826 49.9874 62.3147C48.4308 57.1035 51.6456 51.1477 56.8907 49.5235C62.7449 47.73 68.6329 50.877 70.3249 56.7989C71.1032 59.5737 70.7309 62.2132 69.3097 64.7173C69.039 65.2249 69.1066 65.4956 69.4789 65.8678C74.5209 70.876 79.5291 75.8843 84.5374 80.9263C84.9773 81.3662 85.248 81.4339 85.6879 80.9263C86.6354 79.9111 87.6844 78.9636 88.6319 77.9485C89.0718 77.4747 89.4102 77.4409 89.9178 77.7793C91.7451 78.896 93.6063 79.9788 95.4336 81.0617C95.8058 81.2986 96.1104 81.3324 96.5165 81.1294C98.513 80.2157 100.577 79.3359 102.574 78.4561C102.709 78.3884 102.844 78.2869 103.115 78.0838C102.168 77.204 101.288 76.3919 100.408 75.5459C98.5468 73.6847 96.6518 71.8235 94.8245 69.9285C94.4861 69.5902 94.2154 69.5225 93.7078 69.6917C90.4254 70.9099 86.6016 69.0149 85.5864 65.6986C84.5374 62.1793 86.5 58.5247 89.9516 57.6787C94.2831 56.562 98.2423 59.8783 97.9039 64.3451C97.87 64.8865 97.5993 65.4279 97.5316 65.9694C97.4978 66.2401 97.5316 66.6461 97.7008 66.8153C100.205 69.3533 102.743 71.8912 105.281 74.3953C105.315 74.4292 105.382 74.463 105.552 74.5984C105.653 74.3615 105.755 74.1585 105.822 73.9216C106.127 72.8049 106.398 71.722 106.668 70.6053C106.77 70.1993 107.007 70.0639 107.447 70.0639C108.969 70.0977 110.492 70.0639 112.015 70.0977C112.522 70.0977 112.692 69.9624 112.692 69.421C112.658 66.9168 112.658 64.4127 112.692 61.9086C112.692 61.4349 112.522 61.2319 112.116 61.0288C109.612 59.7429 108.326 57.7126 108.529 54.9039C108.699 52.2644 110.154 50.4033 112.624 49.4558C114.959 48.576 117.158 48.982 119.02 50.6402C120.847 52.2644 121.524 54.3625 120.948 56.7989C120.475 58.7954 119.256 60.1828 117.429 61.0627C117.057 61.2657 116.922 61.4687 116.922 61.8748C116.922 64.4127 116.922 66.9169 116.922 69.4548C116.922 69.9285 117.057 70.0977 117.565 70.0977C119.087 70.0639 120.61 70.0977 122.133 70.0639C122.674 70.0639 122.877 70.2669 122.979 70.7745C123.52 72.9402 124.028 75.0721 124.637 77.204C124.705 77.5085 125.077 77.8131 125.381 77.9146C128.089 78.6929 130.66 79.7758 133.131 81.1294C133.537 81.3662 133.841 81.3324 134.213 81.0955C136.041 80.0127 137.868 78.9636 139.695 77.8469C140.271 77.5086 140.643 77.4747 141.117 77.9823C142.098 79.0313 143.113 80.0127 144.128 81.0278C144.467 81.3662 144.704 81.4678 145.076 81.0617C146.632 79.4712 148.223 77.8808 149.813 76.2903C150.152 75.9858 150.152 75.7151 149.915 75.309C146.497 69.1841 149.61 61.7394 156.344 59.8783C162.097 58.2878 168.188 62.1455 169.372 67.9997C170.421 73.2448 167.308 78.7606 161.759 80.2834C158.984 81.0278 156.344 80.6556 153.84 79.2344C153.366 78.9636 153.096 79.0313 152.757 79.3697C151.235 80.9263 149.678 82.4829 148.088 84.0395C147.681 84.4456 147.715 84.6825 148.088 85.0547C149.137 86.0699 150.152 87.1528 151.235 88.1679C151.641 88.5402 151.641 88.8447 151.37 89.3185C150.253 91.1458 149.204 93.0069 148.054 94.8343C147.749 95.308 147.749 95.6802 148.02 96.1878C149.373 98.5904 150.422 101.128 151.201 103.802C151.302 104.106 151.675 104.445 152.013 104.546C152.927 104.851 153.874 105.02 154.788 105.291C155.228 105.426 155.566 105.358 155.904 104.986C157.698 103.159 159.491 101.365 161.319 99.5718C161.657 99.2334 161.691 98.9627 161.522 98.5227C160.304 95.2403 162.131 91.4503 165.481 90.4013C168.966 89.2846 172.655 91.315 173.535 94.8004C174.618 99.098 171.301 103.057 166.902 102.719C166.361 102.685 165.819 102.414 165.278 102.347C164.973 102.313 164.567 102.347 164.364 102.55C162.672 104.174 161.048 105.832 159.39 107.49C159.187 107.693 159.051 107.998 159.051 108.268C159.018 109.385 159.051 110.502 159.018 111.619C159.018 112.058 159.187 112.194 159.593 112.16C162.131 112.16 164.703 112.16 167.241 112.16C167.647 112.16 167.85 112.025 168.019 111.652C169.237 109.25 171.166 107.964 173.873 107.964C176.851 107.964 179.389 110.197 179.964 113.277C180.472 115.984 178.847 118.962 176.242 120.078C173.095 121.432 169.609 120.146 168.087 117.101C167.816 116.525 167.511 116.39 166.902 116.39C164.533 116.424 162.131 116.424 159.762 116.39C159.153 116.39 158.95 116.525 158.95 117.168C158.984 118.623 158.95 120.112 158.984 121.601C158.984 122.143 158.781 122.346 158.307 122.447C156.141 122.989 154.009 123.496 151.878 124.105C151.573 124.173 151.235 124.545 151.167 124.816C150.389 127.489 149.34 130.061 147.952 132.497C147.715 132.937 147.715 133.276 147.986 133.716C149.103 135.577 150.186 137.438 151.336 139.299C151.607 139.773 151.607 140.044 151.201 140.416C150.118 141.431 149.103 142.514 148.02 143.563C147.681 143.901 147.681 144.138 148.02 144.477C153.13 149.552 158.205 154.628 163.281 159.738C163.62 160.076 163.89 160.11 164.297 159.84C170.354 156.422 177.9 159.569 179.727 166.303C181.284 172.089 177.46 178.113 171.572 179.297C166.361 180.346 160.811 177.199 159.322 171.649C158.578 168.908 158.95 166.269 160.337 163.799C160.608 163.325 160.574 163.054 160.202 162.648C155.194 157.64 150.186 152.632 145.177 147.657C144.534 147.014 144.534 147.014 143.891 147.691C142.91 148.673 141.895 149.654 140.914 150.669C140.541 151.075 140.237 151.075 139.763 150.804C137.936 149.688 136.075 148.605 134.247 147.488C133.774 147.184 133.401 147.184 132.894 147.454C131.912 148.131 130.83 148.639 129.679 149.214ZM154.822 114.36C154.822 113.006 154.822 111.652 154.822 110.299C154.822 109.859 154.72 109.656 154.246 109.521C152.317 109.047 150.389 108.539 148.494 107.998C148.189 107.93 147.817 107.592 147.749 107.321C146.869 103.328 145.313 99.5718 143.113 96.1202C142.842 95.6803 142.842 95.3419 143.113 94.9019C144.128 93.2777 145.076 91.6195 146.057 89.9614C146.328 89.5215 146.362 89.2169 145.922 88.8109C144.027 86.9497 142.166 85.0886 140.305 83.1936C139.932 82.7875 139.628 82.7536 139.154 83.0582C137.53 84.0395 135.905 84.987 134.281 85.9684C133.807 86.2729 133.435 86.3068 132.961 85.9684C129.51 83.7688 125.821 82.2461 121.828 81.3662C121.558 81.2986 121.219 80.9602 121.118 80.6556C120.576 78.7268 120.069 76.7641 119.595 74.8352C119.493 74.463 119.358 74.2938 118.952 74.2938C116.177 74.2938 113.436 74.2938 110.661 74.2938C110.255 74.2938 110.086 74.4292 109.984 74.8352C109.511 76.7979 109.003 78.7268 108.462 80.6556C108.394 80.9602 108.056 81.2986 107.785 81.3662C103.792 82.2799 100.036 83.8027 96.618 86.036C96.2119 86.3068 95.8735 86.3068 95.4674 86.0699C93.8093 85.0547 92.0835 84.0734 90.4254 83.0582C90.0193 82.8213 89.7486 82.8552 89.4102 83.1936C87.5491 85.0886 85.6541 86.9836 83.7591 88.8447C83.353 89.2169 83.353 89.5215 83.6237 89.9953C84.605 91.6195 85.5525 93.2438 86.5339 94.8681C86.8384 95.3419 86.8384 95.7141 86.5339 96.1878C84.3343 99.6394 82.8116 103.328 81.9317 107.321C81.8641 107.592 81.4918 107.93 81.2211 107.998C79.3261 108.539 77.3973 109.047 75.4684 109.521C75.0285 109.622 74.8593 109.791 74.8593 110.265C74.8932 112.972 74.8593 115.679 74.8593 118.386C74.8593 118.792 74.9608 118.996 75.4008 119.097C77.3634 119.571 79.2923 120.078 81.2211 120.62C81.4918 120.687 81.8641 121.026 81.9317 121.33C82.8116 125.323 84.3682 129.012 86.5339 132.464C86.8384 132.903 86.8384 133.276 86.5677 133.716C85.5864 135.34 84.6389 136.964 83.6575 138.588C83.3868 139.062 83.353 139.367 83.7929 139.773C85.6879 141.6 87.5491 143.495 89.4102 145.39C89.8163 145.796 90.087 145.796 90.5269 145.526C92.1174 144.544 93.7416 143.631 95.3321 142.649C95.8735 142.311 96.2458 142.311 96.7872 142.649C100.171 144.815 103.86 146.338 107.785 147.184C108.225 147.285 108.462 147.488 108.563 147.962C109.037 149.925 109.578 151.853 110.052 153.782C110.154 154.188 110.357 154.29 110.729 154.29C113.47 154.29 116.211 154.29 118.952 154.29C119.324 154.29 119.527 154.222 119.629 153.816C120.102 151.853 120.644 149.925 121.118 147.996C121.219 147.556 121.422 147.319 121.862 147.217C125.855 146.372 129.577 144.815 132.995 142.615C133.469 142.311 133.807 142.345 134.247 142.615C135.872 143.597 137.53 144.578 139.188 145.559C139.628 145.83 139.898 145.796 140.271 145.424C142.132 143.529 144.027 141.634 145.922 139.773C146.294 139.401 146.328 139.13 146.057 138.69C145.076 137.066 144.162 135.408 143.147 133.817C142.809 133.276 142.842 132.903 143.181 132.362C145.347 128.944 146.869 125.29 147.715 121.364C147.817 120.924 148.054 120.721 148.494 120.62C150.422 120.146 152.317 119.605 154.246 119.131C154.72 119.029 154.822 118.792 154.822 118.353C154.788 117.033 154.822 115.679 154.822 114.36ZM159.018 76.4257C162.469 76.4257 165.312 73.5832 165.312 70.1316C165.312 66.68 162.469 63.8375 159.051 63.8036C155.566 63.8036 152.724 66.6461 152.724 70.0977C152.724 73.5832 155.6 76.4257 159.018 76.4257ZM163.248 169.01C163.248 172.462 166.056 175.338 169.474 175.338C172.926 175.372 175.802 172.529 175.836 169.112C175.87 165.626 173.027 162.75 169.542 162.75C166.124 162.75 163.281 165.592 163.248 169.01ZM53.8113 59.5737C53.8113 63.0253 56.6199 65.8678 60.0716 65.9017C63.5232 65.9017 66.3995 63.093 66.3995 59.6752C66.4333 56.1898 63.5908 53.3135 60.1054 53.3135C56.6876 53.3135 53.8451 56.156 53.8113 59.5737ZM76.9235 158.554C76.9235 155.102 74.081 152.26 70.6632 152.226C67.2116 152.226 64.3353 155.034 64.3353 158.452C64.3015 161.938 67.144 164.814 70.6294 164.814C74.081 164.814 76.9235 161.971 76.9235 158.554ZM114.857 57.4757C115.974 57.4757 116.922 56.4605 116.922 55.3438C116.888 54.2271 115.94 53.3135 114.857 53.3135C113.707 53.3135 112.759 54.261 112.759 55.4115C112.759 56.562 113.741 57.5095 114.857 57.4757ZM91.6774 65.9017C92.7941 65.9017 93.7755 64.9542 93.7755 63.8375C93.7755 62.7208 92.8618 61.7733 91.7451 61.7394C90.5946 61.7056 89.6133 62.6531 89.6133 63.7698C89.5794 64.9203 90.5269 65.9017 91.6774 65.9017ZM68.5314 93.3115C68.5314 92.161 67.5839 91.2135 66.4672 91.2135C65.3505 91.2135 64.403 92.1271 64.3691 93.2438C64.3353 94.3944 65.2828 95.3757 66.3995 95.3757C67.5162 95.3757 68.4975 94.4282 68.5314 93.3115ZM60.1392 116.424C61.2559 116.424 62.2373 115.442 62.2034 114.326C62.2034 113.209 61.2559 112.295 60.1392 112.261C59.0225 112.261 58.0412 113.209 58.0412 114.326C58.0412 115.442 58.9887 116.424 60.1392 116.424ZM173.738 112.261C172.587 112.261 171.64 113.243 171.674 114.393C171.674 115.51 172.621 116.424 173.738 116.458C174.854 116.458 175.836 115.51 175.836 114.36C175.836 113.209 174.888 112.228 173.738 112.261ZM142.2 166.912C143.316 166.912 144.298 165.931 144.264 164.814C144.264 163.697 143.316 162.784 142.2 162.75C141.049 162.75 140.101 163.697 140.101 164.814C140.101 165.964 141.083 166.912 142.2 166.912ZM114.79 166.98C113.673 166.98 112.725 167.961 112.725 169.112C112.759 170.228 113.707 171.142 114.79 171.142C115.906 171.142 116.888 170.161 116.888 169.044C116.922 167.893 115.94 166.946 114.79 166.98ZM167.477 94.3605C166.327 94.3605 165.379 95.308 165.379 96.4247C165.379 97.5752 166.327 98.5227 167.477 98.5227C168.594 98.5227 169.542 97.5752 169.542 96.4924C169.542 95.3419 168.594 94.3605 167.477 94.3605Z" fill="url(#paint3_linear_1246_512)"/>
<path d="M85.3495 114.292C85.3495 98.049 98.5807 84.8517 114.824 84.8517C131.1 84.8517 144.298 98.0828 144.298 114.393C144.264 130.636 131.033 143.834 114.79 143.8C98.5468 143.766 85.3495 130.569 85.3495 114.292ZM114.824 139.57C128.698 139.57 140.034 128.267 140.101 114.427C140.135 100.485 128.799 89.1154 114.891 89.0816C100.983 89.0816 89.6471 100.418 89.6471 114.292C89.5794 128.2 100.916 139.57 114.824 139.57Z" fill="url(#paint4_linear_1246_512)"/>
<path d="M131.675 114.326C131.675 123.632 124.129 131.178 114.824 131.178C105.518 131.178 97.9377 123.598 97.9716 114.258C97.9716 104.986 105.585 97.4399 114.891 97.4737C124.129 97.5076 131.675 105.054 131.675 114.326ZM127.446 114.36C127.446 107.422 121.761 101.737 114.824 101.737C107.92 101.737 102.235 107.389 102.201 114.292C102.168 121.229 107.853 126.948 114.79 126.948C121.727 126.948 127.446 121.263 127.446 114.36Z" fill="url(#paint5_linear_1246_512)"/>
</g>
</g>
<defs>
<filter id="filter0_i_1246_512" x="0.835938" y="0.591309" width="227.717" height="227.717" filterUnits="userSpaceOnUse" color-interpolation-filters="sRGB">
<feFlood flood-opacity="0" result="BackgroundImageFix"/>
<feBlend mode="normal" in="SourceGraphic" in2="BackgroundImageFix" result="shape"/>
<feColorMatrix in="SourceAlpha" type="matrix" values="0 0 0 0 0 0 0 0 0 0 0 0 0 0 0 0 0 0 127 0" result="hardAlpha"/>
<feOffset dx="0.5" dy="0.5"/>
<feGaussianBlur stdDeviation="3.45"/>
<feComposite in2="hardAlpha" operator="arithmetic" k2="-1" k3="1"/>
<feColorMatrix type="matrix" values="0 0 0 0 0 0 0 0 0 0 0 0 0 0 0 0 0 0 0.15 0"/>
<feBlend mode="normal" in2="shape" result="effect1_innerShadow_1246_512"/>
</filter>
<filter id="filter1_d_1246_512" x="3.41232" y="3.16375" width="223.072" height="223.072" filterUnits="userSpaceOnUse" color-interpolation-filters="sRGB">
<feFlood flood-opacity="0" result="BackgroundImageFix"/>
<feColorMatrix in="SourceAlpha" type="matrix" values="0 0 0 0 0 0 0 0 0 0 0 0 0 0 0 0 0 0 127 0" result="hardAlpha"/>
<feOffset dx="0.5" dy="0.5"/>
<feGaussianBlur stdDeviation="3.95"/>
<feComposite in2="hardAlpha" operator="out"/>
<feColorMatrix type="matrix" values="0 0 0 0 0 0 0 0 0 0 0 0 0 0 0 0 0 0 0.15 0"/>
<feBlend mode="normal" in2="BackgroundImageFix" result="effect1_dropShadow_1246_512"/>
<feBlend mode="normal" in="SourceGraphic" in2="effect1_dropShadow_1246_512" result="shape"/>
</filter>
<linearGradient id="paint0_linear_1246_512" x1="114.444" y1="0.591309" x2="114.444" y2="227.808" gradientUnits="userSpaceOnUse">
<stop stop-color="#242053"/>
<stop offset="1" stop-color="#1F1C42"/>
</linearGradient>
<linearGradient id="paint1_linear_1246_512" x1="103.561" y1="10.5638" x2="103.561" y2="240.144" gradientUnits="userSpaceOnUse">
<stop stop-color="#1B173F"/>
<stop offset="1" stop-color="#161435"/>
</linearGradient>
<linearGradient id="paint2_linear_1246_512" x1="114.448" y1="10.5638" x2="114.448" y2="217.835" gradientUnits="userSpaceOnUse">
<stop stop-color="#383183"/>
<stop offset="0.985702" stop-color="#221E4F"/>
</linearGradient>
<linearGradient id="paint3_linear_1246_512" x1="67.1925" y1="131.855" x2="170.34" y2="131.855" gradientUnits="userSpaceOnUse">
<stop stop-color="#DF669F"/>
<stop offset="1" stop-color="#F6565B"/>
</linearGradient>
<linearGradient id="paint4_linear_1246_512" x1="67.1925" y1="131.855" x2="170.34" y2="131.855" gradientUnits="userSpaceOnUse">
<stop stop-color="#DF669F"/>
<stop offset="1" stop-color="#F6565B"/>
</linearGradient>
<linearGradient id="paint5_linear_1246_512" x1="67.1925" y1="131.855" x2="170.34" y2="131.855" gradientUnits="userSpaceOnUse">
<stop stop-color="#DF669F"/>
<stop offset="1" stop-color="#F6565B"/>
</linearGradient>
</defs>
</svg>
