<svg width="228" height="228" viewBox="0 0 228 228" fill="none" xmlns="http://www.w3.org/2000/svg">
<g id="Group 1000004127">
<g id="Ellipse 36">
<g filter="url(#filter0_i_1325_131)">
<circle cx="113.913" cy="114.143" r="113.608" fill="#13112D" fill-opacity="0.5"/>
</g>
<circle cx="113.913" cy="114.143" r="113.358" stroke="url(#paint0_linear_1325_131)" stroke-width="0.5"/>
</g>
<g id="Ellipse 37" filter="url(#filter1_d_1325_131)">
<circle cx="113.909" cy="114.144" r="103.636" fill="url(#paint1_linear_1325_131)"/>
<circle cx="113.909" cy="114.144" r="103.386" stroke="url(#paint2_linear_1325_131)" stroke-width="0.5"/>
</g>
<g id="Vector">
<path d="M114.233 60.249C131.601 60.249 148.97 60.249 166.338 60.249C173.249 60.249 177.381 64.3809 177.381 71.2552C177.381 99.7764 177.381 128.298 177.381 156.855C177.381 163.62 173.213 167.788 166.448 167.788C131.601 167.788 96.7542 167.788 61.8706 167.788C55.106 167.788 50.9375 163.62 50.9375 156.855C50.9375 128.334 50.9375 99.8129 50.9375 71.2552C50.9375 64.3443 55.0694 60.2124 61.9803 60.2124C79.3855 60.249 96.8273 60.249 114.233 60.249ZM54.5209 84.9307C54.5209 85.7352 54.5209 86.3568 54.5209 86.9419C54.5209 110.234 54.5209 133.526 54.5209 156.819C54.5209 161.718 57.0074 164.205 61.9437 164.205C96.7542 164.205 131.528 164.205 166.338 164.205C171.275 164.205 173.761 161.718 173.761 156.855C173.761 133.563 173.761 110.271 173.761 86.9784C173.761 86.3202 173.761 85.6986 173.761 84.9673C133.941 84.9307 94.3774 84.9307 54.5209 84.9307ZM173.542 81.3473C173.652 81.0548 173.725 80.9451 173.725 80.8354C173.761 77.7273 173.761 74.6192 173.761 71.5112C173.761 66.2092 171.421 63.8324 166.083 63.8324C131.455 63.8324 96.8273 63.8324 62.1997 63.8324C61.7243 63.8324 61.2124 63.8324 60.7371 63.8324C57.2268 63.9787 54.5575 66.6845 54.5209 70.1948C54.4844 73.4857 54.4844 76.7766 54.5209 80.0675C54.5209 80.4697 54.6306 80.872 54.7038 81.3108C94.3774 81.3473 133.905 81.3473 173.542 81.3473Z" fill="url(#paint3_linear_1325_131)"/>
<path d="M80.2631 135.611C82.1279 140.584 81.2504 144.386 77.7035 146.763C74.4857 148.957 70.0613 148.482 67.3189 145.703C64.5765 142.887 64.2108 138.536 66.4413 135.282C68.5987 132.137 72.8769 130.857 76.314 132.503C77.411 133.014 77.996 132.868 78.8005 132.064C83.7003 127.237 88.6732 122.484 93.6461 117.694C94.3409 117.035 94.5602 116.56 94.158 115.536C92.732 112.136 93.7558 108.369 96.4982 106.102C99.1675 103.908 103.299 103.725 106.225 105.663C109.186 107.638 110.393 111.148 109.479 114.841C109.333 115.39 109.442 116.341 109.845 116.67C114.123 120.217 118.438 123.654 122.789 127.127C125.568 125.263 128.42 124.751 131.491 126.14C131.784 126.286 132.369 125.811 132.808 125.628C132.954 125.555 133.064 125.372 133.174 125.226C138.256 119.705 143.339 114.22 148.458 108.625C147.288 106.504 146.666 104.311 147.324 101.861C148.458 97.7287 152.334 95.1325 156.466 95.8273C160.561 96.522 163.56 100.142 163.304 104.237C163.048 108.589 159.72 111.989 155.405 112.062C154.272 112.099 153.175 111.55 152.041 111.441C151.493 111.368 150.688 111.441 150.359 111.806C145.167 117.364 140.048 122.996 134.892 128.627C134.819 128.7 134.782 128.846 134.746 128.956C137.123 133.929 135.952 138.609 131.747 140.803C128.713 142.375 125.751 142.156 123.008 140.108C120.12 137.951 119.205 134.916 120.083 131.515C120.412 130.162 120.046 129.541 119.096 128.773C115.366 125.848 111.673 122.849 107.98 119.851C107.175 119.193 106.627 119.01 105.603 119.595C103.263 120.984 100.776 120.948 98.2168 119.961C97.6318 119.741 96.6079 119.814 96.2057 120.217C90.9037 125.263 85.6017 130.418 80.2631 135.611ZM77.6669 140.072C77.6669 137.439 75.6924 135.391 73.1328 135.355C70.6098 135.318 68.489 137.402 68.4524 139.962C68.4158 142.522 70.4635 144.642 73.0231 144.679C75.5461 144.752 77.6304 142.631 77.6669 140.072ZM123.264 133.563C123.264 136.196 125.202 138.17 127.835 138.17C130.431 138.17 132.442 136.196 132.442 133.563C132.442 130.93 130.468 128.956 127.872 128.919C125.275 128.956 123.301 130.967 123.264 133.563ZM106.188 112.392C106.152 109.795 104.104 107.784 101.544 107.821C98.9847 107.857 96.937 109.978 97.0101 112.538C97.0833 115.134 99.1309 117.108 101.691 117.072C104.36 117.035 106.225 115.097 106.188 112.392ZM155.259 99.301C152.626 99.301 150.652 101.239 150.652 103.908C150.652 106.541 152.59 108.552 155.223 108.552C157.819 108.552 159.866 106.541 159.866 103.945C159.866 101.349 157.819 99.301 155.259 99.301Z" fill="url(#paint4_linear_1325_131)"/>
<path d="M146.557 73.7782C145.716 73.7782 144.765 73.9976 144.033 73.7051C143.339 73.4126 142.498 72.6813 142.388 72.0231C142.315 71.5477 143.229 70.4508 143.778 70.3776C145.642 70.1582 147.544 70.1582 149.372 70.3776C149.957 70.4508 150.944 71.5112 150.871 71.9865C150.762 72.6447 149.957 73.4491 149.262 73.7417C148.458 73.9976 147.471 73.7782 146.557 73.7782Z" fill="url(#paint5_linear_1325_131)"/>
<path d="M161.585 73.7417C160.671 73.7417 159.684 73.9611 158.879 73.6685C158.221 73.4491 157.526 72.6081 157.416 71.95C157.343 71.4746 158.221 70.4508 158.733 70.3776C160.634 70.1948 162.609 70.1582 164.547 70.3776C165.095 70.4508 165.973 71.5477 165.936 72.0962C165.9 72.6813 164.986 73.4491 164.327 73.6685C163.486 73.9611 162.499 73.7782 161.585 73.7417Z" fill="url(#paint6_linear_1325_131)"/>
<path d="M131.528 73.7782C130.724 73.7782 129.846 73.9976 129.188 73.7051C128.457 73.4126 127.542 72.6813 127.469 72.0597C127.396 71.5112 128.347 70.4142 128.968 70.3045C130.687 70.0486 132.479 70.0486 134.234 70.3045C134.856 70.3776 135.77 71.4746 135.733 72.0597C135.697 72.6447 134.782 73.4126 134.051 73.7051C133.283 73.9976 132.369 73.7782 131.528 73.7782Z" fill="url(#paint7_linear_1325_131)"/>
</g>
</g>
<defs>
<filter id="filter0_i_1325_131" x="0.304688" y="0.535156" width="227.717" height="227.717" filterUnits="userSpaceOnUse" color-interpolation-filters="sRGB">
<feFlood flood-opacity="0" result="BackgroundImageFix"/>
<feBlend mode="normal" in="SourceGraphic" in2="BackgroundImageFix" result="shape"/>
<feColorMatrix in="SourceAlpha" type="matrix" values="0 0 0 0 0 0 0 0 0 0 0 0 0 0 0 0 0 0 127 0" result="hardAlpha"/>
<feOffset dx="0.5" dy="0.5"/>
<feGaussianBlur stdDeviation="3.45"/>
<feComposite in2="hardAlpha" operator="arithmetic" k2="-1" k3="1"/>
<feColorMatrix type="matrix" values="0 0 0 0 0 0 0 0 0 0 0 0 0 0 0 0 0 0 0.15 0"/>
<feBlend mode="normal" in2="shape" result="effect1_innerShadow_1325_131"/>
</filter>
<filter id="filter1_d_1325_131" x="2.87344" y="3.10781" width="223.072" height="223.072" filterUnits="userSpaceOnUse" color-interpolation-filters="sRGB">
<feFlood flood-opacity="0" result="BackgroundImageFix"/>
<feColorMatrix in="SourceAlpha" type="matrix" values="0 0 0 0 0 0 0 0 0 0 0 0 0 0 0 0 0 0 127 0" result="hardAlpha"/>
<feOffset dx="0.5" dy="0.5"/>
<feGaussianBlur stdDeviation="3.95"/>
<feComposite in2="hardAlpha" operator="out"/>
<feColorMatrix type="matrix" values="0 0 0 0 0 0 0 0 0 0 0 0 0 0 0 0 0 0 0.15 0"/>
<feBlend mode="normal" in2="BackgroundImageFix" result="effect1_dropShadow_1325_131"/>
<feBlend mode="normal" in="SourceGraphic" in2="effect1_dropShadow_1325_131" result="shape"/>
</filter>
<linearGradient id="paint0_linear_1325_131" x1="113.913" y1="0.535156" x2="113.913" y2="227.752" gradientUnits="userSpaceOnUse">
<stop stop-color="#242053"/>
<stop offset="1" stop-color="#1F1C42"/>
</linearGradient>
<linearGradient id="paint1_linear_1325_131" x1="103.022" y1="10.5078" x2="103.022" y2="240.088" gradientUnits="userSpaceOnUse">
<stop stop-color="#1B173F"/>
<stop offset="1" stop-color="#161435"/>
</linearGradient>
<linearGradient id="paint2_linear_1325_131" x1="113.909" y1="10.5078" x2="113.909" y2="217.779" gradientUnits="userSpaceOnUse">
<stop stop-color="#383183"/>
<stop offset="0.985702" stop-color="#221E4F"/>
</linearGradient>
<linearGradient id="paint3_linear_1325_131" x1="50.9375" y1="167.788" x2="177.381" y2="167.788" gradientUnits="userSpaceOnUse">
<stop stop-color="#6BADFC"/>
<stop offset="1" stop-color="#5F6DF6"/>
</linearGradient>
<linearGradient id="paint4_linear_1325_131" x1="50.9375" y1="167.788" x2="177.381" y2="167.788" gradientUnits="userSpaceOnUse">
<stop stop-color="#6BADFC"/>
<stop offset="1" stop-color="#5F6DF6"/>
</linearGradient>
<linearGradient id="paint5_linear_1325_131" x1="50.9375" y1="167.788" x2="177.381" y2="167.788" gradientUnits="userSpaceOnUse">
<stop stop-color="#6BADFC"/>
<stop offset="1" stop-color="#5F6DF6"/>
</linearGradient>
<linearGradient id="paint6_linear_1325_131" x1="50.9375" y1="167.788" x2="177.381" y2="167.788" gradientUnits="userSpaceOnUse">
<stop stop-color="#6BADFC"/>
<stop offset="1" stop-color="#5F6DF6"/>
</linearGradient>
<linearGradient id="paint7_linear_1325_131" x1="50.9375" y1="167.788" x2="177.381" y2="167.788" gradientUnits="userSpaceOnUse">
<stop stop-color="#6BADFC"/>
<stop offset="1" stop-color="#5F6DF6"/>
</linearGradient>
</defs>
</svg>
