<svg width="228" height="228" viewBox="0 0 228 228" fill="none" xmlns="http://www.w3.org/2000/svg">
<g id="Group 482211">
<g id="Ellipse 38">
<g filter="url(#filter0_i_1246_494)">
<circle cx="113.874" cy="114.199" r="113.608" fill="#13112D" fill-opacity="0.5"/>
</g>
<circle cx="113.874" cy="114.199" r="113.358" stroke="url(#paint0_linear_1246_494)" stroke-width="0.5"/>
</g>
<g id="Ellipse 39" filter="url(#filter1_d_1246_494)">
<circle cx="113.878" cy="114.199" r="103.636" fill="url(#paint1_linear_1246_494)"/>
<circle cx="113.878" cy="114.199" r="103.386" stroke="url(#paint2_linear_1246_494)" stroke-width="0.5"/>
</g>
<g id="Vector">
<path d="M186.298 143.084C185.798 135.984 184.198 128.984 181.798 122.184C180.098 117.384 176.598 113.684 175.098 108.784C174.198 105.984 174.298 103.984 176.698 102.384C179.398 100.684 181.498 98.3843 182.898 95.4843C185.498 90.0843 186.198 84.3843 185.198 78.4843C184.398 73.9843 181.998 70.6843 177.598 68.8843C175.598 67.9843 173.598 66.9843 171.598 66.0843C169.598 65.1843 167.498 64.1843 165.398 63.6843C157.298 61.9843 149.998 63.0843 144.198 69.7843C142.898 71.2843 140.798 72.0843 138.998 73.0843C137.698 73.7843 136.998 74.5843 137.398 76.0843C138.098 78.4843 139.398 80.5843 141.698 81.6842C142.798 82.1842 142.998 82.8843 142.698 83.8843C141.398 88.9843 141.198 94.0843 141.698 99.2843C142.198 104.984 145.098 108.084 150.798 108.784C152.598 108.984 154.498 109.084 156.298 109.184C156.498 109.384 156.598 109.484 156.798 109.684C156.298 110.084 155.898 110.584 155.398 110.884C154.498 111.584 153.398 112.084 152.798 112.984C150.598 116.184 148.398 119.384 146.498 122.784C142.098 130.584 138.298 138.684 136.898 147.584C135.498 156.684 134.398 165.884 133.298 175.084C132.898 178.284 132.798 181.484 132.598 184.584C132.498 186.084 133.098 187.284 134.698 187.484C136.298 187.684 137.098 186.584 137.298 185.084C137.298 184.784 137.398 184.484 137.398 184.084C138.298 174.984 139.298 165.784 140.198 156.684C141.598 141.584 147.698 128.384 156.298 116.084C156.698 115.584 157.298 114.984 157.898 114.884C161.898 113.684 165.998 112.684 169.998 111.484C171.198 111.084 171.898 111.584 171.898 112.584C171.798 114.884 173.198 116.184 174.398 117.684C175.098 118.484 175.598 119.484 176.098 120.484C179.298 126.884 180.598 133.784 181.498 140.684C182.498 148.184 183.098 155.684 183.298 163.284C183.398 165.284 185.898 165.984 186.998 164.384C186.998 164.384 186.998 164.384 186.998 164.284C187.298 163.884 187.398 163.484 187.398 162.984C187.098 156.384 186.798 149.684 186.298 143.084ZM168.698 97.3843C167.598 96.5843 167.098 95.7842 167.698 94.1842C168.198 92.9842 168.098 91.3843 167.998 90.0843C167.898 88.6843 166.998 87.8843 165.498 87.9843C164.098 88.0843 163.298 88.9843 163.398 90.4843C163.498 91.8843 163.298 92.9842 162.398 94.1842C161.998 94.6842 162.198 96.0843 162.598 96.8843C163.798 99.6843 165.898 101.784 168.698 102.884C170.298 103.584 169.698 104.684 169.798 105.684C169.898 106.884 169.198 106.984 168.298 107.184C165.998 107.684 163.698 108.284 161.198 108.984C160.998 108.384 160.898 107.884 160.798 107.384C160.198 104.984 159.498 104.484 157.098 104.484C154.798 104.384 152.498 104.384 150.198 104.084C148.298 103.884 146.898 102.784 146.498 100.784C145.498 94.9843 145.798 89.1843 147.398 83.5843C147.798 82.1843 153.798 80.6843 154.798 81.7843C155.098 82.1843 155.298 82.8843 155.298 83.3843C155.298 84.8843 155.098 86.2843 155.098 87.7843C154.998 89.1843 155.498 90.1843 156.998 90.3843C158.398 90.5843 159.498 89.8843 159.598 88.4843C159.798 86.1843 160.098 83.7843 159.698 81.4843C158.998 77.3843 155.198 75.7843 150.498 77.0843C148.898 77.4843 147.298 77.8843 145.598 77.9843C144.698 78.0843 143.798 77.4843 142.798 77.2843C145.398 74.8843 147.598 72.4843 150.098 70.5843C154.398 67.2843 159.298 67.2843 164.298 68.3843C166.098 68.7843 167.798 69.5843 169.398 70.4843C171.398 71.5843 173.198 73.0843 175.698 73.4843C178.098 73.8843 179.498 75.8843 180.098 78.1842C181.598 84.4842 180.998 90.4843 177.198 95.8843C176.798 96.3843 176.398 96.8843 175.898 97.2843C172.798 99.7843 172.398 99.9843 168.698 97.3843Z" fill="url(#paint3_linear_1246_494)"/>
<path d="M51.5984 122.984C53.0984 118.784 56.8984 115.884 57.6984 110.984C62.3984 112.384 66.9984 113.684 71.5984 115.084C71.9984 115.184 72.2984 115.584 72.4984 115.984C77.7984 123.384 82.0984 131.284 85.0984 139.884C88.2985 149.284 88.9985 159.084 90.1985 168.784C90.7985 174.084 91.0984 179.484 91.5984 184.784C91.7985 186.684 92.7985 187.684 94.1985 187.384C95.8985 186.984 96.2985 185.784 96.1985 184.184C95.3985 175.584 94.6985 166.984 93.6985 158.484C92.8985 152.484 91.9984 146.484 90.2984 140.684C87.3984 130.684 82.4984 121.584 76.3984 113.184C75.5984 112.084 74.2984 111.484 73.2984 110.584C72.8984 110.184 72.5984 109.784 71.9984 109.084C74.6984 108.884 76.7984 108.784 78.7984 108.584C83.2984 107.984 86.0984 105.484 86.7984 101.084C87.9984 94.6843 87.4985 88.2843 85.6985 81.9843C85.4985 81.3843 85.3984 80.5843 85.5984 80.0843C87.0984 76.5843 86.4985 73.2843 83.6985 70.6843C79.8985 67.2843 75.3984 65.1843 70.4984 64.0843C64.4984 62.7843 58.7984 63.4843 53.9984 67.7843C53.5984 68.1843 52.9984 68.2843 52.4984 68.4843C48.7984 69.5843 46.0984 71.8843 44.5984 75.3843C42.9984 79.1843 42.9984 83.0843 43.4984 87.0843C44.2984 93.8843 46.9984 99.5843 53.1984 103.084C53.6984 103.384 54.0984 104.084 54.1984 104.684C54.6984 108.084 53.1984 111.184 51.4984 113.584C47.2984 119.684 45.1984 126.384 43.8984 133.384C42.0984 142.984 41.1984 152.584 40.8984 162.284C40.8984 162.684 40.9984 163.184 41.2984 163.484C41.5984 163.984 41.9984 164.484 42.2984 164.884C43.3984 166.484 45.8984 165.684 45.9984 163.784C46.2984 157.084 46.5984 150.284 47.0984 143.584C47.5984 136.684 49.1985 129.684 51.5984 122.984ZM52.7984 96.9843C50.0984 94.3843 48.6984 91.0843 48.3984 87.4843C48.0984 84.4843 48.0984 81.3843 48.5984 78.3843C49.0984 75.2843 51.1985 73.1843 54.5984 72.7843C55.1985 72.6843 55.9984 72.3843 56.3984 71.8843C60.0984 67.8843 64.6985 67.4843 69.5984 68.5843C73.5984 69.4843 77.2984 71.1843 80.3984 73.9843C81.1984 74.6843 81.4985 75.8843 82.0984 76.8843C81.8984 76.9843 81.6984 77.1843 81.4984 77.2843C80.6984 77.0843 79.8984 76.9843 79.0984 76.8843C77.3984 76.6843 75.8984 77.5843 75.7984 78.9843C75.5984 80.4843 76.5984 81.4843 78.5984 81.4843C80.3984 81.4843 81.0984 82.2843 81.5984 83.9843C82.7985 88.8843 82.9985 93.7843 82.5984 98.7843C82.2985 102.284 81.0985 103.584 77.6985 103.984C75.8985 104.184 73.9984 104.184 72.1984 104.184C69.1984 104.184 68.6984 104.584 67.9984 107.484C67.8984 107.884 67.7984 108.184 67.6984 108.684C65.0984 108.084 62.3984 107.684 59.8984 106.684C59.1984 106.384 59.0984 104.584 58.5984 103.384C61.9984 101.984 64.4984 100.184 66.0984 97.1843C66.7985 95.7843 67.0984 94.5843 65.9984 93.0843C65.2984 92.0843 64.6985 90.8843 66.5984 89.7843C67.5984 89.1843 67.8984 87.2843 68.3984 85.9843C64.7984 84.3843 61.2984 86.2843 60.8984 89.8843C60.7984 91.2843 60.8984 92.8843 61.2984 94.1843C61.6984 95.2843 61.4984 95.9843 60.6984 96.6843C57.7984 99.7843 55.6984 99.7843 52.7984 96.9843Z" fill="url(#paint4_linear_1246_494)"/>
<path d="M119.698 69.6843C124.398 66.9843 127.898 63.2843 128.198 57.5843C128.498 51.6843 125.498 47.4843 120.798 44.6843C110.698 38.7843 100.398 38.6843 90.2984 44.6843C80.8984 50.2843 79.9984 61.0843 88.2984 67.5843C91.3984 69.9843 93.5984 72.0843 92.9984 76.3843C92.6984 78.1843 94.9984 79.0843 96.5984 77.9843C97.0984 77.5843 97.5984 77.1843 97.9984 76.6843C99.8984 74.2843 101.998 72.0843 104.998 73.3843C110.498 73.1843 115.298 72.2843 119.698 69.6843ZM102.598 68.4843C100.798 68.2843 98.9985 67.8843 97.5985 70.2843C97.4985 67.8843 96.2984 67.1843 94.7984 66.2843C92.7984 65.1843 90.8984 63.7843 89.3984 62.1843C86.3984 58.8843 86.5985 54.6843 89.5985 51.2843C91.9985 48.4843 95.0984 46.8843 98.4984 45.9843C104.798 44.3843 110.998 44.6843 116.898 47.6843C117.198 47.7843 117.498 47.9843 117.698 48.1843C125.498 52.8843 125.598 60.6843 117.798 65.3843C113.098 68.2843 107.998 68.9843 102.598 68.4843Z" fill="url(#paint5_linear_1246_494)"/>
<path d="M134.298 105.484C135.098 105.284 136.198 105.384 136.698 104.884C137.198 104.384 137.298 103.284 137.198 102.484C136.898 101.284 136.098 100.284 135.798 99.1843C135.598 98.2843 135.598 97.2843 135.798 96.3843C136.298 93.6843 137.498 90.8843 137.198 88.2843C136.398 80.2843 130.298 75.2843 122.198 75.1843C118.698 75.0843 115.498 76.0843 112.598 77.8843C104.798 82.7843 102.298 92.4843 106.998 99.5843C110.798 105.184 118.198 107.384 125.398 105.184C129.598 103.884 129.698 103.884 134.098 105.384C134.198 105.484 134.198 105.584 134.298 105.484ZM131.498 94.3843C130.898 95.5843 130.298 96.6843 129.598 97.8843C128.898 98.2843 127.998 98.6843 127.298 99.1843C124.098 101.084 120.798 102.084 117.098 101.184C110.498 99.6843 107.398 93.1843 110.298 87.0843C113.098 81.0843 120.898 78.0843 126.798 80.7843C132.198 83.1843 134.198 89.0843 131.498 94.3843Z" fill="url(#paint6_linear_1246_494)"/>
<path d="M57.1984 135.484C57.6984 133.484 58.3984 131.684 60.5984 131.084C62.8984 130.584 63.8984 132.184 64.9984 133.684C65.8984 134.884 66.9984 135.284 68.2984 134.284C69.4984 133.384 69.4984 132.184 68.7984 131.084C67.0984 128.284 64.6984 126.184 61.1984 126.384C57.5984 126.484 54.7984 128.284 53.4984 131.784C52.6984 133.784 51.9984 135.884 51.7984 137.984C50.9984 147.084 50.5984 165.484 50.5984 165.484C50.5984 168.484 50.5984 171.484 50.5984 174.384C50.5984 174.884 50.7984 175.484 51.1984 175.784C51.2984 175.884 51.3984 176.084 51.5984 176.184C52.8984 177.484 55.0984 176.584 55.0984 174.684C54.9984 168.584 54.8984 162.484 54.8984 156.384C55.1984 149.384 55.4984 142.384 57.1984 135.484Z" fill="url(#paint7_linear_1246_494)"/>
<path d="M177.998 165.584C177.998 165.684 178.198 150.684 177.498 143.184C177.098 139.084 176.198 134.884 174.698 130.984C172.698 125.784 165.798 124.784 161.798 128.684C160.598 129.784 160.198 130.984 161.198 132.384C161.998 133.484 163.498 133.284 164.898 132.184C167.198 130.284 169.998 130.884 171.098 133.684C171.698 135.184 172.098 136.884 172.298 138.484C173.798 147.084 173.898 155.784 173.798 164.384C173.798 167.784 173.698 171.184 173.598 174.584C173.598 176.384 175.798 177.384 177.098 176.084C177.198 175.984 177.298 175.884 177.398 175.784C177.798 175.384 177.998 174.884 177.998 174.384C177.998 171.484 177.998 168.484 177.998 165.584Z" fill="url(#paint8_linear_1246_494)"/>
<path d="M74.6985 151.784C74.4985 149.584 73.4984 148.584 71.9984 148.884C70.4984 149.084 69.8984 150.184 70.0984 152.284C70.6985 163.084 71.2984 173.784 71.8984 184.584C71.9984 186.184 72.3984 187.384 74.0984 187.584C75.5984 187.684 76.4984 186.484 76.4984 184.584C76.4984 180.784 76.4984 177.084 76.4984 173.484C75.8984 165.984 75.2985 158.884 74.6985 151.784Z" fill="url(#paint9_linear_1246_494)"/>
<path d="M156.698 148.884C154.898 148.884 154.298 149.984 154.198 151.584C153.598 158.784 152.998 165.984 152.398 173.284C152.398 176.884 152.398 180.684 152.398 184.484C152.398 186.484 153.298 187.684 154.798 187.484C156.598 187.384 156.998 186.184 157.098 184.584C157.698 173.784 158.298 162.984 158.898 152.084C158.898 150.084 158.198 148.884 156.698 148.884Z" fill="url(#paint10_linear_1246_494)"/>
</g>
</g>
<defs>
<filter id="filter0_i_1246_494" x="0.265625" y="0.590454" width="227.717" height="227.717" filterUnits="userSpaceOnUse" color-interpolation-filters="sRGB">
<feFlood flood-opacity="0" result="BackgroundImageFix"/>
<feBlend mode="normal" in="SourceGraphic" in2="BackgroundImageFix" result="shape"/>
<feColorMatrix in="SourceAlpha" type="matrix" values="0 0 0 0 0 0 0 0 0 0 0 0 0 0 0 0 0 0 127 0" result="hardAlpha"/>
<feOffset dx="0.5" dy="0.5"/>
<feGaussianBlur stdDeviation="3.45"/>
<feComposite in2="hardAlpha" operator="arithmetic" k2="-1" k3="1"/>
<feColorMatrix type="matrix" values="0 0 0 0 0 0 0 0 0 0 0 0 0 0 0 0 0 0 0.15 0"/>
<feBlend mode="normal" in2="shape" result="effect1_innerShadow_1246_494"/>
</filter>
<filter id="filter1_d_1246_494" x="2.842" y="3.1629" width="223.072" height="223.072" filterUnits="userSpaceOnUse" color-interpolation-filters="sRGB">
<feFlood flood-opacity="0" result="BackgroundImageFix"/>
<feColorMatrix in="SourceAlpha" type="matrix" values="0 0 0 0 0 0 0 0 0 0 0 0 0 0 0 0 0 0 127 0" result="hardAlpha"/>
<feOffset dx="0.5" dy="0.5"/>
<feGaussianBlur stdDeviation="3.95"/>
<feComposite in2="hardAlpha" operator="out"/>
<feColorMatrix type="matrix" values="0 0 0 0 0 0 0 0 0 0 0 0 0 0 0 0 0 0 0.15 0"/>
<feBlend mode="normal" in2="BackgroundImageFix" result="effect1_dropShadow_1246_494"/>
<feBlend mode="normal" in="SourceGraphic" in2="effect1_dropShadow_1246_494" result="shape"/>
</filter>
<linearGradient id="paint0_linear_1246_494" x1="113.874" y1="0.590454" x2="113.874" y2="227.807" gradientUnits="userSpaceOnUse">
<stop stop-color="#242053"/>
<stop offset="1" stop-color="#1F1C42"/>
</linearGradient>
<linearGradient id="paint1_linear_1246_494" x1="102.991" y1="10.5629" x2="102.991" y2="240.143" gradientUnits="userSpaceOnUse">
<stop stop-color="#1B173F"/>
<stop offset="1" stop-color="#161435"/>
</linearGradient>
<linearGradient id="paint2_linear_1246_494" x1="113.878" y1="10.5629" x2="113.878" y2="217.835" gradientUnits="userSpaceOnUse">
<stop stop-color="#383183"/>
<stop offset="0.985702" stop-color="#221E4F"/>
</linearGradient>
<linearGradient id="paint3_linear_1246_494" x1="40.433" y1="113.875" x2="187.398" y2="113.875" gradientUnits="userSpaceOnUse">
<stop stop-color="#636AF2"/>
<stop offset="1" stop-color="#DF669F"/>
</linearGradient>
<linearGradient id="paint4_linear_1246_494" x1="40.433" y1="113.875" x2="187.398" y2="113.875" gradientUnits="userSpaceOnUse">
<stop stop-color="#636AF2"/>
<stop offset="1" stop-color="#DF669F"/>
</linearGradient>
<linearGradient id="paint5_linear_1246_494" x1="40.433" y1="113.875" x2="187.398" y2="113.875" gradientUnits="userSpaceOnUse">
<stop stop-color="#636AF2"/>
<stop offset="1" stop-color="#DF669F"/>
</linearGradient>
<linearGradient id="paint6_linear_1246_494" x1="40.433" y1="113.875" x2="187.398" y2="113.875" gradientUnits="userSpaceOnUse">
<stop stop-color="#636AF2"/>
<stop offset="1" stop-color="#DF669F"/>
</linearGradient>
<linearGradient id="paint7_linear_1246_494" x1="40.433" y1="113.875" x2="187.398" y2="113.875" gradientUnits="userSpaceOnUse">
<stop stop-color="#636AF2"/>
<stop offset="1" stop-color="#DF669F"/>
</linearGradient>
<linearGradient id="paint8_linear_1246_494" x1="40.433" y1="113.875" x2="187.398" y2="113.875" gradientUnits="userSpaceOnUse">
<stop stop-color="#636AF2"/>
<stop offset="1" stop-color="#DF669F"/>
</linearGradient>
<linearGradient id="paint9_linear_1246_494" x1="40.433" y1="113.875" x2="187.398" y2="113.875" gradientUnits="userSpaceOnUse">
<stop stop-color="#636AF2"/>
<stop offset="1" stop-color="#DF669F"/>
</linearGradient>
<linearGradient id="paint10_linear_1246_494" x1="40.433" y1="113.875" x2="187.398" y2="113.875" gradientUnits="userSpaceOnUse">
<stop stop-color="#636AF2"/>
<stop offset="1" stop-color="#DF669F"/>
</linearGradient>
</defs>
</svg>
